<?xml version="1.0" standalone="no"?>
<!DOCTYPE svg PUBLIC "-//W3C//DTD SVG 1.1//EN" "http://www.w3.org/Graphics/SVG/1.1/DTD/svg11.dtd" >
<svg>
<metadata>
Created by FontForge 20090914 at Thu Oct  3 13:11:53 2019
 By www-data
</metadata>
<defs>
<font id="ProductSans-Light" horiz-adv-x="842" >
  <font-face 
    font-family="Product Sans Light"
    font-weight="300"
    font-stretch="normal"
    units-per-em="1000"
    panose-1="2 11 3 3 3 5 2 4 2 3"
    ascent="800"
    descent="-200"
    x-height="490"
    cap-height="716"
    bbox="-164 -253.002 3284 901"
    underline-thickness="50"
    underline-position="-75"
    unicode-range="U+000D-U+2215"
  />
<missing-glyph horiz-adv-x="566" 
d="M77 716h412v-716h-412v716zM127 47h312v622h-312v-622z" />
    <glyph glyph-name="f_i" unicode="fi" horiz-adv-x="531" 
d="M182 0l-63.9971 -0.00195312v432h-92v58h92v85c0 24 4 45.333 12 64s18.833 34.334 32.5 47.001s29.167 22.167 46.5 28.5s35.666 9.5 54.999 9.5c18 0 33.5 -1.83301 46.5 -5.5s23.833 -8.16699 32.5 -13.5l-18 -56c-7.33301 4.66699 -15.833 8.5 -25.5 11.5
s-20.834 4.5 -33.501 4.5c-22.667 0 -42.334 -8.16699 -59.001 -24.5s-25 -40.166 -25 -71.499v-79h284v-490h-64v432h-220v-432zM434.003 609.998c-14 0 -25.833 4.83301 -35.5 14.5s-14.5 21.167 -14.5 34.5c0 14 4.83301 25.833 14.5 35.5s21.5 14.5 35.5 14.5
c13.333 0 24.833 -4.83301 34.5 -14.5s14.5 -21.5 14.5 -35.5c0 -13.333 -4.83301 -24.833 -14.5 -34.5s-21.167 -14.5 -34.5 -14.5z" />
    <glyph glyph-name="f_l" unicode="fl" horiz-adv-x="525" 
d="M402 0v662h-129c-26 0 -47.667 -8 -65 -24s-26 -39.667 -26 -71v-77h128v-58h-128v-432h-64v432h-92v58h92v78c0 23.333 4 44.5 12 63.5s18.833 35 32.5 48s30 23 49 30s39.5 10.5 61.5 10.5h193v-720h-64z" />
    <glyph glyph-name="f_b" unicode="fb" horiz-adv-x="911" 
d="M402 662l-129 0.00488281c-26 0 -47.667 -8 -65 -24s-26 -39.667 -26 -71v-77h128v-58h-128v-432h-64v432h-92v58h92v78c0 23.333 4 44.5 12 63.5s18.833 35 32.5 48s30 23 49 30s39.5 10.5 61.5 10.5h193v-247l-4 -68h4c8 13.333 17.667 26.166 29 38.499
s24.666 23.166 39.999 32.499s32.666 16.666 51.999 21.999s40.666 8 63.999 8c31.333 0 61 -6.5 89 -19.5s52.5 -31 73.5 -54s37.667 -50.5 50 -82.5s18.5 -67 18.5 -105s-6.16699 -73 -18.5 -105s-29 -59.5 -50 -82.5s-45.5 -41 -73.5 -54s-57.667 -19.5 -89 -19.5
c-23.333 0 -44.666 2.83301 -63.999 8.5s-36.666 13.167 -51.999 22.5s-28.666 20.166 -39.999 32.499s-21 25.166 -29 38.499h-4v-86h-60v662zM640 42.0049c23.333 0 45.833 4.66895 67.5 14.002s40.667 22.666 57 39.999s29.333 38.666 39 63.999s14.5 53.666 14.5 84.999
s-4.83301 59.5 -14.5 84.5s-22.667 46.333 -39 64s-35.333 31.167 -57 40.5s-44.167 14 -67.5 14s-45.833 -4.5 -67.5 -13.5s-40.667 -22.167 -57 -39.5s-29.333 -38.666 -39 -63.999s-14.5 -54 -14.5 -86s4.83301 -60.5 14.5 -85.5s22.667 -46.333 39 -64
s35.333 -31 57 -40s44.167 -13.5 67.5 -13.5z" />
    <glyph glyph-name="f_f" unicode="ff" horiz-adv-x="631" 
d="M548 724c18 0 33.5059 -1.83691 46.5059 -5.50391s23.833 -8.16699 32.5 -13.5l-18 -56c-7.33301 4.66699 -15.833 8.5 -25.5 11.5s-20.834 4.5 -33.501 4.5c-22.667 0 -42.334 -8.16699 -59.001 -24.5s-25 -40.166 -25 -71.499v-79h128v-58h-128v-432h-64v432h-220v-432
h-64v432h-92v58h92v85c0 24 4 45.333 12 64s18.833 34.334 32.5 47.001s29.167 22.167 46.5 28.5s35.666 9.5 54.999 9.5c18 0 33.5 -1.83301 46.5 -5.5s23.833 -8.16699 32.5 -13.5l-18 -56c-7.33301 4.66699 -15.833 8.5 -25.5 11.5s-20.834 4.5 -33.501 4.5
c-22.667 0 -42.334 -8.16699 -59.001 -24.5s-25 -40.166 -25 -71.499v-79h220v85c0 24 4 45.333 12 64s18.833 34.334 32.5 47.001s29.167 22.167 46.5 28.5s35.666 9.5 54.999 9.5z" />
    <glyph glyph-name="f_f_b" unicode="ffb" horiz-adv-x="1195" 
d="M686 662l-128.997 0.00292969c-26 0 -47.667 -8 -65 -24s-26 -39.667 -26 -71v-77h128v-58h-128v-432h-64v432h-220v-432h-64v432h-92v58h92v85c0 24 4 45.333 12 64s18.833 34.334 32.5 47.001s29.167 22.167 46.5 28.5s35.666 9.5 54.999 9.5
c18 0 33.5 -1.83301 46.5 -5.5s23.833 -8.16699 32.5 -13.5l-18 -56c-7.33301 4.66699 -15.833 8.5 -25.5 11.5s-20.834 4.5 -33.501 4.5c-22.667 0 -42.334 -8.16699 -59.001 -24.5s-25 -40.166 -25 -71.499v-79h220v78c0 23.333 4 44.5 12 63.5s18.833 35 32.5 48
s30 23 49 30s39.5 10.5 61.5 10.5h193v-247l-4 -68h4c8 13.333 17.667 26.166 29 38.499s24.666 23.166 39.999 32.499s32.666 16.666 51.999 21.999s40.666 8 63.999 8c31.333 0 61 -6.5 89 -19.5s52.5 -31 73.5 -54s37.667 -50.5 50 -82.5s18.5 -67 18.5 -105
s-6.16699 -73 -18.5 -105s-29 -59.5 -50 -82.5s-45.5 -41 -73.5 -54s-57.667 -19.5 -89 -19.5c-23.333 0 -44.666 2.83301 -63.999 8.5s-36.666 13.167 -51.999 22.5s-28.666 20.166 -39.999 32.499s-21 25.166 -29 38.499h-4v-86h-60v662zM924.003 42.0029
c23.333 0 45.833 4.66895 67.5 14.002s40.667 22.666 57 39.999s29.333 38.666 39 63.999s14.5 53.666 14.5 84.999s-4.83301 59.5 -14.5 84.5s-22.667 46.333 -39 64s-35.333 31.167 -57 40.5s-44.167 14 -67.5 14s-45.833 -4.5 -67.5 -13.5s-40.667 -22.167 -57 -39.5
s-29.333 -38.666 -39 -63.999s-14.5 -54 -14.5 -86s4.83301 -60.5 14.5 -85.5s22.667 -46.333 39 -64s35.333 -31 57 -40s44.167 -13.5 67.5 -13.5z" />
    <glyph glyph-name="f_f_h" unicode="ffh" horiz-adv-x="1161" 
d="M686 662l-128.999 -0.00292969c-26 0 -47.667 -8 -65 -24s-26 -39.667 -26 -71v-77h128v-58h-128v-432h-64v432h-220v-432h-64v432h-92v58h92v85c0 24 4 45.333 12 64s18.833 34.334 32.5 47.001s29.167 22.167 46.5 28.5s35.666 9.5 54.999 9.5
c18 0 33.5 -1.83301 46.5 -5.5s23.833 -8.16699 32.5 -13.5l-18 -56c-7.33301 4.66699 -15.833 8.5 -25.5 11.5s-20.834 4.5 -33.501 4.5c-22.667 0 -42.334 -8.16699 -59.001 -24.5s-25 -40.166 -25 -71.499v-79h220v78c0 23.333 4 44.5 12 63.5s18.833 35 32.5 48
s30 23 49 30s39.5 10.5 61.5 10.5h193v-246l-4 -78h4c15.333 32 38 58.333 68 79s66 31 108 31c30.667 0 57.334 -5 80.001 -15s41.5 -23.833 56.5 -41.5s26 -38.667 33 -63s10.5 -50.833 10.5 -79.5v-307h-64v296c0 51.333 -11.667 89.5 -35 114.5s-55.333 37.5 -96 37.5
c-23.333 0 -44.666 -5.33301 -63.999 -16s-36.333 -24.667 -51 -42s-26 -37.666 -34 -60.999s-12 -47.333 -12 -72v-257h-64v662z" />
    <glyph glyph-name="f_f_i" unicode="ffi" horiz-adv-x="815" 
d="M264 724c18 0 33.5059 -1.83691 46.5059 -5.50391s23.833 -8.16699 32.5 -13.5l-18 -56c-7.33301 4.66699 -15.833 8.5 -25.5 11.5s-20.834 4.5 -33.501 4.5c-22.667 0 -42.334 -8.16699 -59.001 -24.5s-25 -40.166 -25 -71.499v-79h220v85c0 24 4 45.333 12 64
s18.833 34.334 32.5 47.001s29.167 22.167 46.5 28.5s35.666 9.5 54.999 9.5c18 0 33.5 -1.83301 46.5 -5.5s23.833 -8.16699 32.5 -13.5l-18 -56c-7.33301 4.66699 -15.833 8.5 -25.5 11.5s-20.834 4.5 -33.501 4.5c-22.667 0 -42.334 -8.16699 -59.001 -24.5
s-25 -40.166 -25 -71.499v-79h284v-490h-64v432h-220v-432h-64v432h-220v-432h-64v432h-92v58h92v85c0 24 4 45.333 12 64s18.833 34.334 32.5 47.001s29.167 22.167 46.5 28.5s35.666 9.5 54.999 9.5zM718.006 609.996c-14 0 -25.833 4.83301 -35.5 14.5
s-14.5 21.167 -14.5 34.5c0 14 4.83301 25.833 14.5 35.5s21.5 14.5 35.5 14.5c13.333 0 24.833 -4.83301 34.5 -14.5s14.5 -21.5 14.5 -35.5c0 -13.333 -4.83301 -24.833 -14.5 -34.5s-21.167 -14.5 -34.5 -14.5z" />
    <glyph glyph-name="f_f_j" unicode="ffj" horiz-adv-x="815" 
d="M594 -161c8.66699 -4.66699 19 -7.00293 31 -7.00293c21.333 0 36.833 7 46.5 21s14.5 33.667 14.5 59v520h-220v-432h-64v432h-220v-432h-64v432h-92v58h92v85c0 24 4 45.333 12 64s18.833 34.334 32.5 47.001s29.167 22.167 46.5 28.5s35.666 9.5 54.999 9.5
c18 0 33.5 -1.83301 46.5 -5.5s23.833 -8.16699 32.5 -13.5l-18 -56c-7.33301 4.66699 -15.833 8.5 -25.5 11.5s-20.834 4.5 -33.501 4.5c-22.667 0 -42.334 -8.16699 -59.001 -24.5s-25 -40.166 -25 -71.499v-79h220v85c0 24 3.83301 45.333 11.5 64s18 34.334 31 47.001
s28 22.167 45 28.5s34.833 9.5 53.5 9.5c17.333 0 32.333 -1.83301 45 -5.5s23.334 -8.16699 32.001 -13.5l-17 -56c-9.33301 5.33301 -18.333 9.33301 -27 12s-19 4 -31 4c-22 0 -40.667 -8.16699 -56 -24.5s-23 -39.5 -23 -69.5v-81h284v-579
c0 -44.667 -10.667 -78.667 -32 -102s-51.666 -35 -90.999 -35c-19.333 0 -35.666 3.33301 -48.999 10zM718 609.997c-14 0 -25.833 4.83301 -35.5 14.5s-14.5 21.167 -14.5 34.5c0 14 4.83301 25.833 14.5 35.5s21.5 14.5 35.5 14.5c13.333 0 24.833 -4.83301 34.5 -14.5
s14.5 -21.5 14.5 -35.5c0 -13.333 -4.83301 -24.833 -14.5 -34.5s-21.167 -14.5 -34.5 -14.5z" />
    <glyph glyph-name="f_f_k" unicode="ffk" horiz-adv-x="1095" 
d="M686 662l-128.997 -0.00195312c-26 0 -47.667 -8 -65 -24s-26 -39.667 -26 -71v-77h128v-58h-128v-432h-64v432h-220v-432h-64v432h-92v58h92v85c0 24 4 45.333 12 64s18.833 34.334 32.5 47.001s29.167 22.167 46.5 28.5s35.666 9.5 54.999 9.5
c18 0 33.5 -1.83301 46.5 -5.5s23.833 -8.16699 32.5 -13.5l-18 -56c-7.33301 4.66699 -15.833 8.5 -25.5 11.5s-20.834 4.5 -33.501 4.5c-22.667 0 -42.334 -8.16699 -59.001 -24.5s-25 -40.166 -25 -71.499v-79h220v78c0 23.333 4 44.5 12 63.5s18.833 35 32.5 48
s30 23 49 30s39.5 10.5 61.5 10.5h193v-479l248 249h81v-4l-184 -185l202 -297v-4h-75l-173 256l-99 -99v-157h-64v662z" />
    <glyph glyph-name="f_f_l" unicode="ffl" horiz-adv-x="809" 
d="M686 0l0.00292969 661.998h-129c-26 0 -47.667 -8 -65 -24s-26 -39.667 -26 -71v-77h128v-58h-128v-432h-64v432h-220v-432h-64v432h-92v58h92v85c0 24 4 45.333 12 64s18.833 34.334 32.5 47.001s29.167 22.167 46.5 28.5s35.666 9.5 54.999 9.5
c18 0 33.5 -1.83301 46.5 -5.5s23.833 -8.16699 32.5 -13.5l-18 -56c-7.33301 4.66699 -15.833 8.5 -25.5 11.5s-20.834 4.5 -33.501 4.5c-22.667 0 -42.334 -8.16699 -59.001 -24.5s-25 -40.166 -25 -71.499v-79h220v78c0 23.333 4 44.5 12 63.5s18.833 35 32.5 48
s30 23 49 30s39.5 10.5 61.5 10.5h193v-720h-64z" />
    <glyph glyph-name="f_f_t" unicode="fft" horiz-adv-x="909" 
d="M686 432l-219.994 -0.00292969v-432h-64v432h-220v-432h-64v432h-92v58h92v85c0 24 4 45.333 12 64s18.833 34.334 32.5 47.001s29.167 22.167 46.5 28.5s35.666 9.5 54.999 9.5c18 0 33.5 -1.83301 46.5 -5.5s23.833 -8.16699 32.5 -13.5l-18 -56
c-7.33301 4.66699 -15.833 8.5 -25.5 11.5s-20.834 4.5 -33.501 4.5c-22.667 0 -42.334 -8.16699 -59.001 -24.5s-25 -40.166 -25 -71.499v-79h220v85c0 24 4 45.333 12 64s18.833 34.334 32.5 47.001s29.167 22.167 46.5 28.5s35.666 9.5 54.999 9.5
c18 0 33.5 -1.83301 46.5 -5.5s23.833 -8.16699 32.5 -13.5l-18 -56c-7.33301 4.66699 -15.833 8.5 -25.5 11.5s-20.834 4.5 -33.501 4.5c-22.667 0 -42.334 -8.16699 -59.001 -24.5s-25 -40.166 -25 -71.499v-79h220v150h64v-150h122v-58h-122v-295c0 -28.667 7 -50 21 -64
c13.333 -14.667 29.333 -22 48 -22c10 0 18.5 0.833008 25.5 2.5s14.833 4.5 23.5 8.5l20 -55c-11.333 -5.33301 -22.833 -9.16602 -34.5 -11.499s-25.5 -3.5 -41.5 -3.5c-34.667 0 -64 11 -88 33c-12 11.333 -21.333 25.166 -28 41.499s-10 36.166 -10 59.499v306z" />
    <glyph glyph-name="f_h" unicode="fh" horiz-adv-x="877" 
d="M402 662l-129.002 -0.000976562c-26 0 -47.667 -8 -65 -24s-26 -39.667 -26 -71v-77h128v-58h-128v-432h-64v432h-92v58h92v78c0 23.333 4 44.5 12 63.5s18.833 35 32.5 48s30 23 49 30s39.5 10.5 61.5 10.5h193v-246l-4 -78h4c15.333 32 38 58.333 68 79s66 31 108 31
c30.667 0 57.334 -5 80.001 -15s41.5 -23.833 56.5 -41.5s26 -38.667 33 -63s10.5 -50.833 10.5 -79.5v-307h-64v296c0 51.333 -11.667 89.5 -35 114.5s-55.333 37.5 -96 37.5c-23.333 0 -44.666 -5.33301 -63.999 -16s-36.333 -24.667 -51 -42s-26 -37.666 -34 -60.999
s-12 -47.333 -12 -72v-257h-64v662z" />
    <glyph glyph-name="f_j" unicode="fj" horiz-adv-x="531" 
d="M182 432l0.000976562 -432.002h-64v432h-92v58h92v85c0 24 4 45.333 12 64s18.833 34.334 32.5 47.001s29.167 22.167 46.5 28.5s35.666 9.5 54.999 9.5c18 0 33.5 -1.83301 46.5 -5.5s23.833 -8.16699 32.5 -13.5l-18 -56c-7.33301 4.66699 -15.833 8.5 -25.5 11.5
s-20.834 4.5 -33.501 4.5c-22.667 0 -42.334 -8.16699 -59.001 -24.5s-25 -40.166 -25 -71.499v-79h284v-579c0 -44.667 -10.667 -78.667 -32 -102s-51.666 -35 -90.999 -35c-19.333 0 -35.666 3.33301 -48.999 10l16 55c8.66699 -4.66699 19 -7 31 -7
c21.333 0 36.833 7 46.5 21s14.5 33.667 14.5 59v520h-220zM434.001 609.998c-14 0 -25.833 4.83301 -35.5 14.5s-14.5 21.167 -14.5 34.5c0 14 4.83301 25.833 14.5 35.5s21.5 14.5 35.5 14.5c13.333 0 24.833 -4.83301 34.5 -14.5s14.5 -21.5 14.5 -35.5
c0 -13.333 -4.83301 -24.833 -14.5 -34.5s-21.167 -14.5 -34.5 -14.5z" />
    <glyph glyph-name="f_k" unicode="fk" horiz-adv-x="811" 
d="M402 662h-129c-26 0 -47.667 -8 -65 -24s-26 -39.667 -26 -71v-77h128v-58h-128v-432h-64v432h-92v58h92v78c0 23.333 4 44.5 12 63.5s18.833 35 32.5 48s30 23 49 30s39.5 10.5 61.5 10.5h193v-479l248 249h81v-4l-184 -185l202 -297v-4h-75l-173 256l-99 -99v-157h-64
v662z" />
    <glyph glyph-name="f_t" unicode="ft" horiz-adv-x="625" 
d="M402 432l-219.997 -0.000976562v-432h-64v432h-92v58h92v85c0 24 4 45.333 12 64s18.833 34.334 32.5 47.001s29.167 22.167 46.5 28.5s35.666 9.5 54.999 9.5c18 0 33.5 -1.83301 46.5 -5.5s23.833 -8.16699 32.5 -13.5l-18 -56
c-7.33301 4.66699 -15.833 8.5 -25.5 11.5s-20.834 4.5 -33.501 4.5c-22.667 0 -42.334 -8.16699 -59.001 -24.5s-25 -40.166 -25 -71.499v-79h220v150h64v-150h122v-58h-122v-295c0 -28.667 7 -50 21 -64c13.333 -14.667 29.333 -22 48 -22c10 0 18.5 0.833008 25.5 2.5
s14.833 4.5 23.5 8.5l20 -55c-11.333 -5.33301 -22.833 -9.16602 -34.5 -11.499s-25.5 -3.5 -41.5 -3.5c-34.667 0 -64 11 -88 33c-12 11.333 -21.333 25.166 -28 41.499s-10 36.166 -10 59.499v306z" />
    <glyph glyph-name="r_f" unicode="rf" horiz-adv-x="690" 
d="M120 407l4 -0.000976562c12 30 30.667 53.667 56 71s54 26 86 26c8 0 14.5 -0.166992 19.5 -0.5s10.5 -1.16602 16.5 -2.49902v-64c-12.667 2.66699 -26.667 4 -42 4c-19.333 0 -37.333 -4.16699 -54 -12.5s-31 -19.833 -43 -34.5s-21.5 -32.167 -28.5 -52.5
s-10.5 -42.5 -10.5 -66.5v-275h-64v490h60v-83zM607 723.999c18 0 33.5029 -1.83496 46.5029 -5.50195s23.833 -8.16699 32.5 -13.5l-18 -56c-7.33301 4.66699 -15.833 8.5 -25.5 11.5s-20.834 4.5 -33.501 4.5c-22.667 0 -42.334 -8.16699 -59.001 -24.5
s-25 -40.166 -25 -71.499v-79h128v-58h-128v-432h-64v432h-92v58h92v85c0 24 4 45.333 12 64s18.833 34.334 32.5 47.001s29.167 22.167 46.5 28.5s35.666 9.5 54.999 9.5z" />
    <glyph glyph-name="r_f_f" unicode="rff" horiz-adv-x="974" 
d="M891 724c18 0 33.5059 -1.83691 46.5059 -5.50391s23.833 -8.16699 32.5 -13.5l-18 -56c-7.33301 4.66699 -15.833 8.5 -25.5 11.5s-20.834 4.5 -33.501 4.5c-22.667 0 -42.334 -8.16699 -59.001 -24.5s-25 -40.166 -25 -71.499v-79h128v-58h-128v-432h-64v432h-220v-432
h-64v432h-92v58h92v85c0 24 4 45.333 12 64s18.833 34.334 32.5 47.001s29.167 22.167 46.5 28.5s35.666 9.5 54.999 9.5c18 0 33.5 -1.83301 46.5 -5.5s23.833 -8.16699 32.5 -13.5l-18 -56c-7.33301 4.66699 -15.833 8.5 -25.5 11.5s-20.834 4.5 -33.501 4.5
c-22.667 0 -42.334 -8.16699 -59.001 -24.5s-25 -40.166 -25 -71.499v-79h220v85c0 24 4 45.333 12 64s18.833 34.334 32.5 47.001s29.167 22.167 46.5 28.5s35.666 9.5 54.999 9.5zM120.006 406.996l4 -0.000976562c12 30 30.667 53.667 56 71s54 26 86 26
c8 0 14.5 -0.166992 19.5 -0.5s10.5 -1.16602 16.5 -2.49902v-64c-12.667 2.66699 -26.667 4 -42 4c-19.333 0 -37.333 -4.16699 -54 -12.5s-31 -19.833 -43 -34.5s-21.5 -32.167 -28.5 -52.5s-10.5 -42.5 -10.5 -66.5v-275h-64v490h60v-83z" />
    <glyph glyph-name="r_t" unicode="rt" horiz-adv-x="681" 
d="M120 407l4 -0.000976562c12 30 30.667 53.667 56 71s54 26 86 26c8 0 14.5 -0.166992 19.5 -0.5s10.5 -1.16602 16.5 -2.49902v-64c-12.667 2.66699 -26.667 4 -42 4c-19.333 0 -37.333 -4.16699 -54 -12.5s-31 -19.833 -43 -34.5s-21.5 -32.167 -28.5 -52.5
s-10.5 -42.5 -10.5 -66.5v-275h-64v490h60v-83zM458 431.999l-89 0.000976562v58h89v150h64v-150h122v-58h-122v-295c0 -28.667 7 -50 21 -64c13.333 -14.667 29.333 -22 48 -22c10 0 18.5 0.833008 25.5 2.5s14.833 4.5 23.5 8.5l20 -55
c-11.333 -5.33301 -22.833 -9.16602 -34.5 -11.499s-25.5 -3.5 -41.5 -3.5c-34.667 0 -64 11 -88 33c-12 11.333 -21.333 25.166 -28 41.499s-10 36.166 -10 59.499v306z" />
    <glyph glyph-name="t_f" unicode="tf" horiz-adv-x="628" 
d="M545 724c18 0 33.5029 -1.83398 46.5029 -5.50098s23.833 -8.16699 32.5 -13.5l-18 -56c-7.33301 4.66699 -15.833 8.5 -25.5 11.5s-20.834 4.5 -33.501 4.5c-22.667 0 -42.334 -8.16699 -59.001 -24.5s-25 -40.166 -25 -71.499v-79h128v-58h-128v-432h-64v432h-220v-295
c0 -28.667 7 -50 21 -64c13.333 -14.667 29.333 -22 48 -22c10 0 18.5 0.833008 25.5 2.5s14.833 4.5 23.5 8.5l20 -55c-11.333 -5.33301 -22.833 -9.16602 -34.5 -11.499s-25.5 -3.5 -41.5 -3.5c-34.667 0 -64 11 -88 33c-12 11.333 -21.333 25.166 -28 41.499
s-10 36.166 -10 59.499v306h-89v58h89v150h64v-150h220v85c0 24 4 45.333 12 64s18.833 34.334 32.5 47.001s29.167 22.167 46.5 28.5s35.666 9.5 54.999 9.5z" />
    <glyph glyph-name="t_t" unicode="tt" horiz-adv-x="626" 
d="M179 137c0 -28.667 7 -49.998 21 -63.998c13.333 -14.667 29.333 -22 48 -22c10 0 18.5 0.833008 25.5 2.5s14.833 4.5 23.5 8.5l20 -55c-11.333 -5.33301 -22.833 -9.16602 -34.5 -11.499s-25.5 -3.5 -41.5 -3.5c-34.667 0 -64 11 -88 33
c-12 11.333 -21.333 25.166 -28 41.499s-10 36.166 -10 59.499v306h-89v58h89v150h64v-150h224v150h64v-150h122v-58h-122v-295c0 -28.667 7 -50 21 -64c13.333 -14.667 29.333 -22 48 -22c10 0 18.5 0.833008 25.5 2.5s14.833 4.5 23.5 8.5l20 -55
c-11.333 -5.33301 -22.833 -9.16602 -34.5 -11.499s-25.5 -3.5 -41.5 -3.5c-34.667 0 -64 11 -88 33c-12 11.333 -21.333 25.166 -28 41.499s-10 36.166 -10 59.499v306h-224v-295z" />
    <glyph glyph-name=".notdef" horiz-adv-x="566" 
d="M77 716h412v-716h-412v716zM127 47h312v622h-312v-622z" />
    <glyph glyph-name="NULL" horiz-adv-x="0" 
d="M0 0z" />
    <glyph glyph-name="NULL" horiz-adv-x="0" 
d="M0 0z" />
    <glyph glyph-name="uni000D" unicode="&#xd;" horiz-adv-x="0" 
d="M0 0z" />
    <glyph glyph-name="space" unicode=" " horiz-adv-x="235" 
d="M0 0z" />
    <glyph glyph-name="exclam" unicode="!" horiz-adv-x="205" 
d="M103 -6c-14.667 0 -27 5 -37 15s-15 22.333 -15 37s5 26.834 15 36.501s22.333 14.5 37 14.5s26.834 -4.83301 36.501 -14.5s14.5 -21.834 14.5 -36.501s-4.83301 -27 -14.5 -37s-21.834 -15 -36.501 -15zM71 425v291h64v-291l-9 -243h-46z" />
    <glyph glyph-name="quotedbl" unicode="&#x22;" horiz-adv-x="281" 
d="M176 510v206h58v-206h-58zM47 510v206h58v-206h-58z" />
    <glyph glyph-name="numbersign" unicode="#" horiz-adv-x="615" 
d="M119 0l32 213h-126l10 54h124l23 159h-124l9 54h123l31 204h58l-31 -204h158l31 204h58l-31 -204h126l-9 -54h-125l-23 -159h125l-9 -54h-124l-32 -213h-58l32 213h-158l-32 -213h-58zM217 267h158l23 159h-158z" />
    <glyph glyph-name="dollar" unicode="$" horiz-adv-x="525" 
d="M240 -15c-22 2 -44.166 7.5 -66.499 16.5s-43.166 21 -62.499 36s-36.5 33.167 -51.5 54.5s-26.167 45.666 -33.5 72.999l57 24c11.333 -38.667 31.166 -70.834 59.499 -96.501s60.833 -41.167 97.5 -46.5v281c-28 11.333 -53.5 23.333 -76.5 36s-42.667 26.667 -59 42
s-28.833 32.833 -37.5 52.5s-13 42.167 -13 67.5c0 22 4.33301 43.167 13 63.5s21 38.333 37 54s35.5 28.5 58.5 38.5s48.833 16 77.5 18v85h54v-86c26 -3.33301 48.667 -9.66602 68 -18.999s36 -20.333 50 -33s25.5 -26.334 34.5 -41.001s15.833 -28.334 20.5 -41.001
l-58 -24c-7.33301 20.667 -20.166 40.5 -38.499 59.5s-43.833 31.167 -76.5 36.5v-264c25.333 -10.667 49.5 -22.167 72.5 -34.5s43.167 -26.166 60.5 -41.499s31 -33 41 -53s15 -43 15 -69c0 -29.333 -5.16699 -55.166 -15.5 -77.499s-24.333 -41.166 -42 -56.499
s-37.834 -27.5 -60.501 -36.5s-46.334 -14.833 -71.001 -17.5v-86h-54v85zM419.001 171c0 16 -2.99805 30.333 -8.99805 43s-14.333 24.167 -25 34.5s-23.834 20 -39.501 29s-32.834 17.833 -51.501 26.5v-257c36.667 4.66699 66.667 17.5 90 38.5s35 49.5 35 85.5z
M118.003 526c0 -32 10.667 -57.832 32 -77.499s51.333 -37.834 90 -54.501v244c-36 -3.33301 -65.333 -14.833 -88 -34.5s-34 -45.5 -34 -77.5z" />
    <glyph glyph-name="percent" unicode="%" horiz-adv-x="810" 
d="M161 25l445 662l43 -28l-445 -663zM201 358c-24 0 -46.167 4.66699 -66.5 14s-38 21.666 -53 36.999s-26.667 33.333 -35 54s-12.5 42.667 -12.5 66c0 22.667 4.16699 44.5 12.5 65.5s20 39.167 35 54.5s32.667 27.666 53 36.999s42.5 14 66.5 14
s46.167 -4.66699 66.5 -14s38 -21.666 53 -36.999s26.667 -33.5 35 -54.5s12.5 -42.833 12.5 -65.5c0 -23.333 -4.16699 -45.333 -12.5 -66s-20 -38.667 -35 -54s-32.667 -27.666 -53 -36.999s-42.5 -14 -66.5 -14zM201 407c16 0 31 3 45 9s26.167 14.5 36.5 25.5
s18.333 24 24 39s8.5 31.167 8.5 48.5c0 18 -2.83301 34.5 -8.5 49.5s-13.667 28 -24 39s-22.5 19.5 -36.5 25.5s-29 9 -45 9s-31 -3 -45 -9s-26 -14.5 -36 -25.5s-18 -24 -24 -39s-9 -31.5 -9 -49.5c0 -17.333 3 -33.5 9 -48.5s14 -28 24 -39s22 -19.5 36 -25.5
s29 -9 45 -9zM609 -16c-24 0 -46.167 4.66699 -66.5 14s-38 21.666 -53 36.999s-26.667 33.333 -35 54s-12.5 42.667 -12.5 66c0 22.667 4.16699 44.5 12.5 65.5s20 39.167 35 54.5s32.667 27.666 53 36.999s42.5 14 66.5 14s46.167 -4.66699 66.5 -14
s38 -21.666 53 -36.999s26.667 -33.5 35 -54.5s12.5 -42.833 12.5 -65.5c0 -23.333 -4.16699 -45.333 -12.5 -66s-20 -38.667 -35 -54s-32.667 -27.666 -53 -36.999s-42.5 -14 -66.5 -14zM609 33c16 0 31 3 45 9s26.167 14.5 36.5 25.5s18.333 24 24 39s8.5 31.167 8.5 48.5
c0 18 -2.83301 34.5 -8.5 49.5s-13.667 28 -24 39s-22.5 19.5 -36.5 25.5s-29 9 -45 9s-31 -3 -45 -9s-26 -14.5 -36 -25.5s-18 -24 -24 -39s-9 -31.5 -9 -49.5c0 -17.333 3 -33.5 9 -48.5s14 -28 24 -39s22 -19.5 36 -25.5s29 -9 45 -9z" />
    <glyph glyph-name="ampersand" unicode="&#x26;" horiz-adv-x="604" 
d="M495 113l70.998 -91.998l-49 -37l-57 75c-22.667 -25.333 -47.667 -44.166 -75 -56.499s-59 -18.5 -95 -18.5s-69.333 6.5 -100 19.5s-57.167 30.5 -79.5 52.5s-39.833 48 -52.5 78s-19 62 -19 96c0 44 12 84.667 36 122s55 67.666 93 90.999l-6 8
c-13.333 17.333 -25 36.333 -35 57s-15 42.667 -15 66c0 22 4.16699 42.5 12.5 61.5s19.833 35.667 34.5 50s31.834 25.666 51.501 33.999s41.167 12.5 64.5 12.5c20.667 0 39.5 -3.33301 56.5 -10s31.833 -15.5 44.5 -26.5s23.334 -24 32.001 -39s15.667 -30.5 21 -46.5
l-55 -29c-3.33301 10.667 -7.83301 21.5 -13.5 32.5s-12.5 20.667 -20.5 29s-17.333 15.166 -28 20.499s-23 8 -37 8c-30 0 -54 -9 -72 -27s-27 -41 -27 -69c0 -15.333 2.83301 -30.333 8.5 -45s13.167 -27.667 22.5 -39l250 -327l74 130l51 -31zM290.998 43.002
c28 0 52.834 5.5 74.501 16.5s40.834 26.833 57.501 47.5l-220 289c-30 -16.667 -54.833 -39.334 -74.5 -68.001s-29.5 -60 -29.5 -94c0 -27.333 4.83301 -52.666 14.5 -75.999s23.167 -43.5 40.5 -60.5s37.666 -30.333 60.999 -40s48.666 -14.5 75.999 -14.5z" />
    <glyph glyph-name="quotesingle" unicode="'" horiz-adv-x="152" 
d="M47 510v206h58v-206h-58z" />
    <glyph glyph-name="parenleft" unicode="(" horiz-adv-x="315" 
d="M246 -136c-20 22.667 -40.5 50.001 -61.5 82.001s-40.167 67.5 -57.5 106.5s-31.5 81.167 -42.5 126.5s-16.5 93 -16.5 143c0 50.667 5.5 98.667 16.5 144s25.167 87.5 42.5 126.5s36.5 74.167 57.5 105.5s41.5 58.666 61.5 81.999l48 -34
c-21.333 -25.333 -41.833 -53.5 -61.5 -84.5s-37 -64.5 -52 -100.5s-27 -74 -36 -114s-13.5 -81.667 -13.5 -125s4.5 -85 13.5 -125s21 -78 36 -114s32.333 -69.667 52 -101s40.167 -59.333 61.5 -84z" />
    <glyph glyph-name="parenright" unicode=")" horiz-adv-x="315" 
d="M21 -102c21.333 24.667 41.833 52.666 61.5 83.999s37 65 52 101s27 74 36 114s13.5 81.667 13.5 125s-4.5 85 -13.5 125s-21 78 -36 114s-32.333 69.5 -52 100.5s-40.167 59.167 -61.5 84.5l48 34c20 -23.333 40.5 -50.666 61.5 -81.999s40.167 -66.5 57.5 -105.5
s31.5 -81.167 42.5 -126.5s16.5 -93.333 16.5 -144c0 -50 -5.5 -97.667 -16.5 -143s-25.167 -87.5 -42.5 -126.5s-36.5 -74.5 -57.5 -106.5s-41.5 -59.333 -61.5 -82z" />
    <glyph glyph-name="asterisk" unicode="*" horiz-adv-x="413" 
d="M61 633l110 -39l8 4v118h56v-118l7 -4l111 39l18 -53l-113 -39l-2 -9l75 -102l-46 -33l-74 102h-9l-73 -102l-46 33l75 102l-3 9l-112 39z" />
    <glyph glyph-name="plus" unicode="+" horiz-adv-x="544" 
d="M299 298h186v-54h-186v-185h-54v185h-185v54h185v186h54v-186z" />
    <glyph glyph-name="comma" unicode="," horiz-adv-x="217" 
d="M47 -82l50.999 81.001c-8.66699 2.66699 -16.667 8 -24 16s-11 18.333 -11 31c0 14.667 4.83301 26.834 14.5 36.501s21.834 14.5 36.501 14.5s27 -4.83301 37 -14.5s15 -21.834 15 -36.501c0 -9.33301 -2 -17.833 -6 -25.5s-8.66699 -15.834 -14 -24.501l-66 -99z" />
    <glyph glyph-name="hyphen" unicode="-" horiz-adv-x="429" 
d="M60 337h310v-54h-310v54z" />
    <glyph glyph-name="period" unicode="." horiz-adv-x="205" 
d="M103 -6c-14.667 0 -27 5 -37 15s-15 22.333 -15 37s5 26.834 15 36.501s22.333 14.5 37 14.5s26.834 -4.83301 36.501 -14.5s14.5 -21.834 14.5 -36.501s-4.83301 -27 -14.5 -37s-21.834 -15 -36.501 -15z" />
    <glyph glyph-name="slash" unicode="/" horiz-adv-x="415" 
d="M29 0l297 716h61l-297 -716h-61z" />
    <glyph glyph-name="zero" unicode="0" horiz-adv-x="630" 
d="M315 -16c-41.333 0 -78.5 9.33301 -111.5 28s-61.167 44 -84.5 76s-41.166 69.833 -53.499 113.5s-18.5 90.5 -18.5 140.5s6.16699 96.833 18.5 140.5s30.166 81.667 53.499 114s51.5 57.666 84.5 75.999s70.167 27.5 111.5 27.5s78.5 -9.16699 111.5 -27.5
s61.167 -43.666 84.5 -75.999s41.166 -70.333 53.499 -114s18.5 -90.5 18.5 -140.5s-6.16699 -96.833 -18.5 -140.5s-30.166 -81.5 -53.499 -113.5s-51.5 -57.333 -84.5 -76s-70.167 -28 -111.5 -28zM315 45c31.333 0 59.5 7.66699 84.5 23s46.333 36.333 64 63
s31.167 58 40.5 94s14 75 14 117s-4.66699 81.167 -14 117.5s-22.833 67.666 -40.5 93.999s-39 47.166 -64 62.499s-53.167 23 -84.5 23s-59.5 -7.66699 -84.5 -23s-46.333 -36.166 -64 -62.499s-31.167 -57.666 -40.5 -93.999s-14 -75.5 -14 -117.5s4.66699 -81 14 -117
s22.833 -67.333 40.5 -94s39 -47.667 64 -63s53.167 -23 84.5 -23z" />
    <glyph glyph-name="one" unicode="1" horiz-adv-x="351" 
d="M198 0v605l-130 -62l-25 53l178 88h41v-684h-64z" />
    <glyph glyph-name="two" unicode="2" horiz-adv-x="512" 
d="M43 0l-0.000976562 64.9961l101 101l42 42.5l41 42.5l38 39c11.333 12 21 22.667 29 32c18 19.333 33.167 36.5 45.5 51.5s22.333 29.333 30 43s13.334 27.5 17.001 41.5s5.5 29.667 5.5 47c0 16 -3 32 -9 48s-15 30.333 -27 43s-27 23 -45 31s-39.333 12 -64 12
c-22 0 -41.333 -3.66699 -58 -11s-30.667 -16.666 -42 -27.999s-20.5 -23.5 -27.5 -36.5s-11.833 -25.167 -14.5 -36.5l-59 24c4 14 11 29.667 21 47s23.167 33.5 39.5 48.5s36.333 27.667 60 38s51.5 15.5 83.5 15.5s60.833 -5.33301 86.5 -16s47.334 -25 65.001 -43
s31.334 -38.667 41.001 -62s14.5 -47.666 14.5 -72.999c0 -23.333 -3.16699 -45.166 -9.5 -65.499s-14.833 -39.666 -25.5 -57.999s-22.834 -35.833 -36.501 -52.5s-27.834 -32.667 -42.501 -48l-23 -23l-31 -32l-36 -36l-37 -38l-91 -92h340v-61h-422z" />
    <glyph glyph-name="three" unicode="3" horiz-adv-x="520" 
d="M254 -16c-20.667 0 -41.998 3.16602 -63.998 9.49902s-42.833 16.333 -62.5 30s-37.334 31.334 -53.001 53.001s-27.5 47.5 -35.5 77.5l58 24c11.333 -42 31 -74.667 59 -98s60.667 -35 98 -35c22.667 0 43.667 3.66699 63 11s36.166 17.5 50.499 30.5
s25.5 28.5 33.5 46.5s12 37.667 12 59c0 20 -4.16699 38.5 -12.5 55.5s-19.666 31.833 -33.999 44.5s-31.166 22.5 -50.499 29.5s-40.333 10.5 -63 10.5h-58v60h57c38.667 0 71.167 11 97.5 33s39.5 52.667 39.5 92c0 17.333 -3.5 33.5 -10.5 48.5s-16.667 28 -29 39
s-26.833 19.5 -43.5 25.5s-34.667 9 -54 9c-20.667 0 -38.834 -3.16699 -54.501 -9.5s-29.167 -14.5 -40.5 -24.5s-20.5 -21.333 -27.5 -34s-12.5 -25 -16.5 -37l-58 25c4.66699 15.333 12.167 31.333 22.5 48s23.666 31.834 39.999 45.501s35.666 25 57.999 34
s47.833 13.5 76.5 13.5c29.333 0 56.333 -4.66699 81 -14s46 -22 64 -38s32 -35.167 42 -57.5s15 -46.5 15 -72.5c0 -20 -2.83301 -38.167 -8.5 -54.5s-13.167 -30.666 -22.5 -42.999s-20 -23 -32 -32s-24.333 -16.5 -37 -22.5v-4c34 -12.667 63.167 -33.334 87.5 -62.001
s36.5 -64.334 36.5 -107.001c0 -30.667 -5.83301 -58.834 -17.5 -84.501s-27.667 -47.667 -48 -66s-44.166 -32.666 -71.499 -42.999s-56.333 -15.5 -87 -15.5z" />
    <glyph glyph-name="four" unicode="4" horiz-adv-x="579" 
d="M380 0v157h-337v44l329 483h72v-467h88v-60h-88v-157h-64zM380 590h-4l-255 -373h259v373z" />
    <glyph glyph-name="five" unicode="5" horiz-adv-x="550" 
d="M267 -16c-24 0 -47.6709 3.66992 -71.0039 11.0029s-45 18.666 -65 33.999s-37.667 34.5 -53 57.5s-27 50.167 -35 81.5l57 23c12 -46.667 32.333 -82.667 61 -108s63.334 -38 104.001 -38c25.333 0 48.5 4 69.5 12s39 19.5 54 34.5s26.5 32.667 34.5 53
s12 43.166 12 68.499c0 24.667 -4 47.167 -12 67.5s-19.167 38 -33.5 53s-31.666 26.667 -51.999 35s-42.833 12.5 -67.5 12.5c-26 0 -50.833 -5.83301 -74.5 -17.5s-43.167 -28.167 -58.5 -49.5l-69 30l44 340h342v-61h-288l-33 -238l4 -1c16.667 16.667 37 30.167 61 40.5
s51.667 15.5 83 15.5c30 0 58.167 -5.66699 84.5 -17s49.333 -27 69 -47s35.334 -43.833 47.001 -71.5s17.5 -57.834 17.5 -90.501c0 -32 -5.66699 -62 -17 -90s-27.166 -52.333 -47.499 -73s-44.833 -37 -73.5 -49s-60 -18 -94 -18z" />
    <glyph glyph-name="six" unicode="6" horiz-adv-x="548" 
d="M289 434c27.333 0 54.001 -5.50195 80.001 -16.502s49.167 -26.333 69.5 -46s36.666 -43.167 48.999 -70.5s18.5 -57 18.5 -89c0 -30 -6 -58.833 -18 -86.5s-28.333 -52 -49 -73s-45.167 -37.667 -73.5 -50s-58.5 -18.5 -90.5 -18.5c-36 0 -68.333 6.5 -97 19.5
s-53 30.333 -73 52s-35.333 46.167 -46 73.5s-16 55.333 -16 84c0 40.667 8.66699 78.334 26 113.001s37.666 69.334 60.999 104.001l180 270l52 -36l-182 -259l2 -2c13.333 9.33301 29.333 16.833 48 22.5s38.334 8.5 59.001 8.5zM275.001 44.998
c22.667 0 44.168 4.16699 64.501 12.5s38 20 53 35s26.833 32.667 35.5 53s13 42.166 13 65.499s-4.33301 45 -13 65s-20.5 37.5 -35.5 52.5s-32.667 26.667 -53 35s-41.833 12.5 -64.5 12.5c-23.333 0 -45 -4.16699 -65 -12.5s-37.667 -20 -53 -35s-27.333 -32.5 -36 -52.5
s-13 -41.667 -13 -65s4.33301 -45.166 13 -65.499s20.5 -38 35.5 -53s32.667 -26.667 53 -35s42.166 -12.5 65.499 -12.5z" />
    <glyph glyph-name="seven" unicode="7" horiz-adv-x="516" 
d="M85 13l323 610h-365l2 61h429v-66l-332 -634z" />
    <glyph glyph-name="eight" unicode="8" horiz-adv-x="541" 
d="M162 363c-27.333 15.333 -50.001 36.166 -68.001 62.499s-27 55.5 -27 87.5c0 26.667 5 51.334 15 74.001s24 42.334 42 59.001s39.5 29.834 64.5 39.501s52.5 14.5 82.5 14.5c29.333 0 56.5 -4.83301 81.5 -14.5s46.5 -22.834 64.5 -39.501s32.167 -36.334 42.5 -59.001
s15.5 -47.334 15.5 -74.001c0 -32 -9.16699 -61.167 -27.5 -87.5s-40.833 -47.166 -67.5 -62.499v-4c34 -16 62.333 -38.333 85 -67s34 -64 34 -106c0 -28 -5.66699 -54.333 -17 -79s-27.166 -46.167 -47.499 -64.5s-44.5 -32.666 -72.5 -42.999s-58.333 -15.5 -91 -15.5
c-33.333 0 -64 5.16699 -92 15.5s-52 24.666 -72 42.999s-35.667 39.833 -47 64.5s-17 51 -17 79c0 42 11.167 77.333 33.5 106s50.833 51 85.5 67v4zM107.999 189c0 -21.333 4.33203 -40.833 12.999 -58.5s20.334 -32.834 35.001 -45.501s32 -22.5 52 -29.5
s41 -10.5 63 -10.5s42.833 3.5 62.5 10.5s37 16.833 52 29.5s26.833 27.834 35.5 45.501s13 37.167 13 58.5s-4.16699 40.666 -12.5 57.999s-19.833 32.333 -34.5 45s-32 22.334 -52 29.001s-41.333 10 -64 10s-44 -3.33301 -64 -10s-37.333 -16.334 -52 -29.001
s-26.167 -27.667 -34.5 -45s-12.5 -36.666 -12.5 -57.999zM131.998 516c0 -39.333 13.0029 -70.333 39.0029 -93s59.333 -34 100 -34c40 0 73.167 11.333 99.5 34s39.5 53.667 39.5 93c0 19.333 -3.83301 36.666 -11.5 51.999s-17.834 28.166 -30.501 38.499
s-27.334 18.333 -44.001 24s-34.334 8.5 -53.001 8.5s-36.5 -2.83301 -53.5 -8.5s-31.833 -13.667 -44.5 -24s-22.667 -23.166 -30 -38.499s-11 -32.666 -11 -51.999z" />
    <glyph glyph-name="nine" unicode="9" horiz-adv-x="548" 
d="M260 250c-27.333 0 -54.0029 5.5 -80.0029 16.5s-49.167 26.333 -69.5 46s-36.666 43.167 -48.999 70.5s-18.5 57 -18.5 89c0 30 6 58.833 18 86.5s28.333 52 49 73s45.167 37.667 73.5 50s58.5 18.5 90.5 18.5c36 0 68.333 -6.66699 97 -20s53 -30.666 73 -51.999
s35.333 -45.666 46 -72.999s16 -55.333 16 -84c0 -40.667 -8.66699 -78.334 -26 -113.001s-37.666 -69.334 -60.999 -104.001l-181 -270l-51 36l181 259l-2 2c-13.333 -9.33301 -29.166 -16.833 -47.499 -22.5s-37.833 -8.5 -58.5 -8.5zM273.997 639
c-23.333 0 -45.001 -4.16699 -65.001 -12.5s-37.667 -20 -53 -35s-27.333 -32.667 -36 -53s-13 -42.166 -13 -65.499s4.5 -45 13.5 -65s21 -37.5 36 -52.5s32.667 -26.667 53 -35s41.833 -12.5 64.5 -12.5s44.167 4.16699 64.5 12.5s38 20 53 35s27 32.5 36 52.5
s13.5 41.667 13.5 65s-4.33301 45.166 -13 65.499s-20.5 38 -35.5 53s-32.667 26.667 -53 35s-42.166 12.5 -65.499 12.5z" />
    <glyph glyph-name="colon" unicode=":" horiz-adv-x="205" 
d="M103 -6c-14.667 0 -27 5 -37 15s-15 22.333 -15 37s5 26.834 15 36.501s22.333 14.5 37 14.5s26.834 -4.83301 36.501 -14.5s14.5 -21.834 14.5 -36.501s-4.83301 -27 -14.5 -37s-21.834 -15 -36.501 -15zM103 393c-14.667 0 -27 5 -37 15s-15 22.333 -15 37
s5 26.834 15 36.501s22.333 14.5 37 14.5s26.834 -4.83301 36.501 -14.5s14.5 -21.834 14.5 -36.501s-4.83301 -27 -14.5 -37s-21.834 -15 -36.501 -15z" />
    <glyph glyph-name="semicolon" unicode=";" horiz-adv-x="203" 
d="M101 393c-14.667 0 -27 5 -37 15s-15 22.333 -15 37s5 26.834 15 36.501s22.333 14.5 37 14.5s26.834 -4.83301 36.501 -14.5s14.5 -21.834 14.5 -36.501s-4.83301 -27 -14.5 -37s-21.834 -15 -36.501 -15zM34 -72l50.998 80.999
c-9.33301 2 -17.666 7.16699 -24.999 15.5s-11 18.5 -11 30.5c0 14.667 5 27 15 37s22.333 15 37 15s26.834 -5 36.501 -15s14.5 -22.333 14.5 -37c0 -9.33301 -1.83301 -17.666 -5.5 -24.999s-8.16699 -15.333 -13.5 -24l-66 -100z" />
    <glyph glyph-name="less" unicode="&#x3c;" horiz-adv-x="490" 
d="M60 247v48l366 180v-61l-294 -141v-4l294 -141v-61z" />
    <glyph glyph-name="equal" unicode="=" horiz-adv-x="556" 
d="M60 441h437v-54h-437v54zM60 251h437v-54h-437v54z" />
    <glyph glyph-name="greater" unicode="&#x3e;" horiz-adv-x="490" 
d="M64 67v61l294 141v4l-294 141v61l366 -180v-48z" />
    <glyph glyph-name="question" unicode="?" horiz-adv-x="485" 
d="M202 233c0 22 1.66797 41.167 5.00098 57.5s8.5 31.166 15.5 44.499s16.167 26.166 27.5 38.499s25.333 26.166 42 41.499c24.667 22.667 43.667 43.667 57 63s20 42.666 20 69.999c0 36 -11.833 65.5 -35.5 88.5s-56.167 34.5 -97.5 34.5c-20 0 -37.5 -3 -52.5 -9
s-28 -14 -39 -24s-20.333 -21.5 -28 -34.5s-13.834 -26.5 -18.501 -40.5l-59 25c5.33301 16 13.166 32.5 23.499 49.5s23.5 32.5 39.5 46.5s35 25.5 57 34.5s47.333 13.5 76 13.5c30.667 0 58.334 -4.83301 83.001 -14.5s45.667 -22.667 63 -39s30.5 -35.666 39.5 -57.999
s13.5 -46.166 13.5 -71.499c0 -21.333 -3 -40.5 -9 -57.5s-13.667 -32.333 -23 -46s-19.666 -26 -30.999 -37l-33 -31.5c-12.667 -11.333 -23.5 -22.166 -32.5 -32.499s-16.333 -21 -22 -32s-9.83398 -23.167 -12.501 -36.5s-4 -28.666 -4 -45.999v-48h-65v51zM234.001 -6
c-14.667 0 -26.834 5 -36.501 15s-14.5 22.333 -14.5 37s4.83301 26.834 14.5 36.501s21.834 14.5 36.501 14.5s27 -4.83301 37 -14.5s15 -21.834 15 -36.501s-5 -27 -15 -37s-22.333 -15 -37 -15z" />
    <glyph glyph-name="at" unicode="@" horiz-adv-x="869" 
d="M436 690c54.667 0 105.498 -10.001 152.498 -30.001s87.833 -47.5 122.5 -82.5s61.834 -76 81.501 -123s29.5 -97.167 29.5 -150.5c0 -30 -3.16699 -57.667 -9.5 -83s-15.5 -47.166 -27.5 -65.499s-26.833 -32.833 -44.5 -43.5s-37.834 -16 -60.501 -16
c-28 0 -51.667 8.33301 -71 25s-32.666 36.667 -39.999 60c-16 -26.667 -36.667 -47.5 -62 -62.5s-54.333 -22.5 -87 -22.5c-26.667 0 -51.5 5 -74.5 15s-43 24 -60 42s-30.5 39.5 -40.5 64.5s-15 52.5 -15 82.5s5 57.5 15 82.5s23.5 46.5 40.5 64.5s37 32 60 42
s47.167 15 72.5 15c30 0 57 -6.83301 81 -20.5s43 -30.834 57 -51.501h4v58h53v-261c0 -23.333 5.83301 -43.333 17.5 -60s29.167 -25 52.5 -25c15.333 0 28.5 4.5 39.5 13.5s20 21 27 36s12 32 15 51s4.5 38.833 4.5 59.5c0 46 -8.66699 89.333 -26 130s-41 76 -71 106
s-65.167 53.667 -105.5 71s-83.833 26 -130.5 26c-46 0 -89.167 -8.66699 -129.5 -26s-75.666 -41 -105.999 -71s-54.166 -65.167 -71.499 -105.5s-26 -83.833 -26 -130.5c0 -46 8.66699 -89.333 26 -130s41.166 -76 71.499 -106s65.666 -53.667 105.999 -71
s83.5 -26 129.5 -26c24 0 46.667 2.33301 68 7s41.666 12.334 60.999 23.001l21 -51c-23.333 -10.667 -47.166 -18.667 -71.499 -24s-50.5 -8 -78.5 -8c-55.333 0 -106.666 10.167 -153.999 30.5s-88.5 48 -123.5 83s-62.333 75.833 -82 122.5s-29.5 96.667 -29.5 150
c0 52.667 10 102.5 30 149.5s47.5 88 82.5 123s76.167 62.667 123.5 83s98.333 30.5 153 30.5zM423.998 149.999c18.667 0 36.335 3.49902 53.002 10.499s31.167 17 43.5 30s22.166 28.667 29.499 47s11 39.166 11 62.499s-3.66699 44.333 -11 63s-17.333 34.5 -30 47.5
s-27.334 22.833 -44.001 29.5s-34 10 -52 10s-35.333 -3.5 -52 -10.5s-31.167 -17 -43.5 -30s-22.333 -28.667 -30 -47s-11.5 -39.166 -11.5 -62.499s3.66699 -44.166 11 -62.499s17.166 -34 29.499 -47s26.833 -23 43.5 -30s34.334 -10.5 53.001 -10.5z" />
    <glyph glyph-name="A" unicode="A" horiz-adv-x="653" 
d="M290 716h74l277 -716h-70l-78 207h-332l-78 -207h-70zM470 267l-141 371h-4l-141 -371h286z" />
    <glyph glyph-name="B" unicode="B" horiz-adv-x="587" 
d="M77 716l253 0.00195312c26.667 0 52 -4.66699 76 -14s45.167 -22.333 63.5 -39s32.833 -36.5 43.5 -59.5s16 -48.167 16 -75.5c0 -36 -9.33301 -67.333 -28 -94s-43.334 -47.334 -74.001 -62.001v-4c36.667 -11.333 66.834 -32.166 90.501 -62.499
s35.5 -65.5 35.5 -105.5c0 -29.333 -5.66699 -56.333 -17 -81s-26.5 -45.834 -45.5 -63.501s-41.333 -31.334 -67 -41.001s-52.5 -14.5 -80.5 -14.5h-266v716zM329 396.002c20.667 0 39.333 3.66602 56 10.999s31 17 43 29s21.167 25.833 27.5 41.5s9.5 31.834 9.5 48.501
s-3.16699 32.667 -9.5 48s-15.333 29 -27 41s-25.5 21.667 -41.5 29s-34 11 -54 11h-192v-259h188zM349.999 61.001c19.333 0 37.332 3.66504 53.999 10.998s31.334 17.333 44.001 30s22.5 27.334 29.5 44.001s10.5 34.334 10.5 53.001s-3.66699 36.167 -11 52.5
s-17.333 30.833 -30 43.5s-27.667 22.667 -45 30s-36 11 -56 11h-205v-275h209z" />
    <glyph glyph-name="C" unicode="C" horiz-adv-x="725" 
d="M686 114c-32 -38.667 -71.168 -70.0049 -117.501 -94.0049s-100.166 -36 -161.499 -36c-52.667 0 -101.334 9.66699 -146.001 29s-83.334 45.833 -116.001 79.5s-58.334 73.334 -77.001 119.001s-28 94.5 -28 146.5s9.33301 100.833 28 146.5
s44.334 85.334 77.001 119.001s71.334 60.167 116.001 79.5s93.334 29 146.001 29c55.333 0 104.333 -10.167 147 -30.5s80 -49.166 112 -86.499l-46 -44c-54.667 66.667 -125.667 100 -213 100c-41.333 0 -80.333 -7.66699 -117 -23s-68.667 -36.666 -96 -63.999
s-49 -60.166 -65 -98.499s-24 -80.833 -24 -127.5s8 -89.167 24 -127.5s37.667 -71.333 65 -99s59.333 -49 96 -64s75.667 -22.5 117 -22.5c50 0 94 10 132 30s71.667 47.667 101 83z" />
    <glyph glyph-name="D" unicode="D" horiz-adv-x="685" 
d="M77 716h208c56 0 106.333 -8.83301 151 -26.5s82.5 -42.167 113.5 -73.5s54.667 -69 71 -113s24.5 -92.333 24.5 -145s-8.16699 -101 -24.5 -145s-40 -81.667 -71 -113s-68.833 -55.833 -113.5 -73.5s-95 -26.5 -151 -26.5h-208v716zM285 61
c44.667 0 85.167 6.66895 121.5 20.002s67.333 32.666 93 57.999s45.5 56.333 59.5 93s21 78.667 21 126c0 46.667 -7 88.5 -21 125.5s-33.833 68.167 -59.5 93.5s-56.667 44.666 -93 57.999s-76.833 20 -121.5 20h-144v-594h144z" />
    <glyph glyph-name="E" unicode="E" horiz-adv-x="537" 
d="M141 655v-267h308v-60h-308v-267h340v-61h-404v716h404v-61h-340z" />
    <glyph glyph-name="F" unicode="F" horiz-adv-x="515" 
d="M77 716h404v-61h-340v-275h308v-60h-308v-320h-64v716z" />
    <glyph glyph-name="G" unicode="G" horiz-adv-x="798" 
d="M415 375l337.001 -0.00292969c1.33301 -8 2.33301 -15.833 3 -23.5s1 -15.5 1 -23.5c0 -42.667 -6.66699 -84.5 -20 -125.5s-35 -77.833 -65 -110.5c-32 -34 -69.833 -60.5 -113.5 -79.5s-93.167 -28.5 -148.5 -28.5c-51.333 0 -99.333 9.5 -144 28.5
s-83.667 45.333 -117 79s-59.666 73.167 -78.999 118.5s-29 94.666 -29 147.999c0 52.667 9.66699 101.834 29 147.501s45.666 85.334 78.999 119.001s72.333 60 117 79s92.667 28.5 144 28.5c52.667 0 101.667 -9.16699 147 -27.5s83 -44.5 113 -78.5l-47 -47
c-24.667 30 -55.334 52.833 -92.001 68.5s-76.667 23.5 -120 23.5c-40 0 -78.5 -7.5 -115.5 -22.5s-69.5 -36.167 -97.5 -63.5s-50.333 -60.166 -67 -98.499s-25 -81.166 -25 -128.499s8.5 -90.166 25.5 -128.499s39.5 -71.166 67.5 -98.499s60.333 -48.5 97 -63.5
s75 -22.5 115 -22.5c52 0 95.833 8.66699 131.5 26s64.5 38.666 86.5 63.999s37.833 52.666 47.5 81.999s15.167 62 16.5 98h-277v60z" />
    <glyph glyph-name="H" unicode="H" horiz-adv-x="682" 
d="M77 716h64v-320h400v320h64v-716h-64v336h-400v-336h-64v716z" />
    <glyph glyph-name="I" unicode="I" horiz-adv-x="218" 
d="M77 716h64v-716h-64v716z" />
    <glyph glyph-name="J" unicode="J" horiz-adv-x="514" 
d="M240 -16c-50.667 0 -95.165 14.333 -133.498 43s-65.166 70 -80.499 124l58 24c15.333 -48.667 36.666 -82.5 63.999 -101.5s58 -28.5 92 -28.5c44 0 79.333 15 106 45s40 71 40 123v503h64v-497c0 -38 -5.33301 -71.5 -16 -100.5s-25.334 -53.5 -44.001 -73.5
s-40.834 -35.167 -66.501 -45.5s-53.5 -15.5 -83.5 -15.5z" />
    <glyph glyph-name="K" unicode="K" horiz-adv-x="595" 
d="M77 716h64v-399h4l344 399h81v-4l-262 -303l285 -405v-4h-77l-252 359l-123 -142v-217h-64v716z" />
    <glyph glyph-name="L" unicode="L" horiz-adv-x="491" 
d="M77 716h64v-655h324v-61h-388v716z" />
    <glyph glyph-name="M" unicode="M" horiz-adv-x="825" 
d="M77 716h63l271 -473h4l270 473h63v-716h-63v477l4 120h-4l-254 -445h-37l-254 445h-4l4 -120v-477h-63v716z" />
    <glyph glyph-name="N" unicode="N" horiz-adv-x="690" 
d="M77 716h83l389 -604h4l-4 138v466h64v-716h-66l-406 631h-4l4 -138v-493h-64v716z" />
    <glyph glyph-name="O" unicode="O" horiz-adv-x="809" 
d="M405 -16c-52.667 0 -101.334 9.83301 -146.001 29.5s-83.167 46.5 -115.5 80.5s-57.666 73.667 -75.999 119s-27.5 93.666 -27.5 144.999s9.16699 99.666 27.5 144.999s43.666 85 75.999 119s70.833 60.833 115.5 80.5s93.334 29.5 146.001 29.5
c52 0 100.333 -9.83301 145 -29.5s83.334 -46.5 116.001 -80.5s58.167 -73.667 76.5 -119s27.5 -93.666 27.5 -144.999s-9.16699 -99.666 -27.5 -144.999s-43.833 -85 -76.5 -119s-71.334 -60.833 -116.001 -80.5s-93 -29.5 -145 -29.5zM405 45
c40.667 0 79.334 7.66699 116.001 23s68.5 36.833 95.5 64.5s48.5 60.667 64.5 99s24 80.5 24 126.5s-8 88.167 -24 126.5s-37.5 71.333 -64.5 99s-58.833 49.167 -95.5 64.5s-75.334 23 -116.001 23c-41.333 0 -80.166 -7.66699 -116.499 -23
s-68.166 -36.833 -95.499 -64.5s-48.833 -60.667 -64.5 -99s-23.5 -80.5 -23.5 -126.5s7.83301 -88.167 23.5 -126.5s37.167 -71.333 64.5 -99s59.166 -49.167 95.499 -64.5s75.166 -23 116.499 -23z" />
    <glyph glyph-name="P" unicode="P" horiz-adv-x="557" 
d="M77 0v716h232c30.667 0 59.5 -5 86.5 -15s50.5 -24.167 70.5 -42.5s35.833 -40.333 47.5 -66s17.5 -54.167 17.5 -85.5s-5.83301 -59.833 -17.5 -85.5s-27.5 -47.667 -47.5 -66s-43.5 -32.5 -70.5 -42.5s-55.833 -15 -86.5 -15h-168v-298h-64zM312 359
c22 0 42.333 3.83301 61 11.5s34.834 18.167 48.501 31.5s24.5 29 32.5 47s12 37.333 12 58s-4 40.167 -12 58.5s-18.833 34 -32.5 47s-29.834 23.333 -48.501 31s-39 11.5 -61 11.5h-171v-296h171z" />
    <glyph glyph-name="Q" unicode="Q" horiz-adv-x="809" 
d="M588 33c-26.667 -15.333 -55.334 -27.332 -86.001 -35.999s-63 -13 -97 -13c-52.667 0 -101.334 9.83301 -146.001 29.5s-83.167 46.5 -115.5 80.5s-57.666 73.667 -75.999 119s-27.5 93.666 -27.5 144.999s9.16699 99.666 27.5 144.999s43.666 85 75.999 119
s70.833 60.833 115.5 80.5s93.334 29.5 146.001 29.5c52 0 100.333 -9.83301 145 -29.5s83.334 -46.5 116.001 -80.5s58.167 -73.667 76.5 -119s27.5 -93.666 27.5 -144.999c0 -59.333 -11.833 -114 -35.5 -164s-56.167 -92.333 -97.5 -127l47 -72l-49 -32zM405 45.001
c27.333 0 53.334 3.5 78.001 10.5s48 16.833 70 29.5l-95 142l50 34l93 -141c32 28 57.333 62.167 76 102.5s28 85.5 28 135.5c0 46 -8 88.167 -24 126.5s-37.5 71.333 -64.5 99s-58.833 49.167 -95.5 64.5s-75.334 23 -116.001 23c-41.333 0 -80.166 -7.66699 -116.499 -23
s-68.166 -36.833 -95.499 -64.5s-48.833 -60.667 -64.5 -99s-23.5 -80.5 -23.5 -126.5s7.83301 -88.167 23.5 -126.5s37.167 -71.333 64.5 -99s59.166 -49.167 95.499 -64.5s75.166 -23 116.499 -23z" />
    <glyph glyph-name="R" unicode="R" horiz-adv-x="569" 
d="M77 716l237 -0.00390625c30 0 58.167 -5.16699 84.5 -15.5s49.333 -24.666 69 -42.999s35.167 -40.333 46.5 -66s17 -53.834 17 -84.501c0 -25.333 -4.5 -49.166 -13.5 -71.499s-21.333 -42.166 -37 -59.499s-34.167 -32.166 -55.5 -44.499s-44.333 -21.166 -69 -26.499
l-2 -3l204 -298v-4h-73l-202 298h-142v-298h-64v716zM305 357.996c21.333 0 41.668 3.66699 61.001 11s36.5 17.5 51.5 30.5s26.833 28.667 35.5 47s13 38.5 13 60.5c0 20.667 -4 40.167 -12 58.5s-18.833 34 -32.5 47s-29.834 23.333 -48.501 31s-39 11.5 -61 11.5h-171
v-297h164z" />
    <glyph glyph-name="S" unicode="S" horiz-adv-x="542" 
d="M270 -16c-26 0 -51.666 4.16504 -76.999 12.498s-49 20.666 -71 36.999s-41.5 36.5 -58.5 60.5s-29.5 51.667 -37.5 83l60 25c6 -22.667 14.833 -43.667 26.5 -63s25.5 -36 41.5 -50s34 -24.833 54 -32.5s41.333 -11.5 64 -11.5c22 0 43 3.16699 63 9.5
s37.5 15.666 52.5 27.999s26.833 27.333 35.5 45s13 37.5 13 59.5c0 38 -14 68.833 -42 92.5s-68.667 44.834 -122 63.501l-45 16c-21.333 7.33301 -42.333 16.166 -63 26.499s-39.167 22.833 -55.5 37.5s-29.5 32.167 -39.5 52.5s-15 44.166 -15 71.499
c0 24.667 5.16699 48.334 15.5 71.001s24.833 42.334 43.5 59.001s41 30 67 40s54.333 15 85 15c32.667 0 61.334 -4.83301 86.001 -14.5s45.834 -21.667 63.501 -36s31.667 -29.833 42 -46.5s17.833 -32 22.5 -46l-60 -25c-3.33301 12 -8.83301 24.167 -16.5 36.5
s-17.834 23.833 -30.501 34.5s-27.667 19.334 -45 26.001s-37.666 10 -60.999 10c-20 0 -38.833 -3 -56.5 -9s-33.334 -14.5 -47.001 -25.5s-24.334 -24.167 -32.001 -39.5s-11.5 -32 -11.5 -50c0 -17.333 3.5 -32.5 10.5 -45.5s16.833 -24.667 29.5 -35
s27.667 -19.666 45 -27.999s36.333 -16.166 57 -23.499l46 -17c26.667 -9.33301 51.834 -20 75.501 -32s44.167 -26.167 61.5 -42.5s31.166 -35.5 41.499 -57.5s15.5 -47.333 15.5 -76c0 -36 -7 -67 -21 -93s-32 -47.333 -54 -64s-46.833 -29 -74.5 -37
s-54.834 -12 -81.501 -12z" />
    <glyph glyph-name="T" unicode="T" horiz-adv-x="521" 
d="M229 0v655h-203v61h470v-61h-203v-655h-64z" />
    <glyph glyph-name="U" unicode="U" horiz-adv-x="635" 
d="M318 -16c-38.667 0 -73.833 6.66699 -105.5 20s-58.834 32.333 -81.501 57s-40.167 54 -52.5 88s-18.5 71.667 -18.5 113v454h64v-458c0 -30 4.33301 -58 13 -84s21.167 -48.5 37.5 -67.5s36.5 -34 60.5 -45s51.667 -16.5 83 -16.5c30.667 0 58 5.5 82 16.5
s44.333 26 61 45s29.334 41.5 38.001 67.5s13 54 13 84v458h64v-454c0 -41.333 -5.83301 -79 -17.5 -113s-28.667 -63.333 -51 -88s-49.5 -43.667 -81.5 -57s-68 -20 -108 -20z" />
    <glyph glyph-name="V" unicode="V" horiz-adv-x="613" 
d="M13 716h71l217 -616h4l225 616h71l-268 -716h-62z" />
    <glyph glyph-name="W" unicode="W" horiz-adv-x="908" 
d="M694 0h-67l-167 520h-4l-167 -520h-67l-205 716h67l171 -609h4l167 513h64l167 -513h4l163 609h67z" />
    <glyph glyph-name="X" unicode="X" horiz-adv-x="612" 
d="M265 370l-235 346h79l195 -294h4l197 294h77l-234 -346l247 -370h-77l-210 315h-4l-210 -315h-77z" />
    <glyph glyph-name="Y" unicode="Y" horiz-adv-x="579" 
d="M260 0v324l-247 392h75l202 -326h4l198 326h75l-243 -392v-324h-64z" />
    <glyph glyph-name="Z" unicode="Z" horiz-adv-x="553" 
d="M34 69l400 586h-384v61h456v-69l-400 -586h404v-61h-476v69z" />
    <glyph glyph-name="bracketleft" unicode="[" horiz-adv-x="304" 
d="M77 792h193v-53h-135v-810h135v-53h-193v916z" />
    <glyph glyph-name="backslash" unicode="\" horiz-adv-x="415" 
d="M326 0l-297 716h61l297 -716h-61z" />
    <glyph glyph-name="bracketright" unicode="]" horiz-adv-x="304" 
d="M227 -124h-193v53h135v810h-135v53h193v-916z" />
    <glyph glyph-name="asciicircum" unicode="^" horiz-adv-x="451" 
d="M370 410l-142 242h-4l-142 -242h-69l187 306h52l187 -306h-69z" />
    <glyph glyph-name="underscore" unicode="_" horiz-adv-x="468" 
d="M1 -162h466v-54h-466v54z" />
    <glyph glyph-name="grave" unicode="`" horiz-adv-x="390" 
d="M170 592l-67 124h73l52 -124h-58z" />
    <glyph glyph-name="a" unicode="a" horiz-adv-x="506" 
d="M393 87h-3.99805c-16.667 -28.667 -39.834 -53 -69.501 -73s-64.167 -30 -103.5 -30c-26.667 0 -51.334 4.16699 -74.001 12.5s-42.334 19.666 -59.001 33.999s-29.667 31.5 -39 51.5s-14 41.667 -14 65c0 26.667 5.5 50.334 16.5 71.001s26 38 45 52s41 24.5 66 31.5
s51.5 10.5 79.5 10.5c33.333 0 63.333 -3.83301 90 -11.5s48.667 -16.5 66 -26.5v30c0 22 -4 42 -12 60s-18.667 33.333 -32 46s-29.166 22.334 -47.499 29.001s-37.5 10 -57.5 10c-30 0 -56.667 -6.5 -80 -19.5s-42.666 -31.833 -57.999 -56.5l-56 35
c19.333 30 45.666 53.833 78.999 71.5s71 26.5 113 26.5c32.667 0 62 -4.83301 88 -14.5s48.333 -23.334 67 -41.001s33 -38.667 43 -63s15 -51.5 15 -81.5v-306h-62v87zM393.002 218c-20 12 -41.832 21.835 -65.499 29.502s-50.5 11.5 -80.5 11.5
c-22 0 -42.167 -2.66699 -60.5 -8s-34.333 -12.833 -48 -22.5s-24.334 -21.5 -32.001 -35.5s-11.5 -29.667 -11.5 -47c0 -16 3.5 -30.5 10.5 -43.5s16.5 -24 28.5 -33s25.5 -16 40.5 -21s30.5 -7.5 46.5 -7.5c22 0 43.333 4.66699 64 14s39 22.166 55 38.499
s28.833 35.166 38.5 56.499s14.5 44 14.5 68z" />
    <glyph glyph-name="b" unicode="b" horiz-adv-x="569" 
d="M60 716l64 0.00488281v-243l-4 -68h4c8 13.333 17.667 26.166 29 38.499s24.666 23.166 39.999 32.499s32.666 16.666 51.999 21.999s40.666 8 63.999 8c31.333 0 61 -6.5 89 -19.5s52.5 -31 73.5 -54s37.667 -50.5 50 -82.5s18.5 -67 18.5 -105s-6.16699 -73 -18.5 -105
s-29 -59.5 -50 -82.5s-45.5 -41 -73.5 -54s-57.667 -19.5 -89 -19.5c-23.333 0 -44.666 2.83301 -63.999 8.5s-36.666 13.167 -51.999 22.5s-28.666 20.166 -39.999 32.499s-21 25.166 -29 38.499h-4v-86h-60v716zM298 42.0049c23.333 0 45.833 4.66895 67.5 14.002
s40.667 22.666 57 39.999s29.333 38.666 39 63.999s14.5 53.666 14.5 84.999s-4.83301 59.5 -14.5 84.5s-22.667 46.333 -39 64s-35.333 31.167 -57 40.5s-44.167 14 -67.5 14s-45.833 -4.5 -67.5 -13.5s-40.667 -22.167 -57 -39.5s-29.333 -38.666 -39 -63.999
s-14.5 -54 -14.5 -86s4.83301 -60.5 14.5 -85.5s22.667 -46.333 39 -64s35.333 -31 57 -40s44.167 -13.5 67.5 -13.5z" />
    <glyph glyph-name="c" unicode="c" horiz-adv-x="513" 
d="M488 124c-8.66699 -20 -19.501 -38.4961 -32.501 -55.4961s-28.167 -31.667 -45.5 -44s-37.333 -22.166 -60 -29.499s-47.667 -11 -75 -11c-35.333 0 -68 6.66699 -98 20s-55.833 31.666 -77.5 54.999s-38.667 50.833 -51 82.5s-18.5 66.167 -18.5 103.5
s6.16699 71.833 18.5 103.5s29.333 59.167 51 82.5s47.5 41.666 77.5 54.999s62.667 20 98 20c27.333 0 52.166 -3.5 74.499 -10.5s42.333 -16.833 60 -29.5s32.834 -27.334 45.501 -44.001s23 -35 31 -55l-57 -25c-14.667 34 -35 60.167 -61 78.5s-58 27.5 -96 27.5
c-22.667 0 -44.667 -4.83301 -66 -14.5s-40.333 -23.334 -57 -41.001s-30 -39 -40 -64s-15 -52.833 -15 -83.5s5 -58.5 15 -83.5s23.333 -46.333 40 -64s35.667 -31.334 57 -41.001s43.333 -14.5 66 -14.5c38 0 70.333 9.16699 97 27.5s47.334 44.5 62.001 78.5z" />
    <glyph glyph-name="d" unicode="d" horiz-adv-x="569" 
d="M450 86l-4.00391 -0.00195312c-8 -13.333 -17.667 -26.166 -29 -38.499s-24.666 -23.166 -39.999 -32.499s-32.666 -16.833 -51.999 -22.5s-40.666 -8.5 -63.999 -8.5c-31.333 0 -61 6.5 -89 19.5s-52.5 31 -73.5 54s-37.667 50.5 -50 82.5s-18.5 67 -18.5 105
s6.16699 73 18.5 105s29 59.5 50 82.5s45.5 41 73.5 54s57.667 19.5 89 19.5c46.667 0 85.334 -10 116.001 -30s53.667 -43.667 69 -71h4l-4 68v243h64v-716h-60v86zM271.996 41.998c23.333 0 45.833 4.49805 67.5 13.498s40.667 22.333 57 40s29.333 39 39 64
s14.5 53.5 14.5 85.5s-4.83301 60.667 -14.5 86s-22.667 46.666 -39 63.999s-35.333 30.5 -57 39.5s-44.167 13.5 -67.5 13.5s-45.833 -4.66699 -67.5 -14s-40.667 -22.833 -57 -40.5s-29.333 -39 -39 -64s-14.5 -53.167 -14.5 -84.5s4.83301 -59.666 14.5 -84.999
s22.667 -46.666 39 -63.999s35.333 -30.666 57 -39.999s44.167 -14 67.5 -14z" />
    <glyph glyph-name="e" unicode="e" horiz-adv-x="528" 
d="M489 116c-8.66699 -18 -19.6631 -35.0029 -32.9961 -51.0029s-28.833 -30 -46.5 -42s-37.834 -21.5 -60.501 -28.5s-47.667 -10.5 -75 -10.5c-35.333 0 -68 6.5 -98 19.5s-55.833 31.167 -77.5 54.5s-38.5 50.833 -50.5 82.5s-18 66.5 -18 104.5
c0 35.333 5.5 68.833 16.5 100.5s26.833 59.334 47.5 83.001s45.667 42.5 75 56.5s62.333 21 99 21c35.333 0 67.166 -6.16699 95.499 -18.5s52.5 -29.666 72.5 -51.999s35.5 -49.166 46.5 -80.499s16.5 -66 16.5 -104v-6c-0.666992 -2 -1 -3.66699 -1 -5v-6h-403
c0.666992 -34 6.66699 -63 18 -87s25.666 -43.833 42.999 -59.5s36.666 -27.167 57.999 -34.5s42 -11 62 -11c41.333 0 74 9.5 98 28.5s44 43.167 60 72.5zM432.004 287.997c-0.666992 16 -4.00098 33.333 -10.001 52s-15.333 36 -28 52s-29.5 29.333 -50.5 40
s-46.833 16 -77.5 16c-20 0 -39.333 -3.5 -58 -10.5s-35.5 -17.167 -50.5 -30.5s-27.667 -30 -38 -50s-17.166 -43 -20.499 -69h333z" />
    <glyph glyph-name="f" unicode="f" horiz-adv-x="347" 
d="M264 724c18 0 33.5029 -1.83496 46.5029 -5.50195s23.833 -8.16699 32.5 -13.5l-18 -56c-7.33301 4.66699 -15.833 8.5 -25.5 11.5s-20.834 4.5 -33.501 4.5c-22.667 0 -42.334 -8.16699 -59.001 -24.5s-25 -40.166 -25 -71.499v-79h128v-58h-128v-432h-64v432h-92v58h92
v85c0 24 4 45.333 12 64s18.833 34.334 32.5 47.001s29.167 22.167 46.5 28.5s35.666 9.5 54.999 9.5z" />
    <glyph glyph-name="g" unicode="g" horiz-adv-x="567" 
d="M268 -232c-32 0 -60.001 4.33203 -84.001 12.999s-44.833 19.667 -62.5 33s-32.167 28.5 -43.5 45.5s-20 33.833 -26 50.5l60 24c10.667 -33.333 30 -59.666 58 -78.999s60.667 -29 98 -29c58.667 0 103 17.167 133 51.5s45 81.833 45 142.5v64h-5
c-15.333 -26 -38.166 -49.167 -68.499 -69.5s-67.5 -30.5 -111.5 -30.5c-31.333 0 -60.833 6.5 -88.5 19.5s-52.167 31.167 -73.5 54.5s-38.166 51 -50.499 83s-18.5 66.667 -18.5 104s6.16699 72 18.5 104s29.166 59.667 50.499 83s45.833 41.5 73.5 54.5
s57.167 19.5 88.5 19.5c44 0 81.167 -10 111.5 -30s53.166 -43 68.499 -69h5v83h62v-474c0 -41.333 -6.16699 -77.5 -18.5 -108.5s-29.333 -56.833 -51 -77.5s-47.167 -36.167 -76.5 -46.5s-60.666 -15.5 -93.999 -15.5zM269.999 41.999
c22.667 0 44.834 4.49609 66.501 13.4961s40.667 22.167 57 39.5s29.5 38.5 39.5 63.5s15 53.833 15 86.5s-5 61.5 -15 86.5s-23.167 46.167 -39.5 63.5s-35.333 30.5 -57 39.5s-43.834 13.5 -66.501 13.5s-44.5 -4.66699 -65.5 -14s-39.667 -22.666 -56 -39.999
s-29.5 -38.5 -39.5 -63.5s-15 -53.5 -15 -85.5c0 -31.333 5 -59.666 15 -84.999s23.167 -46.666 39.5 -63.999s35 -30.666 56 -39.999s42.833 -14 65.5 -14z" />
    <glyph glyph-name="h" unicode="h" horiz-adv-x="535" 
d="M60 716l63.998 -0.000976562v-242l-4 -78h4c15.333 32 38 58.333 68 79s66 31 108 31c30.667 0 57.334 -5 80.001 -15s41.5 -23.833 56.5 -41.5s26 -38.667 33 -63s10.5 -50.833 10.5 -79.5v-307h-64v296c0 51.333 -11.667 89.5 -35 114.5s-55.333 37.5 -96 37.5
c-23.333 0 -44.666 -5.33301 -63.999 -16s-36.333 -24.667 -51 -42s-26 -37.666 -34 -60.999s-12 -47.333 -12 -72v-257h-64v716z" />
    <glyph glyph-name="i" unicode="i" horiz-adv-x="195" 
d="M98 610c-14 0 -25.833 4.83301 -35.5 14.5s-14.5 21.167 -14.5 34.5c0 14 4.83301 25.833 14.5 35.5s21.5 14.5 35.5 14.5c13.333 0 24.833 -4.83301 34.5 -14.5s14.5 -21.5 14.5 -35.5c0 -13.333 -4.83301 -24.833 -14.5 -34.5s-21.167 -14.5 -34.5 -14.5zM66 0v490h64
v-490h-64z" />
    <glyph glyph-name="j" unicode="j" horiz-adv-x="195" 
d="M-26 -161c8.66699 -4.66699 19 -7 31 -7c21.333 0 36.833 7 46.5 21s14.5 33.667 14.5 59v578h64v-579c0 -44.667 -10.667 -78.667 -32 -102s-51.666 -35 -90.999 -35c-18.667 0 -35.334 3.33301 -50.001 10zM98 610c-14 0 -25.833 4.83301 -35.5 14.5
s-14.5 21.167 -14.5 34.5c0 14 4.83301 25.833 14.5 35.5s21.5 14.5 35.5 14.5c13.333 0 24.833 -4.83301 34.5 -14.5s14.5 -21.5 14.5 -35.5c0 -13.333 -4.83301 -24.833 -14.5 -34.5s-21.167 -14.5 -34.5 -14.5z" />
    <glyph glyph-name="k" unicode="k" horiz-adv-x="469" 
d="M60 716h64v-475l248 249h81v-4l-184 -185l202 -297v-4h-75l-173 256l-99 -99v-157h-64v716z" />
    <glyph glyph-name="l" unicode="l" horiz-adv-x="183" 
d="M60 0v716h64v-716h-64z" />
    <glyph glyph-name="m" unicode="m" horiz-adv-x="841" 
d="M60 490h60.001v-92h4c6.66699 14.667 15.667 28.5 27 41.5s24.166 24.5 38.499 34.5s30 17.833 47 23.5s34.5 8.5 52.5 8.5c40.667 0 74 -10.667 100 -32s43.667 -48.333 53 -81c16 32 39 58.833 69 80.5s66 32.5 108 32.5c29.333 0 54.5 -4.83301 75.5 -14.5
s38.333 -23.167 52 -40.5s23.667 -38 30 -62s9.5 -50 9.5 -78v-311h-64v300c0 48.667 -9.33301 85.5 -28 110.5s-49 37.5 -91 37.5c-22 0 -42.167 -5.16699 -60.5 -15.5s-34 -24 -47 -41s-23 -36.667 -30 -59s-10.5 -45.5 -10.5 -69.5v-263h-64v298
c0 50 -9.5 87.5 -28.5 112.5s-48.833 37.5 -89.5 37.5c-22.667 0 -43.167 -5.33301 -61.5 -16s-34 -25 -47 -43s-23 -38.5 -30 -61.5s-10.5 -46.833 -10.5 -71.5v-256h-64v490z" />
    <glyph glyph-name="n" unicode="n" horiz-adv-x="535" 
d="M120 398l3.99902 0.00195312c8 14.667 17.667 28.5 29 41.5s24.5 24.5 39.5 34.5s31.5 17.833 49.5 23.5s37.333 8.5 58 8.5c30 0 56.333 -4.83301 79 -14.5s41.5 -23.334 56.5 -41.001s26.167 -38.667 33.5 -63s11 -51.166 11 -80.499v-307h-64v296
c0 52.667 -11.667 91.167 -35 115.5s-56 36.5 -98 36.5c-23.333 0 -44.666 -5.16699 -63.999 -15.5s-36 -24.333 -50 -42s-25 -37.834 -33 -60.501s-12 -46.334 -12 -71.001v-259h-64v490h60v-92z" />
    <glyph glyph-name="o" unicode="o" horiz-adv-x="554" 
d="M277 506c36 0 69.167 -6.66699 99.5 -20s56.5 -31.666 78.5 -54.999s39.167 -50.833 51.5 -82.5s18.5 -66.167 18.5 -103.5s-6.16699 -71.833 -18.5 -103.5s-29.5 -59.167 -51.5 -82.5s-48.167 -41.666 -78.5 -54.999s-63.5 -20 -99.5 -20
c-35.333 0 -68.166 6.66699 -98.499 20s-56.5 31.666 -78.5 54.999s-39.167 50.833 -51.5 82.5s-18.5 66.167 -18.5 103.5s6.16699 71.833 18.5 103.5s29.5 59.167 51.5 82.5s48.167 41.666 78.5 54.999s63.166 20 98.499 20zM277 42c24 0 47 4.83301 69 14.5
s41.5 23.334 58.5 41.001s30.667 39 41 64s15.5 52.833 15.5 83.5s-5.16699 58.5 -15.5 83.5s-24 46.333 -41 64s-36.5 31.334 -58.5 41.001s-45 14.5 -69 14.5s-47 -4.83301 -69 -14.5s-41.5 -23.334 -58.5 -41.001s-30.5 -39 -40.5 -64s-15 -52.833 -15 -83.5
s5 -58.5 15 -83.5s23.5 -46.333 40.5 -64s36.5 -31.334 58.5 -41.001s45 -14.5 69 -14.5z" />
    <glyph glyph-name="p" unicode="p" horiz-adv-x="565" 
d="M56 490l60 0.00488281v-85h4c8 13.333 17.667 26.166 29 38.499s24.666 23.166 39.999 32.499s32.666 16.666 51.999 21.999s40.666 8 63.999 8c31.333 0 61 -6.5 89 -19.5s52.5 -31 73.5 -54s37.667 -50.5 50 -82.5s18.5 -67 18.5 -105s-6.16699 -73 -18.5 -105
s-29 -59.5 -50 -82.5s-45.5 -41 -73.5 -54s-57.667 -19.5 -89 -19.5c-23.333 0 -44.666 2.83301 -63.999 8.5s-36.666 13.167 -51.999 22.5s-28.666 20.166 -39.999 32.499s-21 25.166 -29 38.499h-4l4 -68v-234h-64v706zM294 42.0049c23.333 0 45.833 4.66895 67.5 14.002
s40.667 22.666 57 39.999s29.333 38.666 39 63.999s14.5 53.666 14.5 84.999s-4.83301 59.5 -14.5 84.5s-22.667 46.333 -39 64s-35.333 31.167 -57 40.5s-44.167 14 -67.5 14s-45.833 -4.5 -67.5 -13.5s-40.667 -22.167 -57 -39.5s-29.333 -38.666 -39 -63.999
s-14.5 -54 -14.5 -86s4.83301 -60.5 14.5 -85.5s22.667 -46.333 39 -64s35.333 -31 57 -40s44.167 -13.5 67.5 -13.5z" />
    <glyph glyph-name="q" unicode="q" horiz-adv-x="565" 
d="M446 18l3.99609 67.998h-4c-8 -13.333 -17.667 -26.166 -29 -38.499s-24.666 -23.166 -39.999 -32.499s-32.666 -16.833 -51.999 -22.5s-40.666 -8.5 -63.999 -8.5c-31.333 0 -61 6.5 -89 19.5s-52.5 31 -73.5 54s-37.667 50.5 -50 82.5s-18.5 67 -18.5 105
s6.16699 73 18.5 105s29 59.5 50 82.5s45.5 41 73.5 54s57.667 19.5 89 19.5c46.667 0 85.334 -10 116.001 -30s53.667 -43.667 69 -71h4v85h60v-706h-64v234zM271.996 41.998c23.333 0 45.833 4.49805 67.5 13.498s40.667 22.333 57 40s29.333 39 39 64
s14.5 53.5 14.5 85.5s-4.83301 60.667 -14.5 86s-22.667 46.666 -39 63.999s-35.333 30.5 -57 39.5s-44.167 13.5 -67.5 13.5s-45.833 -4.66699 -67.5 -14s-40.667 -22.833 -57 -40.5s-29.333 -39 -39 -64s-14.5 -53.167 -14.5 -84.5s4.83301 -59.666 14.5 -84.999
s22.667 -46.666 39 -63.999s35.333 -30.666 57 -39.999s44.167 -14 67.5 -14z" />
    <glyph glyph-name="r" unicode="r" horiz-adv-x="335" 
d="M60 0v490h60v-86h4c4.66699 14.667 12.167 28.167 22.5 40.5s22 23 35 32s26.667 15.833 41 20.5s28.166 7 41.499 7c15.333 0 28 -1 38 -3s19.667 -5.33301 29 -10l-20 -60c-13.333 6.66699 -31.666 10 -54.999 10c-17.333 0 -34 -4.16699 -50 -12.5
s-30 -19.833 -42 -34.5s-21.667 -32.167 -29 -52.5s-11 -42.5 -11 -66.5v-275h-64z" />
    <glyph glyph-name="s" unicode="s" horiz-adv-x="448" 
d="M231 -16c-26.667 0 -51.168 3.83301 -73.501 11.5s-42 18 -59 31s-31.667 28 -44 45s-21.833 34.833 -28.5 53.5l57 24c13.333 -35.333 33.5 -62.166 60.5 -80.499s56.167 -27.5 87.5 -27.5c39.333 0 70.333 8.66699 93 26s34 38 34 62c0 10 -1.66699 19.333 -5 28
s-9.33301 16.834 -18 24.501s-20.334 14.667 -35.001 21s-33.334 12.166 -56.001 17.499l-68 16c-15.333 4 -31.166 9.16699 -47.499 15.5s-31.166 14.666 -44.499 24.999s-24.166 22.833 -32.499 37.5s-12.5 31.667 -12.5 51c0 22.667 5.16699 42.667 15.5 60
s24.333 32 42 44s37.834 21.167 60.501 27.5s46 9.5 70 9.5c20.667 0 40.667 -2.5 60 -7.5s37.166 -12.167 53.499 -21.5s30.833 -21.166 43.5 -35.499s22.667 -30.833 30 -49.5l-56 -23c-13.333 28 -31.5 48.333 -54.5 61s-49.5 19 -79.5 19
c-14.667 0 -29.167 -1.83301 -43.5 -5.5s-27.166 -9 -38.499 -16s-20.5 -15.667 -27.5 -26s-10.5 -21.833 -10.5 -34.5c0 -20.667 8.83301 -36.667 26.5 -48s42.5 -21 74.5 -29l72 -18c50 -12.667 86.833 -30.834 110.5 -54.501s35.5 -51.5 35.5 -83.5
c0 -20.667 -4.5 -40 -13.5 -58s-22 -33.833 -39 -47.5s-37.333 -24.5 -61 -32.5s-49.834 -12 -78.501 -12z" />
    <glyph glyph-name="t" unicode="t" horiz-adv-x="338" 
d="M115 432l-89 0.000976562v58h89v150h64v-150h122v-58h-122v-295c0 -28.667 7 -50 21 -64c13.333 -14.667 29.333 -22 48 -22c10 0 18.5 0.833008 25.5 2.5s14.833 4.5 23.5 8.5l20 -55c-11.333 -5.33301 -22.833 -9.16602 -34.5 -11.499s-25.5 -3.5 -41.5 -3.5
c-34.667 0 -64 11 -88 33c-12 11.333 -21.333 25.166 -28 41.499s-10 36.166 -10 59.499v306z" />
    <glyph glyph-name="u" unicode="u" horiz-adv-x="535" 
d="M416 92h-3.99902c-8 -14.667 -17.667 -28.5 -29 -41.5s-24.5 -24.5 -39.5 -34.5s-31.667 -17.833 -50 -23.5s-37.833 -8.5 -58.5 -8.5c-30 0 -56.333 4.83301 -79 14.5s-41.334 23.334 -56.001 41.001s-25.667 38.667 -33 63s-11 51.166 -11 80.499v307h64v-296
c0 -52 11.5 -90.333 34.5 -115s55.5 -37 97.5 -37c23.333 0 44.833 5.33301 64.5 16s36.5 24.667 50.5 42s25 37.5 33 60.5s12 46.833 12 71.5v258h64v-490h-60v92z" />
    <glyph glyph-name="v" unicode="v" horiz-adv-x="481" 
d="M5 490h68l167 -418h2l168 418h67l-202 -490h-70z" />
    <glyph glyph-name="w" unicode="w" horiz-adv-x="732" 
d="M504 0l-139 414l-137 -414h-62l-162 490h65l129 -403h1l134 403h68l135 -401h1l128 401h63l-162 -490h-62z" />
    <glyph glyph-name="x" unicode="x" horiz-adv-x="447" 
d="M364 0l-141 202l-139 -202h-75l177 249l-171 241h74l135 -193l133 193h76l-173 -241l179 -249h-75z" />
    <glyph glyph-name="y" unicode="y" horiz-adv-x="478" 
d="M98 -216l113 252l-206 454h71l166 -378h2l159 378h70l-309 -706h-66z" />
    <glyph glyph-name="z" unicode="z" horiz-adv-x="450" 
d="M34 54l300 378h-292v58h370v-54l-300 -378h304v-58h-382v54z" />
    <glyph glyph-name="braceleft" unicode="{" horiz-adv-x="309" 
d="M140.5 -80c-27 29.333 -40.5 67.3311 -40.5 113.998v186c0 28.667 -6.5 50.167 -19.5 64.5s-31.167 21.5 -54.5 21.5v56c23.333 0 41.5 7.33301 54.5 22s19.5 36.334 19.5 65.001v186c0 46 13.5 83.667 40.5 113s64.5 44 112.5 44h22v-53h-18
c-31.333 0 -55.666 -9.5 -72.999 -28.5s-26 -45.5 -26 -79.5v-186c0 -57.333 -20.667 -93.666 -62 -108.999v-4c41.333 -14 62 -50 62 -108v-187c0 -34 8.66699 -60.5 26 -79.5s41.666 -28.5 72.999 -28.5h18v-53h-22c-48 0 -85.5 14.667 -112.5 44z" />
    <glyph glyph-name="bar" unicode="|" horiz-adv-x="212" 
d="M77 792h58v-912h-58v912z" />
    <glyph glyph-name="braceright" unicode="}" horiz-adv-x="309" 
d="M34 -124v53.002h18c31.333 0 55.666 9.5 72.999 28.5s26 45.5 26 79.5v187c0 58 20.667 94 62 108v4c-41.333 15.333 -62 51.666 -62 108.999v186c0 34 -8.66699 60.5 -26 79.5s-41.666 28.5 -72.999 28.5h-18v53h22c48 0 85.5 -14.667 112.5 -44s40.5 -67 40.5 -113
v-186c0 -28.667 6.5 -50.334 19.5 -65.001s31.167 -22 54.5 -22v-56c-23.333 0 -41.5 -7.16699 -54.5 -21.5s-19.5 -35.833 -19.5 -64.5v-186c0 -46.667 -13.5 -84.667 -40.5 -114s-64.5 -44 -112.5 -44h-22z" />
    <glyph glyph-name="asciitilde" unicode="~" horiz-adv-x="518" 
d="M370 242c-19.333 0 -38.6641 3.83496 -57.9971 11.502s-38.333 16.167 -57 25.5s-36.834 17.833 -54.501 25.5s-34.5 11.5 -50.5 11.5c-19.333 0 -34.5 -6.33301 -45.5 -19s-17.167 -27.667 -18.5 -45h-52c0 19.333 3.33301 36.666 10 51.999s15.5 28.166 26.5 38.499
s23.333 18.333 37 24s27.5 8.5 41.5 8.5c19.333 0 38.666 -3.83301 57.999 -11.5s38.333 -16.167 57 -25.5c18.667 -10 36.834 -18.833 54.501 -26.5s34.5 -11.5 50.5 -11.5c19.333 0 34.333 6.33301 45 19s16.667 27.667 18 45h52c0 -19.333 -3.33301 -36.5 -10 -51.5
s-15.334 -27.833 -26.001 -38.5s-22.834 -18.667 -36.501 -24s-27.5 -8 -41.5 -8z" />
    <glyph glyph-name="uni00A0" unicode="&#xa0;" horiz-adv-x="220" 
d="M0 0z" />
    <glyph glyph-name="exclamdown" unicode="&#xa1;" horiz-adv-x="205" 
d="M103 505.999c-14.667 0 -27 -4.99902 -37 -14.998s-15 -22.3311 -15 -36.9961s5 -26.8301 15 -36.4951s22.333 -14.498 37 -14.498s26.834 4.83301 36.501 14.498s14.5 21.8301 14.5 36.4951s-4.83301 26.9971 -14.5 36.9961s-21.834 14.998 -36.501 14.998zM71 75.0518
v-290.964h64v290.964l-9 242.971h-46z" />
    <glyph glyph-name="cent" unicode="&#xa2;" horiz-adv-x="511" 
d="M246 84c-31.333 3.33301 -60.1641 12.166 -86.4971 26.499s-49.166 33 -68.499 56s-34.333 49.333 -45 79s-16 61.834 -16 96.501s5.33301 67 16 97s25.667 56.333 45 79s42.166 41 68.499 55s55.166 22.667 86.499 26v85h54v-84
c46.667 -4.66699 85.167 -19.667 115.5 -45s53.166 -56 68.499 -92l-58 -24c-12.667 29.333 -29.334 52.666 -50.001 69.999s-46 28.333 -76 33v-400c30 4.66699 55.833 15.834 77.5 33.501s38.834 41.167 51.501 70.5l56 -25c-15.333 -36 -38.333 -66.667 -69 -92
s-69.334 -40.333 -116.001 -45v-84h-54v84zM94.002 342c0 -27.333 4.16699 -52.5 12.5 -75.5s19.5 -43.167 33.5 -60.5s30.167 -31.5 48.5 -42.5s37.5 -18.167 57.5 -21.5v400c-20 -3.33301 -39.167 -10.333 -57.5 -21s-34.5 -24.667 -48.5 -42s-25.167 -37.5 -33.5 -60.5
s-12.5 -48.5 -12.5 -76.5z" />
    <glyph glyph-name="sterling" unicode="&#xa3;" horiz-adv-x="508" 
d="M199 257c2 -7.33301 3.00098 -16.332 3.00098 -26.999c0 -30 -6.66699 -60 -20 -90s-30.666 -55.333 -51.999 -76l3 -3h207c30.667 0 52.667 5.66699 66 17s23.666 27.666 30.999 48.999l54 -22c-11.333 -34 -28.833 -60 -52.5 -78s-56.5 -27 -98.5 -27h-306v52
c16.667 8 31.334 18.5 44.001 31.5s23.5 27.167 32.5 42.5s15.833 31.166 20.5 47.499s7 32.5 7 48.5c0 6.66699 -0.333008 13 -1 19s-1.66699 11.333 -3 16h-98v54h77c-7.33301 14.667 -15.333 29.334 -24 44.001c-9.33301 14 -17.833 28.833 -25.5 44.5
s-14.167 32.167 -19.5 49.5s-8 36 -8 56c0 25.333 4.66699 49.833 14 73.5s22.833 44.5 40.5 62.5s38.834 32.333 63.501 43s52 16 82 16c28.667 0 53.667 -4.16699 75 -12.5s39.833 -19.166 55.5 -32.499s28.5 -28.333 38.5 -45s17.667 -33 23 -49l-59 -24
c-4 12.667 -9.5 25.167 -16.5 37.5s-15.833 23.166 -26.5 32.499s-23.334 17 -38.001 23s-32 9 -52 9c-22 0 -41.333 -3.83301 -58 -11.5s-30.834 -17.834 -42.501 -30.501s-20.5 -27 -26.5 -43s-9 -32.333 -9 -49c0 -20 2.83301 -38.167 8.5 -54.5
s12.667 -32.166 21 -47.499s17.5 -30.333 27.5 -45c9.33301 -15.333 17.666 -31 24.999 -47h145v-54h-128z" />
    <glyph glyph-name="currency" unicode="&#xa4;" horiz-adv-x="592" 
d="M296 106c-25.333 0 -49.5 4.16797 -72.5 12.501s-43.167 20.166 -60.5 35.499l-59 -56l-40 40l60 59c-13.333 18 -23.5 37.833 -30.5 59.5s-10.5 44.5 -10.5 68.5s3.5 47 10.5 69s17.167 42 30.5 60l-60 59l40 40l59 -57c17.333 15.333 37.5 27.166 60.5 35.499
s47.167 12.5 72.5 12.5s49.5 -4.16699 72.5 -12.5s43.5 -20.166 61.5 -35.499l58 57l40 -40l-59 -59c12.667 -18 22.5 -37.833 29.5 -59.5s10.5 -44.834 10.5 -69.501c0 -24 -3.5 -46.833 -10.5 -68.5s-16.833 -41.5 -29.5 -59.5l59 -59l-40 -40l-58 56
c-18 -15.333 -38.5 -27.166 -61.5 -35.499s-47.167 -12.5 -72.5 -12.5zM296 163.001c21.333 0 41.333 4.33301 60 13s34.834 20.334 48.501 35.001s24.5 31.834 32.5 51.501s12 40.5 12 62.5s-4 42.833 -12 62.5s-18.833 36.834 -32.5 51.501s-29.834 26.334 -48.501 35.001
s-38.667 13 -60 13s-41.333 -4.33301 -60 -13s-34.834 -20.334 -48.501 -35.001s-24.5 -31.834 -32.5 -51.501s-12 -40.5 -12 -62.5s4 -42.833 12 -62.5s18.833 -36.834 32.5 -51.501s29.834 -26.334 48.501 -35.001s38.667 -13 60 -13z" />
    <glyph glyph-name="yen" unicode="&#xa5;" horiz-adv-x="548" 
d="M76 231h168v87h-168v54h134l-197 312h73l188 -308h4l184 308h74l-194 -312h131v-54h-165v-87h165v-54h-165v-177h-64v177h-168v54z" />
    <glyph glyph-name="brokenbar" unicode="&#xa6;" horiz-adv-x="212" 
d="M77 376v380h58v-380h-58zM77 -120v412h58v-412h-58z" />
    <glyph glyph-name="section" unicode="&#xa7;" horiz-adv-x="524" 
d="M266 -232c-54.667 0 -101.664 16 -140.997 48s-66.666 76.333 -81.999 133l61 25c12 -42 31.167 -76.667 57.5 -104s61.166 -41 104.499 -41c20.667 0 40.167 3.16699 58.5 9.5s34.166 15 47.499 26s23.833 24.167 31.5 39.5s11.5 31.666 11.5 48.999
c0 20 -3.66699 37.5 -11 52.5s-18.5 28.5 -33.5 40.5s-33.5 22.833 -55.5 32.5s-48 19.167 -78 28.5c-52.667 16.667 -94.334 38.334 -125.001 65.001s-46 62.334 -46 107.001c0 29.333 8.16699 56.166 24.5 80.499s39.166 44.166 68.499 59.499
c-31.333 16.667 -55.5 36.667 -72.5 60s-25.5 52 -25.5 86c0 20 4.33301 40 13 60s21.5 37.833 38.5 53.5s37.833 28.5 62.5 38.5s53 15 85 15c30 0 56.333 -4.83301 79 -14.5s42.334 -21.667 59.001 -36s30 -29.833 40 -46.5s17.333 -32 22 -46l-61 -25
c-4 12.667 -9.5 25.334 -16.5 38.001s-16.167 24.167 -27.5 34.5s-24.666 18.666 -39.999 24.999s-33.333 9.5 -54 9.5c-20 0 -38.167 -3 -54.5 -9s-30.5 -13.833 -42.5 -23.5s-21.333 -20.834 -28 -33.501s-10 -25.667 -10 -39c0 -16 3.16699 -30.167 9.5 -42.5
s15.5 -23.166 27.5 -32.499s26.667 -17.833 44 -25.5s36.666 -15.167 57.999 -22.5c32 -10.667 61.333 -21.834 88 -33.501s49.5 -25.167 68.5 -40.5s33.667 -33.333 44 -54s15.5 -45 15.5 -73c0 -31.333 -7.33301 -59 -22 -83s-33 -43.667 -55 -59
c24.667 -17.333 43.5 -37.666 56.5 -60.999s19.5 -51.666 19.5 -84.999c0 -28 -5.83301 -53.5 -17.5 -76.5s-27.334 -42.667 -47.001 -59s-42.5 -28.833 -68.5 -37.5s-53 -13 -81 -13zM264.003 163c16 -5.33301 30.998 -10.666 44.998 -15.999s27.667 -11 41 -17
c20.667 11.333 36.834 27.333 48.501 48s17.5 41 17.5 61c0 19.333 -4 36.166 -12 50.499s-19.5 27.333 -34.5 39s-33.667 22.167 -56 31.5s-47.5 18.333 -75.5 27l-13 4c-14 -4 -26.833 -9.83301 -38.5 -17.5s-21.667 -16.5 -30 -26.5s-14.666 -20.667 -18.999 -32
s-6.5 -22.333 -6.5 -33c0 -30 11 -53.667 33 -71s55.333 -33.333 100 -48z" />
    <glyph glyph-name="dieresis" unicode="&#xa8;" horiz-adv-x="369" 
d="M262 615c-12 0 -22.5 4.33301 -31.5 13s-13.5 19 -13.5 31c0 13.333 4.5 24.166 13.5 32.499s19.5 12.5 31.5 12.5c12.667 0 23.167 -4.16699 31.5 -12.5s12.5 -19.166 12.5 -32.499c0 -12 -4.16699 -22.333 -12.5 -31s-18.833 -13 -31.5 -13zM108 615
c-12 0 -22.5 4.33301 -31.5 13s-13.5 19 -13.5 31c0 13.333 4.5 24.166 13.5 32.499s19.5 12.5 31.5 12.5c12.667 0 23.167 -4.16699 31.5 -12.5s12.5 -19.166 12.5 -32.499c0 -12 -4.16699 -22.333 -12.5 -31s-18.833 -13 -31.5 -13z" />
    <glyph glyph-name="copyright" unicode="&#xa9;" horiz-adv-x="537" 
d="M269 272c-32 0 -61.833 6 -89.5 18s-52 28.5 -73 49.5s-37.5 45.333 -49.5 73s-18 57.5 -18 89.5c0 31.333 6 61 18 89s28.5 52.5 49.5 73.5s45.333 37.5 73 49.5s57.5 18 89.5 18c31.333 0 61 -6 89 -18s52.5 -28.5 73.5 -49.5s37.5 -45.5 49.5 -73.5s18 -57.667 18 -89
c0 -32 -6 -61.833 -18 -89.5s-28.5 -52 -49.5 -73s-45.5 -37.5 -73.5 -49.5s-57.667 -18 -89 -18zM269 311c26 0 50.667 5 74 15s43.666 23.833 60.999 41.5s31 38 41 61s15 47.5 15 73.5c0 26.667 -5 51.5 -15 74.5s-23.667 43.167 -41 60.5s-37.666 31 -60.999 41
s-48 15 -74 15s-50.667 -5 -74 -15s-43.666 -23.667 -60.999 -41s-31 -37.5 -41 -60.5s-15 -47.833 -15 -74.5c0 -26 5 -50.5 15 -73.5s23.667 -43.333 41 -61s37.666 -31.5 60.999 -41.5s48 -15 74 -15zM273 383c-16.667 0 -32.166 3.16602 -46.499 9.49902
s-26.833 14.833 -37.5 25.5s-19 23.334 -25 38.001s-9 30 -9 46c0 16.667 3 32.167 9 46.5s14.333 26.833 25 37.5s23.167 19.167 37.5 25.5s29.833 9.5 46.5 9.5c20 0 36.5 -3.5 49.5 -10.5s24.833 -16.167 35.5 -27.5l-27 -25c-7.33301 8 -15.333 14.333 -24 19
s-20 7 -34 7c-20.667 0 -39 -7.5 -55 -22.5s-24 -34.833 -24 -59.5c0 -24 8 -43.667 24 -59s34.333 -23 55 -23c15.333 0 28 3 38 9s18.667 14 26 24l28 -23c-10.667 -14 -23.334 -25.333 -38.001 -34s-32.667 -13 -54 -13z" />
    <glyph glyph-name="ordfeminine" unicode="&#xaa;" horiz-adv-x="462" 
d="M203 272c-22.667 0 -43.668 3.66602 -63.001 10.999s-36.166 17.5 -50.499 30.5s-25.666 28.333 -33.999 46s-12.5 37.167 -12.5 58.5c0 24 5 45.167 15 63.5s23.167 33.833 39.5 46.5s35.5 22.167 57.5 28.5s45 9.5 69 9.5c28.667 0 54.5 -3.33301 77.5 -10
s42.167 -14.667 57.5 -24v19c0 40 -12 71.167 -36 93.5s-54 33.5 -90 33.5c-53.333 0 -92 -21.333 -116 -64l-54 27c13.333 24 33.666 45.167 60.999 63.5s63 27.5 107 27.5c26.667 0 51.5 -4.16699 74.5 -12.5s43 -20.166 60 -35.499s30.167 -34 39.5 -56s14 -47 14 -75
v-267h-60v78h-4c-14.667 -28 -35.167 -50.333 -61.5 -67s-56.5 -25 -90.5 -25zM209.999 325.999c18.667 0 37.002 3.83008 55.002 11.4971s34 18.334 48 32.001s25.167 29.834 33.5 48.501s12.5 39.334 12.5 62.001c-10.667 6 -26.334 13.667 -47.001 23s-46 14 -76 14
c-42.667 0 -74.834 -9.33301 -96.501 -28s-32.5 -43 -32.5 -73c0 -14 2.83301 -26.667 8.5 -38s13.334 -20.833 23.001 -28.5s20.667 -13.5 33 -17.5s25.166 -6 38.499 -6z" />
    <glyph glyph-name="guillemotleft" unicode="&#xab;" horiz-adv-x="540" 
d="M276 96l-39 -36l-194 211l194 211l39 -36l-163 -175zM476 96l-39 -36l-194 211l194 211l39 -36l-163 -175z" />
    <glyph glyph-name="logicalnot" unicode="&#xac;" horiz-adv-x="557" 
d="M51 374h420v-269h-54v215h-366v54z" />
    <glyph glyph-name="uni00AD" unicode="&#xad;" horiz-adv-x="429" 
d="M60 337h310v-54h-310v54z" />
    <glyph glyph-name="registered" unicode="&#xae;" horiz-adv-x="537" 
d="M269 272c-32 0 -61.833 6 -89.5 18s-52 28.5 -73 49.5s-37.5 45.333 -49.5 73s-18 57.5 -18 89.5c0 31.333 6 61 18 89s28.5 52.5 49.5 73.5s45.333 37.5 73 49.5s57.5 18 89.5 18c31.333 0 61 -6 89 -18s52.5 -28.5 73.5 -49.5s37.5 -45.5 49.5 -73.5s18 -57.667 18 -89
c0 -32 -6 -61.833 -18 -89.5s-28.5 -52 -49.5 -73s-45.5 -37.5 -73.5 -49.5s-57.667 -18 -89 -18zM269 311c26 0 50.667 5 74 15s43.666 23.833 60.999 41.5s31 38 41 61s15 47.5 15 73.5c0 26.667 -5 51.5 -15 74.5s-23.667 43.167 -41 60.5s-37.666 31 -60.999 41
s-48 15 -74 15s-50.667 -5 -74 -15s-43.666 -23.667 -60.999 -41s-31 -37.5 -41 -60.5s-15 -47.833 -15 -74.5c0 -26 5 -50.5 15 -73.5s23.667 -43.333 41 -61s37.666 -31.5 60.999 -41.5s48 -15 74 -15zM194 389v226.001h92c19.333 0 36.5 -6.5 51.5 -19.5
s22.5 -29.833 22.5 -50.5c0 -16.667 -5 -30.834 -15 -42.501s-22 -19.5 -36 -23.5l-2 -2l60 -86v-2h-44l-58 86h-32v-86h-39zM282 511.001c10 0 19 2.83301 27 8.5s12 14.167 12 25.5c0 10 -3.66699 18 -11 24s-16.333 9 -27 9h-50v-67h49z" />
    <glyph glyph-name="macron" unicode="&#xaf;" horiz-adv-x="396" 
d="M64 633v52h268v-52h-268z" />
    <glyph glyph-name="degree" unicode="&#xb0;" horiz-adv-x="326" 
d="M163 442c-18 0 -34.833 3.33301 -50.5 10s-29.334 15.667 -41.001 27s-20.834 25 -27.501 41s-10 33 -10 51s3.33301 35 10 51s15.834 29.667 27.501 41s25.334 20.333 41.001 27s32.5 10 50.5 10s34.833 -3.33301 50.5 -10s29.334 -15.667 41.001 -27
s20.834 -25 27.501 -41s10 -33 10 -51s-3.33301 -35 -10 -51s-15.834 -29.667 -27.501 -41s-25.334 -20.333 -41.001 -27s-32.5 -10 -50.5 -10zM163 489c22.667 0 41.5 7.83301 56.5 23.5s22.5 35.167 22.5 58.5s-7.5 42.833 -22.5 58.5s-33.833 23.5 -56.5 23.5
s-41.5 -7.83301 -56.5 -23.5s-22.5 -35.167 -22.5 -58.5s7.5 -42.833 22.5 -58.5s33.833 -23.5 56.5 -23.5z" />
    <glyph glyph-name="plusminus" unicode="&#xb1;" horiz-adv-x="544" 
d="M299 361h186v-54h-186v-158h-54v158h-185v54h185v159h54v-159zM60 0v54h425v-54h-425z" />
    <glyph glyph-name="twosuperior" unicode="&#xb2;" horiz-adv-x="296" 
d="M21 350l0.000976562 45l136 136c14.667 15.333 26.667 29.333 36 42s14 27.667 14 45c0 16.667 -6 30.667 -18 42s-27.667 17 -47 17c-18 0 -33.833 -5.16699 -47.5 -15.5s-23.167 -27.5 -28.5 -51.5l-46 19c6.66699 30 21.167 53.333 43.5 70s47.5 25 75.5 25
c16 0 31.167 -2.5 45.5 -7.5s27 -12 38 -21s19.667 -20.167 26 -33.5s9.5 -28 9.5 -44c0 -12 -2 -23.5 -6 -34.5s-8.83301 -21 -14.5 -30s-11.834 -17.167 -18.501 -24.5l-19 -20l-112 -112h172v-47h-239z" />
    <glyph glyph-name="threesuperior" unicode="&#xb3;" horiz-adv-x="319" 
d="M153 342c-14 0 -27.832 1.83496 -41.499 5.50195s-26.5 9.5 -38.5 17.5s-22.5 18.167 -31.5 30.5s-15.5 27.166 -19.5 44.499l46 18c6.66699 -24.667 17.5 -42.334 32.5 -53.001s32.5 -16 52.5 -16c22 0 40.167 6.33301 54.5 19s21.5 28.667 21.5 48
c0 20.667 -7.5 36.167 -22.5 46.5s-32.833 15.5 -53.5 15.5h-37v45h32c18 0 33.833 5.16699 47.5 15.5s20.5 24.5 20.5 42.5c0 17.333 -6.33301 31 -19 41s-27.667 15 -45 15c-20.667 0 -36.334 -5 -47.001 -15s-18.334 -21.667 -23.001 -35l-45 18
c8.66699 24 22.834 43.167 42.501 57.5s43.5 21.5 71.5 21.5c36 0 64.5 -9.66699 85.5 -29s31.5 -43.333 31.5 -72c0 -18.667 -5 -34.5 -15 -47.5s-21.667 -23.5 -35 -31.5c17.333 -8 32.166 -19 44.499 -33s18.5 -31.667 18.5 -53c0 -18 -3.5 -34.167 -10.5 -48.5
s-16.333 -26.5 -28 -36.5s-25.167 -17.667 -40.5 -23s-31.666 -8 -48.999 -8z" />
    <glyph glyph-name="acute" unicode="&#xb4;" horiz-adv-x="390" 
d="M163 592l52 124h73l-67 -124h-58z" />
    <glyph glyph-name="mu" unicode="&#xb5;" horiz-adv-x="535" 
d="M416 0l-0.000976562 92h-4c-8 -14.667 -17.5 -28.5 -28.5 -41.5s-23.667 -24.5 -38 -34.5s-30.5 -17.833 -48.5 -23.5s-38 -8.5 -60 -8.5c-24 0 -46.167 5.83301 -66.5 17.5s-37.166 25.5 -50.499 41.5h-4l4 -73v-186h-64v706h64v-291c0 -52.667 12 -92 36 -118
s56 -39 96 -39c23.333 0 44.833 5.33301 64.5 16s36.5 24.667 50.5 42s25 37.5 33 60.5s12 46.833 12 71.5v258h64v-490h-60z" />
    <glyph glyph-name="paragraph" unicode="&#xb6;" horiz-adv-x="602" 
d="M294 -216v512h-44c-30 0 -58.5 4.83301 -85.5 14.5s-50.667 23.5 -71 41.5s-36.666 40 -48.999 66s-18.5 55.333 -18.5 88s6.16699 62 18.5 88s28.666 48 48.999 66s44 31.833 71 41.5s55.5 14.5 85.5 14.5h266v-932h-60v871h-102v-871h-60z" />
    <glyph glyph-name="periodcentered" unicode="&#xb7;" horiz-adv-x="145" 
d="M73 273c-14.667 0 -27 4.83301 -37 14.5s-15 21.834 -15 36.501s5 27 15 37s22.333 15 37 15s26.834 -5 36.501 -15s14.5 -22.333 14.5 -37s-4.83301 -26.834 -14.5 -36.501s-21.834 -14.5 -36.501 -14.5z" />
    <glyph glyph-name="cedilla" unicode="&#xb8;" horiz-adv-x="412" 
d="M169 -237c-22 0 -41.333 6.49902 -58 19.499s-28.334 28.833 -35.001 47.5l42 18c4 -11.333 10.333 -21 19 -29s19.334 -12 32.001 -12c15.333 0 27.666 4.83301 36.999 14.5s14 22.167 14 37.5c0 14.667 -4.5 27.167 -13.5 37.5s-21.167 15.5 -36.5 15.5
c-17.333 0 -31.333 -7 -42 -21l-36 17l35 92h45l-24 -54c3.33301 2 7.5 3.83301 12.5 5.5s11.167 2.5 18.5 2.5c24.667 0 45.834 -8.83301 63.501 -26.5s26.5 -40.5 26.5 -68.5c0 -13.333 -2.5 -25.666 -7.5 -36.999s-12 -21.5 -21 -30.5s-19.5 -16 -31.5 -21
s-25.333 -7.5 -40 -7.5z" />
    <glyph glyph-name="onesuperior" unicode="&#xb9;" horiz-adv-x="230" 
d="M115 350v303l-71 -31l-18 41l112 53h28v-366h-51z" />
    <glyph glyph-name="ordmasculine" unicode="&#xba;" horiz-adv-x="513" 
d="M257 272c-31.333 0 -60.333 5.83301 -87 17.5s-49.667 27.834 -69 48.501s-34.5 45 -45.5 73s-16.5 58.333 -16.5 91s5.5 63 16.5 91s26.167 52.333 45.5 73s42.333 36.834 69 48.501s55.667 17.5 87 17.5s60.333 -5.83301 87 -17.5s49.667 -27.834 69 -48.501
s34.5 -45 45.5 -73s16.5 -58.333 16.5 -91s-5.5 -63 -16.5 -91s-26.167 -52.333 -45.5 -73s-42.333 -36.834 -69 -48.501s-55.667 -17.5 -87 -17.5zM257 328c20 0 39.333 4.16699 58 12.5s35.167 20.166 49.5 35.499s25.833 33.666 34.5 54.999s13 45 13 71
s-4.33301 49.667 -13 71s-20.167 39.666 -34.5 54.999s-30.833 27.166 -49.5 35.499s-38 12.5 -58 12.5s-39.333 -4.16699 -58 -12.5s-35.167 -20.166 -49.5 -35.499s-25.833 -33.666 -34.5 -54.999s-13 -45 -13 -71s4.33301 -49.667 13 -71s20.167 -39.666 34.5 -54.999
s30.833 -27.166 49.5 -35.499s38 -12.5 58 -12.5z" />
    <glyph glyph-name="guillemotright" unicode="&#xbb;" horiz-adv-x="540" 
d="M227 271l-163 175l39 36l195 -211l-195 -211l-39 36zM427 271l-163 175l39 36l195 -211l-195 -211l-39 36z" />
    <glyph glyph-name="onequarter" unicode="&#xbc;" horiz-adv-x="723" 
d="M99 25l467 695l42 -29l-466 -695zM141 350v303l-71 -31l-18 41l112 53h28v-366h-51zM389 114l180 253h43v-241h52v-45h-52v-80h-51v80h-172v33zM561 126v154h-4l-109 -154h113z" />
    <glyph glyph-name="onehalf" unicode="&#xbd;" horiz-adv-x="769" 
d="M470 1l0.000976562 45l136 136c14.667 15.333 26.667 29.333 36 42s14 27.667 14 45c0 16.667 -6 30.667 -18 42s-27.667 17 -47 17c-18 0 -33.833 -5.16699 -47.5 -15.5s-23.167 -27.5 -28.5 -51.5l-46 19c6.66699 30 21.167 53.333 43.5 70s47.5 25 75.5 25
c16 0 31.167 -2.5 45.5 -7.5s27 -12 38 -21s19.667 -20.167 26 -33.5s9.5 -28 9.5 -44c0 -12 -2 -23.5 -6 -34.5s-8.83301 -21 -14.5 -30s-11.834 -17.167 -18.501 -24.5l-19 -20l-112 -112h172v-47h-239zM93.001 25l467 695l42 -29l-466 -695zM141.001 350v303l-71 -31
l-18 41l112 53h28v-366h-51z" />
    <glyph glyph-name="threequarters" unicode="&#xbe;" horiz-adv-x="823" 
d="M183 342c-14 0 -27.832 1.83496 -41.499 5.50195s-26.5 9.5 -38.5 17.5s-22.5 18.167 -31.5 30.5s-15.5 27.166 -19.5 44.499l46 18c6.66699 -24.667 17.5 -42.334 32.5 -53.001s32.5 -16 52.5 -16c22 0 40.167 6.33301 54.5 19s21.5 28.667 21.5 48
c0 20.667 -7.5 36.167 -22.5 46.5s-32.833 15.5 -53.5 15.5h-37v45h32c18 0 33.833 5.16699 47.5 15.5s20.5 24.5 20.5 42.5c0 17.333 -6.33301 31 -19 41s-27.667 15 -45 15c-20.667 0 -36.334 -5 -47.001 -15s-18.334 -21.667 -23.001 -35l-45 18
c8.66699 24 22.834 43.167 42.501 57.5s43.5 21.5 71.5 21.5c36 0 64.5 -9.66699 85.5 -29s31.5 -43.333 31.5 -72c0 -18.667 -5 -34.5 -15 -47.5s-21.667 -23.5 -35 -31.5c17.333 -8 32.166 -19 44.499 -33s18.5 -31.667 18.5 -53c0 -18 -3.5 -34.167 -10.5 -48.5
s-16.333 -26.5 -28 -36.5s-25.167 -17.667 -40.5 -23s-31.666 -8 -48.999 -8zM487.001 114.002l180 253h43v-241h52v-45h-52v-80h-51v80h-172v33zM659.001 126.002v154h-4l-109 -154h113zM183.001 25.002l467 695l42 -29l-466 -695z" />
    <glyph glyph-name="questiondown" unicode="&#xbf;" horiz-adv-x="473" 
d="M266.024 267.028c0 -21.9971 -1.66797 -41.1621 -5.00098 -57.4932s-8.49902 -31.1621 -15.498 -44.4932c-6.99902 -13.332 -16.165 -26.1641 -27.4971 -38.4951c-11.332 -12.332 -25.3301 -26.1641 -41.9951 -41.4951
c-24.6631 -22.6641 -43.6602 -43.6611 -56.9912 -62.9922c-13.332 -19.3311 -19.998 -42.6621 -19.998 -69.9922c0 -35.9951 11.832 -65.4912 35.4961 -88.4883c23.6631 -22.9971 56.1592 -34.4961 97.4883 -34.4961c19.9971 0 37.4951 3 52.4932 8.99902
s27.9961 13.998 38.9951 23.9971s20.3311 21.4971 27.9971 34.4951c7.66504 12.999 13.8311 26.4971 18.4971 40.4951l58.9932 -24.9961c-5.33301 -15.999 -13.165 -32.4971 -23.4971 -49.4941c-10.332 -16.998 -23.4971 -32.4961 -39.4951 -46.4941
c-15.998 -13.999 -34.9961 -25.498 -56.9932 -34.4971s-47.3271 -13.498 -75.9902 -13.498c-30.6631 0 -58.3262 4.83301 -82.9893 14.498c-24.6641 9.66504 -45.6611 22.6631 -62.9922 38.9941s-30.4961 35.6621 -39.4951 57.9932
c-8.99902 22.3301 -13.499 46.1602 -13.499 71.4912c0 21.3311 3 40.4951 8.99902 57.4922c5.99902 16.998 13.665 32.3301 22.9971 45.9951s19.6641 25.9971 30.9961 36.9961l32.9961 31.4961c12.665 11.332 23.4971 22.1641 32.4961 32.4961
s16.3311 20.9971 21.9971 31.9961s9.83203 23.1641 12.499 36.4951c2.66602 13.332 3.99902 28.6641 3.99902 45.9951v47.9941h64.9922v-50.9941zM234.026 505.998c14.665 0 26.8301 -4.99902 36.4961 -14.998c9.66504 -9.99902 14.498 -22.3311 14.498 -36.9961
s-4.83301 -26.8301 -14.498 -36.4951c-9.66602 -9.66504 -21.8311 -14.498 -36.4961 -14.498s-26.9971 4.83301 -36.9961 14.498s-14.998 21.8301 -14.998 36.4951s4.99902 26.9971 14.998 36.9961s22.3311 14.998 36.9961 14.998z" />
    <glyph glyph-name="Agrave" unicode="&#xc0;" horiz-adv-x="653" 
d="M290 716h74l277 -716h-70l-78 207h-332l-78 -207h-70zM470 267l-141 371h-4l-141 -371h286zM294 776l-67 124h73l52 -124h-58z" />
    <glyph glyph-name="Aacute" unicode="&#xc1;" horiz-adv-x="653" 
d="M290 716h74l277 -716h-70l-78 207h-332l-78 -207h-70zM470 267l-141 371h-4l-141 -371h286zM302 776l52 124h73l-67 -124h-58z" />
    <glyph glyph-name="Acircumflex" unicode="&#xc2;" horiz-adv-x="653" 
d="M290 716h74l277 -716h-70l-78 207h-332l-78 -207h-70zM470 267l-141 371h-4l-141 -371h286zM197 786l100 114h59l101 -114v-5h-64l-62 72h-8l-63 -72h-63v5z" />
    <glyph glyph-name="Atilde" unicode="&#xc3;" horiz-adv-x="653" 
d="M290 716h74l277 -716h-70l-78 207h-332l-78 -207h-70zM470 267l-141 371h-4l-141 -371h286zM391 786c-13.333 0 -25.833 2.83203 -37.5 8.49902s-22.5 11.834 -32.5 18.501l-29 18.5c-9.33301 5.66699 -18 8.5 -26 8.5c-26.667 0 -42 -14.667 -46 -44h-54
c0 17.333 3.16699 32.5 9.5 45.5s14.166 23.667 23.499 32s20 14.5 32 18.5s23.667 6 35 6c13.333 0 25.833 -2.83301 37.5 -8.5s22.5 -11.5 32.5 -17.5l29 -18.5c9.33301 -5.66699 18 -8.5 26 -8.5c26.667 0 41.667 14.333 45 43h54c0 -17.333 -3.16699 -32.5 -9.5 -45.5
s-14.166 -23.667 -23.499 -32s-19.833 -14.5 -31.5 -18.5s-23.167 -6 -34.5 -6z" />
    <glyph glyph-name="Adieresis" unicode="&#xc4;" horiz-adv-x="653" 
d="M290 716h74l277 -716h-70l-78 207h-332l-78 -207h-70zM470 267l-141 371h-4l-141 -371h286zM404 799c-12 0 -22.5 4.33301 -31.5 13s-13.5 19 -13.5 31c0 13.333 4.5 24.166 13.5 32.499s19.5 12.5 31.5 12.5c12.667 0 23.167 -4.16699 31.5 -12.5
s12.5 -19.166 12.5 -32.499c0 -12 -4.16699 -22.333 -12.5 -31s-18.833 -13 -31.5 -13zM250 799c-12 0 -22.5 4.33301 -31.5 13s-13.5 19 -13.5 31c0 13.333 4.5 24.166 13.5 32.499s19.5 12.5 31.5 12.5c12.667 0 23.167 -4.16699 31.5 -12.5s12.5 -19.166 12.5 -32.499
c0 -12 -4.16699 -22.333 -12.5 -31s-18.833 -13 -31.5 -13z" />
    <glyph glyph-name="Aring" unicode="&#xc5;" horiz-adv-x="653" 
d="M272 670c-14 9.33301 -25.332 21.499 -33.999 36.499s-13 31.5 -13 49.5c0 28.667 9.83301 52.834 29.5 72.501s43.834 29.5 72.501 29.5c14 0 27.167 -2.66699 39.5 -8s23.166 -12.5 32.499 -21.5s16.666 -19.833 21.999 -32.5s8 -26 8 -40
c0 -18 -4.33301 -34.5 -13 -49.5s-20 -27.167 -34 -36.5l259 -670h-70l-78 207h-332l-78 -207h-70zM470.001 266.999l-141 371h-4l-141 -371h286zM327.001 701.999c14.667 0 27.167 5.16699 37.5 15.5s15.5 23.166 15.5 38.499s-5.16699 28.166 -15.5 38.499
s-22.833 15.5 -37.5 15.5s-27.167 -5.16699 -37.5 -15.5s-15.5 -23.166 -15.5 -38.499s5.16699 -28.166 15.5 -38.499s22.833 -15.5 37.5 -15.5z" />
    <glyph glyph-name="AE" unicode="&#xc6;" horiz-adv-x="936" 
d="M4 0l433 716h444v-61h-340v-267h308v-60h-308v-267h340v-61h-404v207h-274l-125 -207h-74zM239 267h238v388h-4z" />
    <glyph glyph-name="Ccedilla" unicode="&#xc7;" horiz-adv-x="725" 
d="M413 -237c-22 0 -41.3359 6.49707 -58.0029 19.4971s-28.334 28.833 -35.001 47.5l42 18c4 -11.333 10.333 -21 19 -29s19.334 -12 32.001 -12c15.333 0 27.666 4.83301 36.999 14.5s14 22.167 14 37.5c0 14.667 -4.5 27.167 -13.5 37.5s-21.167 15.5 -36.5 15.5
c-17.333 0 -31.333 -7 -42 -21l-36 17l30 78c-47.333 4.66699 -90.833 17.667 -130.5 39s-74 48.5 -103 81.5s-51.667 71 -68 114s-24.5 88.833 -24.5 137.5c0 52 9.33301 100.833 28 146.5s44.334 85.334 77.001 119.001s71.334 60.167 116.001 79.5s93.334 29 146.001 29
c55.333 0 104.333 -10.167 147 -30.5s80 -49.166 112 -86.499l-46 -44c-54.667 66.667 -125.667 100 -213 100c-41.333 0 -80.333 -7.66699 -117 -23s-68.667 -36.666 -96 -63.999s-49 -60.166 -65 -98.499s-24 -80.833 -24 -127.5s8 -89.167 24 -127.5
s37.667 -71.333 65 -99s59.333 -49 96 -64s75.667 -22.5 117 -22.5c50 0 94 10 132 30s71.667 47.667 101 83l46 -44c-32 -38.667 -71 -69.834 -117 -93.501s-99.333 -35.834 -160 -36.501l-17 -38c3.33301 2 7.5 3.83301 12.5 5.5s11.167 2.5 18.5 2.5
c24.667 0 45.834 -8.83301 63.501 -26.5s26.5 -40.5 26.5 -68.5c0 -13.333 -2.5 -25.666 -7.5 -36.999s-12 -21.5 -21 -30.5s-19.5 -16 -31.5 -21s-25.333 -7.5 -40 -7.5z" />
    <glyph glyph-name="Egrave" unicode="&#xc8;" horiz-adv-x="537" 
d="M141 655v-267h308v-60h-308v-267h340v-61h-404v716h404v-61h-340zM257 776l-67 124h73l52 -124h-58z" />
    <glyph glyph-name="Eacute" unicode="&#xc9;" horiz-adv-x="537" 
d="M247 776l52 124h73l-67 -124h-58zM141 655v-267h308v-60h-308v-267h340v-61h-404v716h404v-61h-340z" />
    <glyph glyph-name="Ecircumflex" unicode="&#xca;" horiz-adv-x="537" 
d="M150 786l100 114h59l101 -114v-5h-64l-62 72h-8l-63 -72h-63v5zM141 655v-267h308v-60h-308v-267h340v-61h-404v716h404v-61h-340z" />
    <glyph glyph-name="Edieresis" unicode="&#xcb;" horiz-adv-x="537" 
d="M353 799c-12 0 -22.5 4.33301 -31.5 13s-13.5 19 -13.5 31c0 13.333 4.5 24.166 13.5 32.499s19.5 12.5 31.5 12.5c12.667 0 23.167 -4.16699 31.5 -12.5s12.5 -19.166 12.5 -32.499c0 -12 -4.16699 -22.333 -12.5 -31s-18.833 -13 -31.5 -13zM199 799
c-12 0 -22.5 4.33301 -31.5 13s-13.5 19 -13.5 31c0 13.333 4.5 24.166 13.5 32.499s19.5 12.5 31.5 12.5c12.667 0 23.167 -4.16699 31.5 -12.5s12.5 -19.166 12.5 -32.499c0 -12 -4.16699 -22.333 -12.5 -31s-18.833 -13 -31.5 -13zM141 655v-267h308v-60h-308v-267h340
v-61h-404v716h404v-61h-340z" />
    <glyph glyph-name="Igrave" unicode="&#xcc;" horiz-adv-x="218" 
d="M77 716h64v-716h-64v716zM80 776l-67 124h73l52 -124h-58z" />
    <glyph glyph-name="Iacute" unicode="&#xcd;" horiz-adv-x="218" 
d="M77 716h64v-716h-64v716zM82 776l52 124h73l-67 -124h-58z" />
    <glyph glyph-name="Icircumflex" unicode="&#xce;" horiz-adv-x="218" 
d="M77 716h64v-716h-64v716zM-20 786l100 114h59l101 -114v-5h-64l-62 72h-8l-63 -72h-63v5z" />
    <glyph glyph-name="Idieresis" unicode="&#xcf;" horiz-adv-x="218" 
d="M47 799c-12 0 -22.333 4.5 -31 13.5s-13 19.5 -13 31.5c0 12.667 4.33301 23.167 13 31.5s19 12.5 31 12.5c13.333 0 24.166 -4.16699 32.499 -12.5s12.5 -18.833 12.5 -31.5c0 -12 -4.16699 -22.5 -12.5 -31.5s-19.166 -13.5 -32.499 -13.5zM171 799
c-12 0 -22.333 4.5 -31 13.5s-13 19.5 -13 31.5c0 12.667 4.33301 23.167 13 31.5s19 12.5 31 12.5c13.333 0 24.166 -4.16699 32.499 -12.5s12.5 -18.833 12.5 -31.5c0 -12 -4.16699 -22.5 -12.5 -31.5s-19.166 -13.5 -32.499 -13.5zM77 716h64v-716h-64v716z" />
    <glyph glyph-name="Eth" unicode="&#xd0;" horiz-adv-x="743" 
d="M136 331h-76v53h76v332h208c56 0 106.333 -8.83301 151 -26.5s82.5 -42.167 113.5 -73.5s54.667 -69 71 -113s24.5 -92.333 24.5 -145s-8.16699 -101 -24.5 -145s-40 -81.667 -71 -113s-68.833 -55.833 -113.5 -73.5s-95 -26.5 -151 -26.5h-208v331zM344 61
c44.667 0 85.167 6.66895 121.5 20.002s67.333 32.666 93 57.999s45.5 56.333 59.5 93s21 78.667 21 126c0 46.667 -7 88.5 -21 125.5s-33.833 68.167 -59.5 93.5s-56.667 44.666 -93 57.999s-76.833 20 -121.5 20h-144v-271h212v-53h-212v-270h144z" />
    <glyph glyph-name="Ntilde" unicode="&#xd1;" horiz-adv-x="690" 
d="M77 716h83l389 -604h4l-4 138v466h64v-716h-66l-406 631h-4l4 -138v-493h-64v716zM417 786c-13.333 0 -25.833 2.83203 -37.5 8.49902s-22.5 11.834 -32.5 18.501l-29 18.5c-9.33301 5.66699 -18 8.5 -26 8.5c-26.667 0 -42 -14.667 -46 -44h-54
c0 17.333 3.16699 32.5 9.5 45.5s14.166 23.667 23.499 32s20 14.5 32 18.5s23.667 6 35 6c13.333 0 25.833 -2.83301 37.5 -8.5s22.5 -11.5 32.5 -17.5l29 -18.5c9.33301 -5.66699 18 -8.5 26 -8.5c26.667 0 41.667 14.333 45 43h54c0 -17.333 -3.16699 -32.5 -9.5 -45.5
s-14.166 -23.667 -23.499 -32s-19.833 -14.5 -31.5 -18.5s-23.167 -6 -34.5 -6z" />
    <glyph glyph-name="Ograve" unicode="&#xd2;" horiz-adv-x="809" 
d="M405 -16c-52.667 0 -101.334 9.83301 -146.001 29.5s-83.167 46.5 -115.5 80.5s-57.666 73.667 -75.999 119s-27.5 93.666 -27.5 144.999s9.16699 99.666 27.5 144.999s43.666 85 75.999 119s70.833 60.833 115.5 80.5s93.334 29.5 146.001 29.5
c52 0 100.333 -9.83301 145 -29.5s83.334 -46.5 116.001 -80.5s58.167 -73.667 76.5 -119s27.5 -93.666 27.5 -144.999s-9.16699 -99.666 -27.5 -144.999s-43.833 -85 -76.5 -119s-71.334 -60.833 -116.001 -80.5s-93 -29.5 -145 -29.5zM405 45
c40.667 0 79.334 7.66699 116.001 23s68.5 36.833 95.5 64.5s48.5 60.667 64.5 99s24 80.5 24 126.5s-8 88.167 -24 126.5s-37.5 71.333 -64.5 99s-58.833 49.167 -95.5 64.5s-75.334 23 -116.001 23c-41.333 0 -80.166 -7.66699 -116.499 -23
s-68.166 -36.833 -95.499 -64.5s-48.833 -60.667 -64.5 -99s-23.5 -80.5 -23.5 -126.5s7.83301 -88.167 23.5 -126.5s37.167 -71.333 64.5 -99s59.166 -49.167 95.499 -64.5s75.166 -23 116.499 -23zM374 776l-67 124h73l52 -124h-58z" />
    <glyph glyph-name="Oacute" unicode="&#xd3;" horiz-adv-x="809" 
d="M377 776l52 124h73l-67 -124h-58zM405 -16c-52.667 0 -101.334 9.83301 -146.001 29.5s-83.167 46.5 -115.5 80.5s-57.666 73.667 -75.999 119s-27.5 93.666 -27.5 144.999s9.16699 99.666 27.5 144.999s43.666 85 75.999 119s70.833 60.833 115.5 80.5
s93.334 29.5 146.001 29.5c52 0 100.333 -9.83301 145 -29.5s83.334 -46.5 116.001 -80.5s58.167 -73.667 76.5 -119s27.5 -93.666 27.5 -144.999s-9.16699 -99.666 -27.5 -144.999s-43.833 -85 -76.5 -119s-71.334 -60.833 -116.001 -80.5s-93 -29.5 -145 -29.5zM405 45
c40.667 0 79.334 7.66699 116.001 23s68.5 36.833 95.5 64.5s48.5 60.667 64.5 99s24 80.5 24 126.5s-8 88.167 -24 126.5s-37.5 71.333 -64.5 99s-58.833 49.167 -95.5 64.5s-75.334 23 -116.001 23c-41.333 0 -80.166 -7.66699 -116.499 -23
s-68.166 -36.833 -95.499 -64.5s-48.833 -60.667 -64.5 -99s-23.5 -80.5 -23.5 -126.5s7.83301 -88.167 23.5 -126.5s37.167 -71.333 64.5 -99s59.166 -49.167 95.499 -64.5s75.166 -23 116.499 -23z" />
    <glyph glyph-name="Ocircumflex" unicode="&#xd4;" horiz-adv-x="809" 
d="M275 787l100 114h59l101 -114v-5h-64l-62 72h-8l-63 -72h-63v5zM405 -16c-52.667 0 -101.334 9.83301 -146.001 29.5s-83.167 46.5 -115.5 80.5s-57.666 73.667 -75.999 119s-27.5 93.666 -27.5 144.999s9.16699 99.666 27.5 144.999s43.666 85 75.999 119
s70.833 60.833 115.5 80.5s93.334 29.5 146.001 29.5c52 0 100.333 -9.83301 145 -29.5s83.334 -46.5 116.001 -80.5s58.167 -73.667 76.5 -119s27.5 -93.666 27.5 -144.999s-9.16699 -99.666 -27.5 -144.999s-43.833 -85 -76.5 -119s-71.334 -60.833 -116.001 -80.5
s-93 -29.5 -145 -29.5zM405 45c40.667 0 79.334 7.66699 116.001 23s68.5 36.833 95.5 64.5s48.5 60.667 64.5 99s24 80.5 24 126.5s-8 88.167 -24 126.5s-37.5 71.333 -64.5 99s-58.833 49.167 -95.5 64.5s-75.334 23 -116.001 23c-41.333 0 -80.166 -7.66699 -116.499 -23
s-68.166 -36.833 -95.499 -64.5s-48.833 -60.667 -64.5 -99s-23.5 -80.5 -23.5 -126.5s7.83301 -88.167 23.5 -126.5s37.167 -71.333 64.5 -99s59.166 -49.167 95.499 -64.5s75.166 -23 116.499 -23z" />
    <glyph glyph-name="Otilde" unicode="&#xd5;" horiz-adv-x="809" 
d="M405 -16c-52.667 0 -101.334 9.83301 -146.001 29.5s-83.167 46.5 -115.5 80.5s-57.666 73.667 -75.999 119s-27.5 93.666 -27.5 144.999s9.16699 99.666 27.5 144.999s43.666 85 75.999 119s70.833 60.833 115.5 80.5s93.334 29.5 146.001 29.5
c52 0 100.333 -9.83301 145 -29.5s83.334 -46.5 116.001 -80.5s58.167 -73.667 76.5 -119s27.5 -93.666 27.5 -144.999s-9.16699 -99.666 -27.5 -144.999s-43.833 -85 -76.5 -119s-71.334 -60.833 -116.001 -80.5s-93 -29.5 -145 -29.5zM405 45
c40.667 0 79.334 7.66699 116.001 23s68.5 36.833 95.5 64.5s48.5 60.667 64.5 99s24 80.5 24 126.5s-8 88.167 -24 126.5s-37.5 71.333 -64.5 99s-58.833 49.167 -95.5 64.5s-75.334 23 -116.001 23c-41.333 0 -80.166 -7.66699 -116.499 -23
s-68.166 -36.833 -95.499 -64.5s-48.833 -60.667 -64.5 -99s-23.5 -80.5 -23.5 -126.5s7.83301 -88.167 23.5 -126.5s37.167 -71.333 64.5 -99s59.166 -49.167 95.499 -64.5s75.166 -23 116.499 -23zM468 786c-13.333 0 -25.833 2.83203 -37.5 8.49902
s-22.5 11.834 -32.5 18.501l-29 18.5c-9.33301 5.66699 -18 8.5 -26 8.5c-26.667 0 -42 -14.667 -46 -44h-54c0 17.333 3.16699 32.5 9.5 45.5s14.166 23.667 23.499 32s20 14.5 32 18.5s23.667 6 35 6c13.333 0 25.833 -2.83301 37.5 -8.5s22.5 -11.5 32.5 -17.5l29 -18.5
c9.33301 -5.66699 18 -8.5 26 -8.5c26.667 0 41.667 14.333 45 43h54c0 -17.333 -3.16699 -32.5 -9.5 -45.5s-14.166 -23.667 -23.499 -32s-19.833 -14.5 -31.5 -18.5s-23.167 -6 -34.5 -6z" />
    <glyph glyph-name="Odieresis" unicode="&#xd6;" horiz-adv-x="809" 
d="M482 799c-12 0 -22.5 4.33301 -31.5 13s-13.5 19 -13.5 31c0 13.333 4.5 24.166 13.5 32.499s19.5 12.5 31.5 12.5c12.667 0 23.167 -4.16699 31.5 -12.5s12.5 -19.166 12.5 -32.499c0 -12 -4.16699 -22.333 -12.5 -31s-18.833 -13 -31.5 -13zM328 799
c-12 0 -22.5 4.33301 -31.5 13s-13.5 19 -13.5 31c0 13.333 4.5 24.166 13.5 32.499s19.5 12.5 31.5 12.5c12.667 0 23.167 -4.16699 31.5 -12.5s12.5 -19.166 12.5 -32.499c0 -12 -4.16699 -22.333 -12.5 -31s-18.833 -13 -31.5 -13zM405 -16
c-52.667 0 -101.334 9.83301 -146.001 29.5s-83.167 46.5 -115.5 80.5s-57.666 73.667 -75.999 119s-27.5 93.666 -27.5 144.999s9.16699 99.666 27.5 144.999s43.666 85 75.999 119s70.833 60.833 115.5 80.5s93.334 29.5 146.001 29.5c52 0 100.333 -9.83301 145 -29.5
s83.334 -46.5 116.001 -80.5s58.167 -73.667 76.5 -119s27.5 -93.666 27.5 -144.999s-9.16699 -99.666 -27.5 -144.999s-43.833 -85 -76.5 -119s-71.334 -60.833 -116.001 -80.5s-93 -29.5 -145 -29.5zM405 45c40.667 0 79.334 7.66699 116.001 23s68.5 36.833 95.5 64.5
s48.5 60.667 64.5 99s24 80.5 24 126.5s-8 88.167 -24 126.5s-37.5 71.333 -64.5 99s-58.833 49.167 -95.5 64.5s-75.334 23 -116.001 23c-41.333 0 -80.166 -7.66699 -116.499 -23s-68.166 -36.833 -95.499 -64.5s-48.833 -60.667 -64.5 -99s-23.5 -80.5 -23.5 -126.5
s7.83301 -88.167 23.5 -126.5s37.167 -71.333 64.5 -99s59.166 -49.167 95.499 -64.5s75.166 -23 116.499 -23z" />
    <glyph glyph-name="multiply" unicode="&#xd7;" horiz-adv-x="522" 
d="M223 271l-159 156l37 37l160 -156l160 156l37 -37l-160 -156l160 -155l-37 -37l-160 156l-160 -156l-37 37z" />
    <glyph glyph-name="Oslash" unicode="&#xd8;" horiz-adv-x="809" 
d="M148 -3l37.001 60c-45.333 34 -80.833 77 -106.5 129s-38.5 109.333 -38.5 172c0 51.333 9.16699 99.666 27.5 144.999s43.666 85 75.999 119s70.833 60.833 115.5 80.5s93.334 29.5 146.001 29.5c32 0 62.667 -3.83301 92 -11.5s56.666 -18.167 81.999 -31.5l37 60
l46 -30l-37 -60c44.667 -34 80 -77.167 106 -129.5s39 -109.5 39 -171.5c0 -51.333 -9.16699 -99.666 -27.5 -144.999s-43.833 -85 -76.5 -119s-71.334 -60.833 -116.001 -80.5s-93 -29.5 -145 -29.5c-32 0 -62.667 3.83301 -92 11.5s-56.666 18.167 -81.999 31.5l-36 -59z
M105.001 358c0 -52.667 10.165 -100.167 30.498 -142.5s47.833 -77.5 82.5 -105.5l328 526c-42.667 23.333 -89.667 35 -141 35c-41.333 0 -80.166 -7.66699 -116.499 -23s-68.166 -36.833 -95.499 -64.5s-48.833 -60.667 -64.5 -99s-23.5 -80.5 -23.5 -126.5zM404.999 45
c40.667 0 79.332 7.66699 115.999 23s68.5 36.833 95.5 64.5s48.5 60.667 64.5 99s24 80.5 24 126.5c0 52 -10.333 99.333 -31 142s-48 78 -82 106l-327 -526c42.667 -23.333 89.334 -35 140.001 -35z" />
    <glyph glyph-name="Ugrave" unicode="&#xd9;" horiz-adv-x="635" 
d="M318 -16c-38.667 0 -73.833 6.66699 -105.5 20s-58.834 32.333 -81.501 57s-40.167 54 -52.5 88s-18.5 71.667 -18.5 113v454h64v-458c0 -30 4.33301 -58 13 -84s21.167 -48.5 37.5 -67.5s36.5 -34 60.5 -45s51.667 -16.5 83 -16.5c30.667 0 58 5.5 82 16.5
s44.333 26 61 45s29.334 41.5 38.001 67.5s13 54 13 84v458h64v-454c0 -41.333 -5.83301 -79 -17.5 -113s-28.667 -63.333 -51 -88s-49.5 -43.667 -81.5 -57s-68 -20 -108 -20zM292.001 776l-67 124h73l52 -124h-58z" />
    <glyph glyph-name="Uacute" unicode="&#xda;" horiz-adv-x="635" 
d="M285 776l52 124h73l-67 -124h-58zM318 -16c-38.667 0 -73.833 6.66699 -105.5 20s-58.834 32.333 -81.501 57s-40.167 54 -52.5 88s-18.5 71.667 -18.5 113v454h64v-458c0 -30 4.33301 -58 13 -84s21.167 -48.5 37.5 -67.5s36.5 -34 60.5 -45s51.667 -16.5 83 -16.5
c30.667 0 58 5.5 82 16.5s44.333 26 61 45s29.334 41.5 38.001 67.5s13 54 13 84v458h64v-454c0 -41.333 -5.83301 -79 -17.5 -113s-28.667 -63.333 -51 -88s-49.5 -43.667 -81.5 -57s-68 -20 -108 -20z" />
    <glyph glyph-name="Ucircumflex" unicode="&#xdb;" horiz-adv-x="635" 
d="M188 786l100 114h59l101 -114v-5h-64l-62 72h-8l-63 -72h-63v5zM318 -16c-38.667 0 -73.833 6.66699 -105.5 20s-58.834 32.333 -81.501 57s-40.167 54 -52.5 88s-18.5 71.667 -18.5 113v454h64v-458c0 -30 4.33301 -58 13 -84s21.167 -48.5 37.5 -67.5
s36.5 -34 60.5 -45s51.667 -16.5 83 -16.5c30.667 0 58 5.5 82 16.5s44.333 26 61 45s29.334 41.5 38.001 67.5s13 54 13 84v458h64v-454c0 -41.333 -5.83301 -79 -17.5 -113s-28.667 -63.333 -51 -88s-49.5 -43.667 -81.5 -57s-68 -20 -108 -20z" />
    <glyph glyph-name="Udieresis" unicode="&#xdc;" horiz-adv-x="635" 
d="M395 799c-12 0 -22.5 4.33301 -31.5 13s-13.5 19 -13.5 31c0 13.333 4.5 24.166 13.5 32.499s19.5 12.5 31.5 12.5c12.667 0 23.167 -4.16699 31.5 -12.5s12.5 -19.166 12.5 -32.499c0 -12 -4.16699 -22.333 -12.5 -31s-18.833 -13 -31.5 -13zM241 799
c-12 0 -22.5 4.33301 -31.5 13s-13.5 19 -13.5 31c0 13.333 4.5 24.166 13.5 32.499s19.5 12.5 31.5 12.5c12.667 0 23.167 -4.16699 31.5 -12.5s12.5 -19.166 12.5 -32.499c0 -12 -4.16699 -22.333 -12.5 -31s-18.833 -13 -31.5 -13zM318 -16
c-38.667 0 -73.833 6.66699 -105.5 20s-58.834 32.333 -81.501 57s-40.167 54 -52.5 88s-18.5 71.667 -18.5 113v454h64v-458c0 -30 4.33301 -58 13 -84s21.167 -48.5 37.5 -67.5s36.5 -34 60.5 -45s51.667 -16.5 83 -16.5c30.667 0 58 5.5 82 16.5s44.333 26 61 45
s29.334 41.5 38.001 67.5s13 54 13 84v458h64v-454c0 -41.333 -5.83301 -79 -17.5 -113s-28.667 -63.333 -51 -88s-49.5 -43.667 -81.5 -57s-68 -20 -108 -20z" />
    <glyph glyph-name="Yacute" unicode="&#xdd;" horiz-adv-x="579" 
d="M260 0v324l-247 392h75l202 -326h4l198 326h75l-243 -392v-324h-64zM257 776l52 124h73l-67 -124h-58z" />
    <glyph glyph-name="Thorn" unicode="&#xde;" horiz-adv-x="557" 
d="M77 0v716h64v-126h168c30.667 0 59.5 -5 86.5 -15s50.5 -24.167 70.5 -42.5s35.833 -40.333 47.5 -66s17.5 -54.167 17.5 -85.5s-5.83301 -59.833 -17.5 -85.5s-27.5 -47.667 -47.5 -66s-43.5 -32.5 -70.5 -42.5s-55.833 -15 -86.5 -15h-168v-172h-64zM141 529v-296h171
c22 0 42.333 3.83301 61 11.5s34.834 18.167 48.501 31.5s24.5 29 32.5 47s12 37.333 12 58s-4 40.167 -12 58.5s-18.833 34 -32.5 47s-29.834 23.333 -48.501 31s-39 11.5 -61 11.5h-171z" />
    <glyph glyph-name="germandbls" unicode="&#xdf;" horiz-adv-x="549" 
d="M384 384c16.667 -6 32.8301 -14.166 48.4971 -24.499s29.667 -23 42 -38s22.166 -32.167 29.499 -51.5s11 -41 11 -65c0 -30.667 -5.33301 -59 -16 -85s-25.834 -48.5 -45.501 -67.5s-43.167 -33.833 -70.5 -44.5s-57.333 -16 -90 -16
c-9.33301 0 -19.166 0.5 -29.499 1.5s-20.5 2.5 -30.5 4.5v60c22 -4 42 -6 60 -6c22.667 0 43.667 3.66699 63 11s36 17.833 50 31.5s24.833 29.667 32.5 48s11.5 38.5 11.5 60.5c0 20.667 -4.16699 40.167 -12.5 58.5s-19.833 34.333 -34.5 48s-32.167 24.5 -52.5 32.5
s-42.833 12 -67.5 12h-42v59h32c46 0 81.667 12.333 107 37s38 56.334 38 95.001c0 20 -3.66699 37.833 -11 53.5s-17.166 29 -29.499 40s-26.666 19.333 -42.999 25s-33.5 8.5 -51.5 8.5c-42 0 -76 -13.667 -102 -41s-39 -66 -39 -116v-515h-65v516
c0 31.333 4.66699 60.166 14 86.499s22.666 49.166 39.999 68.499s38.833 34.333 64.5 45s54.834 16 87.501 16c29.333 0 56.333 -4.66699 81 -14s45.834 -22.333 63.501 -39s31.334 -36.167 41.001 -58.5s14.5 -46.833 14.5 -73.5c0 -42.667 -9.5 -76.5 -28.5 -101.5
s-42.5 -44.167 -70.5 -57.5v-4z" />
    <glyph glyph-name="agrave" unicode="&#xe0;" horiz-adv-x="506" 
d="M393 87h-3.99805c-16.667 -28.667 -39.834 -53 -69.501 -73s-64.167 -30 -103.5 -30c-26.667 0 -51.334 4.16699 -74.001 12.5s-42.334 19.666 -59.001 33.999s-29.667 31.5 -39 51.5s-14 41.667 -14 65c0 26.667 5.5 50.334 16.5 71.001s26 38 45 52s41 24.5 66 31.5
s51.5 10.5 79.5 10.5c33.333 0 63.333 -3.83301 90 -11.5s48.667 -16.5 66 -26.5v30c0 22 -4 42 -12 60s-18.667 33.333 -32 46s-29.166 22.334 -47.499 29.001s-37.5 10 -57.5 10c-30 0 -56.667 -6.5 -80 -19.5s-42.666 -31.833 -57.999 -56.5l-56 35
c19.333 30 45.666 53.833 78.999 71.5s71 26.5 113 26.5c32.667 0 62 -4.83301 88 -14.5s48.333 -23.334 67 -41.001s33 -38.667 43 -63s15 -51.5 15 -81.5v-306h-62v87zM393.002 218c-20 12 -41.832 21.835 -65.499 29.502s-50.5 11.5 -80.5 11.5
c-22 0 -42.167 -2.66699 -60.5 -8s-34.333 -12.833 -48 -22.5s-24.334 -21.5 -32.001 -35.5s-11.5 -29.667 -11.5 -47c0 -16 3.5 -30.5 10.5 -43.5s16.5 -24 28.5 -33s25.5 -16 40.5 -21s30.5 -7.5 46.5 -7.5c22 0 43.333 4.66699 64 14s39 22.166 55 38.499
s28.833 35.166 38.5 56.499s14.5 44 14.5 68zM231.003 592.002l-67 124h73l52 -124h-58z" />
    <glyph glyph-name="aacute" unicode="&#xe1;" horiz-adv-x="506" 
d="M393 87h-3.99805c-16.667 -28.667 -39.834 -53 -69.501 -73s-64.167 -30 -103.5 -30c-26.667 0 -51.334 4.16699 -74.001 12.5s-42.334 19.666 -59.001 33.999s-29.667 31.5 -39 51.5s-14 41.667 -14 65c0 26.667 5.5 50.334 16.5 71.001s26 38 45 52s41 24.5 66 31.5
s51.5 10.5 79.5 10.5c33.333 0 63.333 -3.83301 90 -11.5s48.667 -16.5 66 -26.5v30c0 22 -4 42 -12 60s-18.667 33.333 -32 46s-29.166 22.334 -47.499 29.001s-37.5 10 -57.5 10c-30 0 -56.667 -6.5 -80 -19.5s-42.666 -31.833 -57.999 -56.5l-56 35
c19.333 30 45.666 53.833 78.999 71.5s71 26.5 113 26.5c32.667 0 62 -4.83301 88 -14.5s48.333 -23.334 67 -41.001s33 -38.667 43 -63s15 -51.5 15 -81.5v-306h-62v87zM393.002 218c-20 12 -41.832 21.835 -65.499 29.502s-50.5 11.5 -80.5 11.5
c-22 0 -42.167 -2.66699 -60.5 -8s-34.333 -12.833 -48 -22.5s-24.334 -21.5 -32.001 -35.5s-11.5 -29.667 -11.5 -47c0 -16 3.5 -30.5 10.5 -43.5s16.5 -24 28.5 -33s25.5 -16 40.5 -21s30.5 -7.5 46.5 -7.5c22 0 43.333 4.66699 64 14s39 22.166 55 38.499
s28.833 35.166 38.5 56.499s14.5 44 14.5 68zM216.003 592.002l52 124h73l-67 -124h-58z" />
    <glyph glyph-name="acircumflex" unicode="&#xe2;" horiz-adv-x="506" 
d="M393 87h-3.99805c-16.667 -28.667 -39.834 -53 -69.501 -73s-64.167 -30 -103.5 -30c-26.667 0 -51.334 4.16699 -74.001 12.5s-42.334 19.666 -59.001 33.999s-29.667 31.5 -39 51.5s-14 41.667 -14 65c0 26.667 5.5 50.334 16.5 71.001s26 38 45 52s41 24.5 66 31.5
s51.5 10.5 79.5 10.5c33.333 0 63.333 -3.83301 90 -11.5s48.667 -16.5 66 -26.5v30c0 22 -4 42 -12 60s-18.667 33.333 -32 46s-29.166 22.334 -47.499 29.001s-37.5 10 -57.5 10c-30 0 -56.667 -6.5 -80 -19.5s-42.666 -31.833 -57.999 -56.5l-56 35
c19.333 30 45.666 53.833 78.999 71.5s71 26.5 113 26.5c32.667 0 62 -4.83301 88 -14.5s48.333 -23.334 67 -41.001s33 -38.667 43 -63s15 -51.5 15 -81.5v-306h-62v87zM393.002 218c-20 12 -41.832 21.835 -65.499 29.502s-50.5 11.5 -80.5 11.5
c-22 0 -42.167 -2.66699 -60.5 -8s-34.333 -12.833 -48 -22.5s-24.334 -21.5 -32.001 -35.5s-11.5 -29.667 -11.5 -47c0 -16 3.5 -30.5 10.5 -43.5s16.5 -24 28.5 -33s25.5 -16 40.5 -21s30.5 -7.5 46.5 -7.5c22 0 43.333 4.66699 64 14s39 22.166 55 38.499
s28.833 35.166 38.5 56.499s14.5 44 14.5 68zM116.003 602.002l100 114h59l101 -114v-5h-64l-62 72h-8l-63 -72h-63v5z" />
    <glyph glyph-name="atilde" unicode="&#xe3;" horiz-adv-x="506" 
d="M393 87h-3.99805c-16.667 -28.667 -39.834 -53 -69.501 -73s-64.167 -30 -103.5 -30c-26.667 0 -51.334 4.16699 -74.001 12.5s-42.334 19.666 -59.001 33.999s-29.667 31.5 -39 51.5s-14 41.667 -14 65c0 26.667 5.5 50.334 16.5 71.001s26 38 45 52s41 24.5 66 31.5
s51.5 10.5 79.5 10.5c33.333 0 63.333 -3.83301 90 -11.5s48.667 -16.5 66 -26.5v30c0 22 -4 42 -12 60s-18.667 33.333 -32 46s-29.166 22.334 -47.499 29.001s-37.5 10 -57.5 10c-30 0 -56.667 -6.5 -80 -19.5s-42.666 -31.833 -57.999 -56.5l-56 35
c19.333 30 45.666 53.833 78.999 71.5s71 26.5 113 26.5c32.667 0 62 -4.83301 88 -14.5s48.333 -23.334 67 -41.001s33 -38.667 43 -63s15 -51.5 15 -81.5v-306h-62v87zM393.002 218c-20 12 -41.832 21.835 -65.499 29.502s-50.5 11.5 -80.5 11.5
c-22 0 -42.167 -2.66699 -60.5 -8s-34.333 -12.833 -48 -22.5s-24.334 -21.5 -32.001 -35.5s-11.5 -29.667 -11.5 -47c0 -16 3.5 -30.5 10.5 -43.5s16.5 -24 28.5 -33s25.5 -16 40.5 -21s30.5 -7.5 46.5 -7.5c22 0 43.333 4.66699 64 14s39 22.166 55 38.499
s28.833 35.166 38.5 56.499s14.5 44 14.5 68zM319.003 603.002c-13.333 0 -25.833 2.83203 -37.5 8.49902s-22.5 11.834 -32.5 18.501l-29 18.5c-9.33301 5.66699 -18 8.5 -26 8.5c-26.667 0 -42 -14.667 -46 -44h-54c0 17.333 3.16699 32.5 9.5 45.5
s14.166 23.667 23.499 32s20 14.5 32 18.5s23.667 6 35 6c13.333 0 25.833 -2.83301 37.5 -8.5s22.5 -11.5 32.5 -17.5l29 -18.5c9.33301 -5.66699 18 -8.5 26 -8.5c26.667 0 41.667 14.333 45 43h54c0 -17.333 -3.16699 -32.5 -9.5 -45.5s-14.166 -23.667 -23.499 -32
s-19.833 -14.5 -31.5 -18.5s-23.167 -6 -34.5 -6z" />
    <glyph glyph-name="adieresis" unicode="&#xe4;" horiz-adv-x="506" 
d="M393 87h-3.99805c-16.667 -28.667 -39.834 -53 -69.501 -73s-64.167 -30 -103.5 -30c-26.667 0 -51.334 4.16699 -74.001 12.5s-42.334 19.666 -59.001 33.999s-29.667 31.5 -39 51.5s-14 41.667 -14 65c0 26.667 5.5 50.334 16.5 71.001s26 38 45 52s41 24.5 66 31.5
s51.5 10.5 79.5 10.5c33.333 0 63.333 -3.83301 90 -11.5s48.667 -16.5 66 -26.5v30c0 22 -4 42 -12 60s-18.667 33.333 -32 46s-29.166 22.334 -47.499 29.001s-37.5 10 -57.5 10c-30 0 -56.667 -6.5 -80 -19.5s-42.666 -31.833 -57.999 -56.5l-56 35
c19.333 30 45.666 53.833 78.999 71.5s71 26.5 113 26.5c32.667 0 62 -4.83301 88 -14.5s48.333 -23.334 67 -41.001s33 -38.667 43 -63s15 -51.5 15 -81.5v-306h-62v87zM393.002 218c-20 12 -41.832 21.835 -65.499 29.502s-50.5 11.5 -80.5 11.5
c-22 0 -42.167 -2.66699 -60.5 -8s-34.333 -12.833 -48 -22.5s-24.334 -21.5 -32.001 -35.5s-11.5 -29.667 -11.5 -47c0 -16 3.5 -30.5 10.5 -43.5s16.5 -24 28.5 -33s25.5 -16 40.5 -21s30.5 -7.5 46.5 -7.5c22 0 43.333 4.66699 64 14s39 22.166 55 38.499
s28.833 35.166 38.5 56.499s14.5 44 14.5 68zM331.003 615.002c-12 0 -22.5 4.33301 -31.5 13s-13.5 19 -13.5 31c0 13.333 4.5 24.166 13.5 32.499s19.5 12.5 31.5 12.5c12.667 0 23.167 -4.16699 31.5 -12.5s12.5 -19.166 12.5 -32.499c0 -12 -4.16699 -22.333 -12.5 -31
s-18.833 -13 -31.5 -13zM177.003 615.002c-12 0 -22.5 4.33301 -31.5 13s-13.5 19 -13.5 31c0 13.333 4.5 24.166 13.5 32.499s19.5 12.5 31.5 12.5c12.667 0 23.167 -4.16699 31.5 -12.5s12.5 -19.166 12.5 -32.499c0 -12 -4.16699 -22.333 -12.5 -31
s-18.833 -13 -31.5 -13z" />
    <glyph glyph-name="aring" unicode="&#xe5;" horiz-adv-x="506" 
d="M393 87h-3.99805c-16.667 -28.667 -39.834 -53 -69.501 -73s-64.167 -30 -103.5 -30c-26.667 0 -51.334 4.16699 -74.001 12.5s-42.334 19.666 -59.001 33.999s-29.667 31.5 -39 51.5s-14 41.667 -14 65c0 26.667 5.5 50.334 16.5 71.001s26 38 45 52s41 24.5 66 31.5
s51.5 10.5 79.5 10.5c33.333 0 63.333 -3.83301 90 -11.5s48.667 -16.5 66 -26.5v30c0 22 -4 42 -12 60s-18.667 33.333 -32 46s-29.166 22.334 -47.499 29.001s-37.5 10 -57.5 10c-30 0 -56.667 -6.5 -80 -19.5s-42.666 -31.833 -57.999 -56.5l-56 35
c19.333 30 45.666 53.833 78.999 71.5s71 26.5 113 26.5c32.667 0 62 -4.83301 88 -14.5s48.333 -23.334 67 -41.001s33 -38.667 43 -63s15 -51.5 15 -81.5v-306h-62v87zM393.002 218c-20 12 -41.832 21.835 -65.499 29.502s-50.5 11.5 -80.5 11.5
c-22 0 -42.167 -2.66699 -60.5 -8s-34.333 -12.833 -48 -22.5s-24.334 -21.5 -32.001 -35.5s-11.5 -29.667 -11.5 -47c0 -16 3.5 -30.5 10.5 -43.5s16.5 -24 28.5 -33s25.5 -16 40.5 -21s30.5 -7.5 46.5 -7.5c22 0 43.333 4.66699 64 14s39 22.166 55 38.499
s28.833 35.166 38.5 56.499s14.5 44 14.5 68zM255.003 567.002c-14 0 -27.334 2.66602 -40.001 7.99902s-23.5 12.666 -32.5 21.999s-16.167 20.166 -21.5 32.499s-8 25.5 -8 39.5c0 28.667 9.83301 52.834 29.5 72.501s43.834 29.5 72.501 29.5
c14 0 27.167 -2.66699 39.5 -8s23.166 -12.5 32.499 -21.5s16.666 -19.833 21.999 -32.5s8 -26 8 -40s-2.66699 -27.167 -8 -39.5s-12.666 -23.166 -21.999 -32.499s-20.166 -16.666 -32.499 -21.999s-25.5 -8 -39.5 -8zM255.002 613.001c15.333 0 28.333 5.33301 39 16
s16 24 16 40s-5.33301 29.333 -16 40s-23.667 16 -39 16s-28.333 -5.33301 -39 -16s-16 -24 -16 -40s5.33301 -29.333 16 -40s23.667 -16 39 -16z" />
    <glyph glyph-name="ae" unicode="&#xe6;" horiz-adv-x="893" 
d="M639 -16c-50 0 -93.6582 12.4971 -130.991 37.4971s-65.333 58.833 -84 101.5c-19.333 -43.333 -47.333 -77.333 -84 -102s-78 -37 -124 -37c-26.667 0 -51.334 4.16699 -74.001 12.5s-42.334 19.666 -59.001 33.999s-29.667 31.5 -39 51.5s-14 41.667 -14 65
c0 26.667 5.5 50.334 16.5 71.001s26 38 45 52s41 24.5 66 31.5s51.5 10.5 79.5 10.5c33.333 0 63.666 -3.83301 90.999 -11.5s49.666 -16.5 66.999 -26.5v30c0 22 -3.83301 42 -11.5 60s-18.334 33.333 -32.001 46s-29.334 22.334 -47.001 29.001s-36.5 10 -56.5 10
c-30.667 0 -57.834 -7 -81.501 -21s-41.5 -33.333 -53.5 -58l-58 29c16 32 40.333 57.833 73 77.5s72 29.5 118 29.5s85.333 -10.5 118 -31.5s56.667 -48.833 72 -83.5c20 34 46.667 61.667 80 83s72.333 32 117 32c35.333 0 67.166 -6.16699 95.499 -18.5
s52.5 -29.666 72.5 -51.999s35.5 -49.166 46.5 -80.499s16.5 -66 16.5 -104v-6c-0.666992 -2 -1 -3.66699 -1 -5v-6h-404c0.666992 -34 6.66699 -63 18 -87s25.833 -43.833 43.5 -59.5s37.167 -27.167 58.5 -34.5s42 -11 62 -11c41.333 0 74 9.5 98 28.5s44 43.167 60 72.5
l55 -27c-8.66699 -18 -19.667 -35 -33 -51s-28.833 -30 -46.5 -42s-37.834 -21.5 -60.501 -28.5s-47.667 -10.5 -75 -10.5zM221.009 40.9971c22 0 43.334 4.83301 64.001 14.5s39.167 22.5 55.5 38.5s29.5 34.667 39.5 56s15 44 15 68c-13.333 7.33301 -32.333 16 -57 26
s-55 15 -91 15c-22 0 -42.167 -2.66699 -60.5 -8s-34.333 -12.833 -48 -22.5s-24.334 -21.5 -32.001 -35.5s-11.5 -29.667 -11.5 -47c0 -16 3.5 -30.5 10.5 -43.5s16.5 -24 28.5 -33s25.5 -16 40.5 -21s30.5 -7.5 46.5 -7.5zM797.01 287.997
c-0.666992 16 -4.00195 33.333 -10.002 52s-15.333 36 -28 52s-29.5 29.333 -50.5 40s-46.833 16 -77.5 16c-20 0 -39.333 -3.5 -58 -10.5s-35.667 -17.167 -51 -30.5s-28.166 -30 -38.499 -50s-17.166 -43 -20.499 -69h334z" />
    <glyph glyph-name="ccedilla" unicode="&#xe7;" horiz-adv-x="513" 
d="M279 -237c-22 0 -41.333 6.50195 -58 19.502s-28.334 28.833 -35.001 47.5l42 18c4 -11.333 10.333 -21 19 -29s19.334 -12 32.001 -12c15.333 0 27.666 4.83301 36.999 14.5s14 22.167 14 37.5c0 14.667 -4.5 27.167 -13.5 37.5s-21.167 15.5 -36.5 15.5
c-17.333 0 -31.333 -7 -42 -21l-36 17l30 80c-30 4.66699 -57.333 14.5 -82 29.5s-45.834 33.833 -63.501 56.5s-31.5 48.5 -41.5 77.5s-15 60.167 -15 93.5c0 37.333 6.16699 71.833 18.5 103.5s29.333 59.167 51 82.5s47.5 41.666 77.5 54.999s62.667 20 98 20
c27.333 0 52.166 -3.5 74.499 -10.5s42.333 -16.833 60 -29.5s32.834 -27.334 45.501 -44.001s23 -35 31 -55l-57 -25c-14.667 34 -35 60.167 -61 78.5s-58 27.5 -96 27.5c-22.667 0 -44.667 -4.83301 -66 -14.5s-40.333 -23.334 -57 -41.001s-30 -39 -40 -64
s-15 -52.833 -15 -83.5s5 -58.5 15 -83.5s23.333 -46.333 40 -64s35.667 -31.334 57 -41.001s43.333 -14.5 66 -14.5c38 0 70.333 9.16699 97 27.5s47.334 44.5 62.001 78.5l57 -24c-8.66699 -20 -19.5 -38.5 -32.5 -55.5s-28.167 -31.667 -45.5 -44
s-37.333 -22.166 -60 -29.499s-47.667 -11 -75 -11l-17 -38c3.33301 2 7.5 3.83301 12.5 5.5s11.167 2.5 18.5 2.5c24.667 0 45.834 -8.83301 63.501 -26.5s26.5 -40.5 26.5 -68.5c0 -13.333 -2.5 -25.666 -7.5 -36.999s-12 -21.5 -21 -30.5s-19.5 -16 -31.5 -21
s-25.333 -7.5 -40 -7.5z" />
    <glyph glyph-name="egrave" unicode="&#xe8;" horiz-adv-x="528" 
d="M489 116c-8.66699 -18 -19.6631 -35.0029 -32.9961 -51.0029s-28.833 -30 -46.5 -42s-37.834 -21.5 -60.501 -28.5s-47.667 -10.5 -75 -10.5c-35.333 0 -68 6.5 -98 19.5s-55.833 31.167 -77.5 54.5s-38.5 50.833 -50.5 82.5s-18 66.5 -18 104.5
c0 35.333 5.5 68.833 16.5 100.5s26.833 59.334 47.5 83.001s45.667 42.5 75 56.5s62.333 21 99 21c35.333 0 67.166 -6.16699 95.499 -18.5s52.5 -29.666 72.5 -51.999s35.5 -49.166 46.5 -80.499s16.5 -66 16.5 -104v-6c-0.666992 -2 -1 -3.66699 -1 -5v-6h-403
c0.666992 -34 6.66699 -63 18 -87s25.666 -43.833 42.999 -59.5s36.666 -27.167 57.999 -34.5s42 -11 62 -11c41.333 0 74 9.5 98 28.5s44 43.167 60 72.5zM432.004 287.997c-0.666992 16 -4.00098 33.333 -10.001 52s-15.333 36 -28 52s-29.5 29.333 -50.5 40
s-46.833 16 -77.5 16c-20 0 -39.333 -3.5 -58 -10.5s-35.5 -17.167 -50.5 -30.5s-27.667 -30 -38 -50s-17.166 -43 -20.499 -69h333zM238.003 591.997l-67 124h73l52 -124h-58z" />
    <glyph glyph-name="eacute" unicode="&#xe9;" horiz-adv-x="528" 
d="M230 592l52 124h73l-67 -124h-58zM489 116c-8.66699 -18 -19.6631 -35.0029 -32.9961 -51.0029s-28.833 -30 -46.5 -42s-37.834 -21.5 -60.501 -28.5s-47.667 -10.5 -75 -10.5c-35.333 0 -68 6.5 -98 19.5s-55.833 31.167 -77.5 54.5s-38.5 50.833 -50.5 82.5
s-18 66.5 -18 104.5c0 35.333 5.5 68.833 16.5 100.5s26.833 59.334 47.5 83.001s45.667 42.5 75 56.5s62.333 21 99 21c35.333 0 67.166 -6.16699 95.499 -18.5s52.5 -29.666 72.5 -51.999s35.5 -49.166 46.5 -80.499s16.5 -66 16.5 -104v-6
c-0.666992 -2 -1 -3.66699 -1 -5v-6h-403c0.666992 -34 6.66699 -63 18 -87s25.666 -43.833 42.999 -59.5s36.666 -27.167 57.999 -34.5s42 -11 62 -11c41.333 0 74 9.5 98 28.5s44 43.167 60 72.5zM432.004 287.997c-0.666992 16 -4.00098 33.333 -10.001 52
s-15.333 36 -28 52s-29.5 29.333 -50.5 40s-46.833 16 -77.5 16c-20 0 -39.333 -3.5 -58 -10.5s-35.5 -17.167 -50.5 -30.5s-27.667 -30 -38 -50s-17.166 -43 -20.499 -69h333z" />
    <glyph glyph-name="ecircumflex" unicode="&#xea;" horiz-adv-x="528" 
d="M138 593l100 114h59l101 -114v-5h-64l-62 72h-8l-63 -72h-63v5zM489 116c-8.66699 -18 -19.6631 -35.0029 -32.9961 -51.0029s-28.833 -30 -46.5 -42s-37.834 -21.5 -60.501 -28.5s-47.667 -10.5 -75 -10.5c-35.333 0 -68 6.5 -98 19.5s-55.833 31.167 -77.5 54.5
s-38.5 50.833 -50.5 82.5s-18 66.5 -18 104.5c0 35.333 5.5 68.833 16.5 100.5s26.833 59.334 47.5 83.001s45.667 42.5 75 56.5s62.333 21 99 21c35.333 0 67.166 -6.16699 95.499 -18.5s52.5 -29.666 72.5 -51.999s35.5 -49.166 46.5 -80.499s16.5 -66 16.5 -104v-6
c-0.666992 -2 -1 -3.66699 -1 -5v-6h-403c0.666992 -34 6.66699 -63 18 -87s25.666 -43.833 42.999 -59.5s36.666 -27.167 57.999 -34.5s42 -11 62 -11c41.333 0 74 9.5 98 28.5s44 43.167 60 72.5zM432.004 287.997c-0.666992 16 -4.00098 33.333 -10.001 52
s-15.333 36 -28 52s-29.5 29.333 -50.5 40s-46.833 16 -77.5 16c-20 0 -39.333 -3.5 -58 -10.5s-35.5 -17.167 -50.5 -30.5s-27.667 -30 -38 -50s-17.166 -43 -20.499 -69h333z" />
    <glyph glyph-name="edieresis" unicode="&#xeb;" horiz-adv-x="528" 
d="M340 615c-12 0 -22.5 4.33301 -31.5 13s-13.5 19 -13.5 31c0 13.333 4.5 24.166 13.5 32.499s19.5 12.5 31.5 12.5c12.667 0 23.167 -4.16699 31.5 -12.5s12.5 -19.166 12.5 -32.499c0 -12 -4.16699 -22.333 -12.5 -31s-18.833 -13 -31.5 -13zM186 615
c-12 0 -22.5 4.33301 -31.5 13s-13.5 19 -13.5 31c0 13.333 4.5 24.166 13.5 32.499s19.5 12.5 31.5 12.5c12.667 0 23.167 -4.16699 31.5 -12.5s12.5 -19.166 12.5 -32.499c0 -12 -4.16699 -22.333 -12.5 -31s-18.833 -13 -31.5 -13zM489 116
c-8.66699 -18 -19.6631 -35.0029 -32.9961 -51.0029s-28.833 -30 -46.5 -42s-37.834 -21.5 -60.501 -28.5s-47.667 -10.5 -75 -10.5c-35.333 0 -68 6.5 -98 19.5s-55.833 31.167 -77.5 54.5s-38.5 50.833 -50.5 82.5s-18 66.5 -18 104.5c0 35.333 5.5 68.833 16.5 100.5
s26.833 59.334 47.5 83.001s45.667 42.5 75 56.5s62.333 21 99 21c35.333 0 67.166 -6.16699 95.499 -18.5s52.5 -29.666 72.5 -51.999s35.5 -49.166 46.5 -80.499s16.5 -66 16.5 -104v-6c-0.666992 -2 -1 -3.66699 -1 -5v-6h-403c0.666992 -34 6.66699 -63 18 -87
s25.666 -43.833 42.999 -59.5s36.666 -27.167 57.999 -34.5s42 -11 62 -11c41.333 0 74 9.5 98 28.5s44 43.167 60 72.5zM432.004 287.997c-0.666992 16 -4.00098 33.333 -10.001 52s-15.333 36 -28 52s-29.5 29.333 -50.5 40s-46.833 16 -77.5 16
c-20 0 -39.333 -3.5 -58 -10.5s-35.5 -17.167 -50.5 -30.5s-27.667 -30 -38 -50s-17.166 -43 -20.499 -69h333z" />
    <glyph glyph-name="igrave" unicode="&#xec;" horiz-adv-x="195" 
d="M66 0v490h64v-490h-64zM71 592l-67 124h73l52 -124h-58z" />
    <glyph glyph-name="iacute" unicode="&#xed;" horiz-adv-x="195" 
d="M69 592l52 124h73l-67 -124h-58zM66 0v490h64v-490h-64z" />
    <glyph glyph-name="icircumflex" unicode="&#xee;" horiz-adv-x="195" 
d="M-31 602l100 114h59l101 -114v-5h-64l-62 72h-8l-63 -72h-63v5zM66 0v490h64v-490h-64z" />
    <glyph glyph-name="idieresis" unicode="&#xef;" horiz-adv-x="195" 
d="M36 615c-12 0 -22.5 4.33301 -31.5 13s-13.5 19 -13.5 31c0 13.333 4.5 24.166 13.5 32.499s19.5 12.5 31.5 12.5c12.667 0 23.167 -4.16699 31.5 -12.5s12.5 -19.166 12.5 -32.499c0 -12 -4.16699 -22.333 -12.5 -31s-18.833 -13 -31.5 -13zM160 615
c-12 0 -22.5 4.33301 -31.5 13s-13.5 19 -13.5 31c0 13.333 4.5 24.166 13.5 32.499s19.5 12.5 31.5 12.5c12.667 0 23.167 -4.16699 31.5 -12.5s12.5 -19.166 12.5 -32.499c0 -12 -4.16699 -22.333 -12.5 -31s-18.833 -13 -31.5 -13zM66 0v490h64v-490h-64z" />
    <glyph glyph-name="eth" unicode="&#xf0;" horiz-adv-x="568" 
d="M158 562l119 53.001c-21.333 12.667 -43 23.167 -65 31.5s-44.667 15.833 -68 22.5l22 55c66.667 -18.667 125 -45.667 175 -81l96 42l21 -50l-70 -31c91.333 -86 137 -200.333 137 -343c0 -40.667 -5.66699 -78 -17 -112s-27.5 -63.167 -48.5 -87.5
s-46.5 -43.333 -76.5 -57s-63.333 -20.5 -100 -20.5c-33.333 0 -64.5 6.33301 -93.5 19s-54.333 30.167 -76 52.5s-38.834 48.666 -51.501 78.999s-19 62.833 -19 97.5c0 36.667 6.5 70 19.5 100s30.333 55.5 52 76.5s46.5 37.167 74.5 48.5s57.333 17 88 17
c20.667 0 39.334 -2.33301 56.001 -7s31.5 -10.5 44.5 -17.5s24.167 -14.5 33.5 -22.5s17 -15.667 23 -23l6 3c-10 34 -24.833 65.667 -44.5 95s-42.167 54.333 -67.5 75l-149 -66zM283 44.001c24.667 0 47.667 4.5 69 13.5s40 21.833 56 38.5s28.667 36.334 38 59.001
s14 48 14 76c0 27.333 -4.83301 52.333 -14.5 75s-22.5 42.167 -38.5 58.5s-34.667 29 -56 38s-43.333 13.5 -66 13.5c-24.667 0 -47.667 -4.5 -69 -13.5s-40 -21.667 -56 -38s-28.667 -35.833 -38 -58.5s-14 -47.667 -14 -75c0 -28 4.66699 -53.333 14 -76
s22 -42.334 38 -59.001s34.5 -29.5 55.5 -38.5s43.5 -13.5 67.5 -13.5z" />
    <glyph glyph-name="ntilde" unicode="&#xf1;" horiz-adv-x="535" 
d="M120 398l3.99902 0.00195312c8 14.667 17.667 28.5 29 41.5s24.5 24.5 39.5 34.5s31.5 17.833 49.5 23.5s37.333 8.5 58 8.5c30 0 56.333 -4.83301 79 -14.5s41.5 -23.334 56.5 -41.001s26.167 -38.667 33.5 -63s11 -51.166 11 -80.499v-307h-64v296
c0 52.667 -11.667 91.167 -35 115.5s-56 36.5 -98 36.5c-23.333 0 -44.666 -5.16699 -63.999 -15.5s-36 -24.333 -50 -42s-25 -37.834 -33 -60.501s-12 -46.334 -12 -71.001v-259h-64v490h60v-92zM338.999 603.002c-13.333 0 -25.833 2.83203 -37.5 8.49902
s-22.5 11.834 -32.5 18.501l-29 18.5c-9.33301 5.66699 -18 8.5 -26 8.5c-26.667 0 -42 -14.667 -46 -44h-54c0 17.333 3.16699 32.5 9.5 45.5s14.166 23.667 23.499 32s20 14.5 32 18.5s23.667 6 35 6c13.333 0 25.833 -2.83301 37.5 -8.5s22.5 -11.5 32.5 -17.5l29 -18.5
c9.33301 -5.66699 18 -8.5 26 -8.5c26.667 0 41.667 14.333 45 43h54c0 -17.333 -3.16699 -32.5 -9.5 -45.5s-14.166 -23.667 -23.499 -32s-19.833 -14.5 -31.5 -18.5s-23.167 -6 -34.5 -6z" />
    <glyph glyph-name="ograve" unicode="&#xf2;" horiz-adv-x="554" 
d="M277 506c36 0 69.167 -6.66699 99.5 -20s56.5 -31.666 78.5 -54.999s39.167 -50.833 51.5 -82.5s18.5 -66.167 18.5 -103.5s-6.16699 -71.833 -18.5 -103.5s-29.5 -59.167 -51.5 -82.5s-48.167 -41.666 -78.5 -54.999s-63.5 -20 -99.5 -20
c-35.333 0 -68.166 6.66699 -98.499 20s-56.5 31.666 -78.5 54.999s-39.167 50.833 -51.5 82.5s-18.5 66.167 -18.5 103.5s6.16699 71.833 18.5 103.5s29.5 59.167 51.5 82.5s48.167 41.666 78.5 54.999s63.166 20 98.499 20zM277 42c24 0 47 4.83301 69 14.5
s41.5 23.334 58.5 41.001s30.667 39 41 64s15.5 52.833 15.5 83.5s-5.16699 58.5 -15.5 83.5s-24 46.333 -41 64s-36.5 31.334 -58.5 41.001s-45 14.5 -69 14.5s-47 -4.83301 -69 -14.5s-41.5 -23.334 -58.5 -41.001s-30.5 -39 -40.5 -64s-15 -52.833 -15 -83.5
s5 -58.5 15 -83.5s23.5 -46.333 40.5 -64s36.5 -31.334 58.5 -41.001s45 -14.5 69 -14.5zM241 592l-67 124h73l52 -124h-58z" />
    <glyph glyph-name="oacute" unicode="&#xf3;" horiz-adv-x="554" 
d="M246 592l52 124h73l-67 -124h-58zM277 506c36 0 69.167 -6.66699 99.5 -20s56.5 -31.666 78.5 -54.999s39.167 -50.833 51.5 -82.5s18.5 -66.167 18.5 -103.5s-6.16699 -71.833 -18.5 -103.5s-29.5 -59.167 -51.5 -82.5s-48.167 -41.666 -78.5 -54.999
s-63.5 -20 -99.5 -20c-35.333 0 -68.166 6.66699 -98.499 20s-56.5 31.666 -78.5 54.999s-39.167 50.833 -51.5 82.5s-18.5 66.167 -18.5 103.5s6.16699 71.833 18.5 103.5s29.5 59.167 51.5 82.5s48.167 41.666 78.5 54.999s63.166 20 98.499 20zM277 42
c24 0 47 4.83301 69 14.5s41.5 23.334 58.5 41.001s30.667 39 41 64s15.5 52.833 15.5 83.5s-5.16699 58.5 -15.5 83.5s-24 46.333 -41 64s-36.5 31.334 -58.5 41.001s-45 14.5 -69 14.5s-47 -4.83301 -69 -14.5s-41.5 -23.334 -58.5 -41.001s-30.5 -39 -40.5 -64
s-15 -52.833 -15 -83.5s5 -58.5 15 -83.5s23.5 -46.333 40.5 -64s36.5 -31.334 58.5 -41.001s45 -14.5 69 -14.5z" />
    <glyph glyph-name="ocircumflex" unicode="&#xf4;" horiz-adv-x="554" 
d="M148 602l100 114h59l101 -114v-5h-64l-62 72h-8l-63 -72h-63v5zM277 506c36 0 69.167 -6.66699 99.5 -20s56.5 -31.666 78.5 -54.999s39.167 -50.833 51.5 -82.5s18.5 -66.167 18.5 -103.5s-6.16699 -71.833 -18.5 -103.5s-29.5 -59.167 -51.5 -82.5
s-48.167 -41.666 -78.5 -54.999s-63.5 -20 -99.5 -20c-35.333 0 -68.166 6.66699 -98.499 20s-56.5 31.666 -78.5 54.999s-39.167 50.833 -51.5 82.5s-18.5 66.167 -18.5 103.5s6.16699 71.833 18.5 103.5s29.5 59.167 51.5 82.5s48.167 41.666 78.5 54.999
s63.166 20 98.499 20zM277 42c24 0 47 4.83301 69 14.5s41.5 23.334 58.5 41.001s30.667 39 41 64s15.5 52.833 15.5 83.5s-5.16699 58.5 -15.5 83.5s-24 46.333 -41 64s-36.5 31.334 -58.5 41.001s-45 14.5 -69 14.5s-47 -4.83301 -69 -14.5s-41.5 -23.334 -58.5 -41.001
s-30.5 -39 -40.5 -64s-15 -52.833 -15 -83.5s5 -58.5 15 -83.5s23.5 -46.333 40.5 -64s36.5 -31.334 58.5 -41.001s45 -14.5 69 -14.5z" />
    <glyph glyph-name="otilde" unicode="&#xf5;" horiz-adv-x="554" 
d="M277 506c36 0 69.167 -6.66699 99.5 -20s56.5 -31.666 78.5 -54.999s39.167 -50.833 51.5 -82.5s18.5 -66.167 18.5 -103.5s-6.16699 -71.833 -18.5 -103.5s-29.5 -59.167 -51.5 -82.5s-48.167 -41.666 -78.5 -54.999s-63.5 -20 -99.5 -20
c-35.333 0 -68.166 6.66699 -98.499 20s-56.5 31.666 -78.5 54.999s-39.167 50.833 -51.5 82.5s-18.5 66.167 -18.5 103.5s6.16699 71.833 18.5 103.5s29.5 59.167 51.5 82.5s48.167 41.666 78.5 54.999s63.166 20 98.499 20zM277 42c24 0 47 4.83301 69 14.5
s41.5 23.334 58.5 41.001s30.667 39 41 64s15.5 52.833 15.5 83.5s-5.16699 58.5 -15.5 83.5s-24 46.333 -41 64s-36.5 31.334 -58.5 41.001s-45 14.5 -69 14.5s-47 -4.83301 -69 -14.5s-41.5 -23.334 -58.5 -41.001s-30.5 -39 -40.5 -64s-15 -52.833 -15 -83.5
s5 -58.5 15 -83.5s23.5 -46.333 40.5 -64s36.5 -31.334 58.5 -41.001s45 -14.5 69 -14.5zM340 603c-13.333 0 -25.833 2.83203 -37.5 8.49902s-22.5 11.834 -32.5 18.501l-29 18.5c-9.33301 5.66699 -18 8.5 -26 8.5c-26.667 0 -42 -14.667 -46 -44h-54
c0 17.333 3.16699 32.5 9.5 45.5s14.166 23.667 23.499 32s20 14.5 32 18.5s23.667 6 35 6c13.333 0 25.833 -2.83301 37.5 -8.5s22.5 -11.5 32.5 -17.5l29 -18.5c9.33301 -5.66699 18 -8.5 26 -8.5c26.667 0 41.667 14.333 45 43h54c0 -17.333 -3.16699 -32.5 -9.5 -45.5
s-14.166 -23.667 -23.499 -32s-19.833 -14.5 -31.5 -18.5s-23.167 -6 -34.5 -6z" />
    <glyph glyph-name="odieresis" unicode="&#xf6;" horiz-adv-x="554" 
d="M355 615c-12 0 -22.5 4.33301 -31.5 13s-13.5 19 -13.5 31c0 13.333 4.5 24.166 13.5 32.499s19.5 12.5 31.5 12.5c12.667 0 23.167 -4.16699 31.5 -12.5s12.5 -19.166 12.5 -32.499c0 -12 -4.16699 -22.333 -12.5 -31s-18.833 -13 -31.5 -13zM201 615
c-12 0 -22.5 4.33301 -31.5 13s-13.5 19 -13.5 31c0 13.333 4.5 24.166 13.5 32.499s19.5 12.5 31.5 12.5c12.667 0 23.167 -4.16699 31.5 -12.5s12.5 -19.166 12.5 -32.499c0 -12 -4.16699 -22.333 -12.5 -31s-18.833 -13 -31.5 -13zM277 506
c36 0 69.167 -6.66699 99.5 -20s56.5 -31.666 78.5 -54.999s39.167 -50.833 51.5 -82.5s18.5 -66.167 18.5 -103.5s-6.16699 -71.833 -18.5 -103.5s-29.5 -59.167 -51.5 -82.5s-48.167 -41.666 -78.5 -54.999s-63.5 -20 -99.5 -20c-35.333 0 -68.166 6.66699 -98.499 20
s-56.5 31.666 -78.5 54.999s-39.167 50.833 -51.5 82.5s-18.5 66.167 -18.5 103.5s6.16699 71.833 18.5 103.5s29.5 59.167 51.5 82.5s48.167 41.666 78.5 54.999s63.166 20 98.499 20zM277 42c24 0 47 4.83301 69 14.5s41.5 23.334 58.5 41.001s30.667 39 41 64
s15.5 52.833 15.5 83.5s-5.16699 58.5 -15.5 83.5s-24 46.333 -41 64s-36.5 31.334 -58.5 41.001s-45 14.5 -69 14.5s-47 -4.83301 -69 -14.5s-41.5 -23.334 -58.5 -41.001s-30.5 -39 -40.5 -64s-15 -52.833 -15 -83.5s5 -58.5 15 -83.5s23.5 -46.333 40.5 -64
s36.5 -31.334 58.5 -41.001s45 -14.5 69 -14.5z" />
    <glyph glyph-name="divide" unicode="&#xf7;" horiz-adv-x="544" 
d="M60 244v54h425v-54h-425zM272 20c-14.667 0 -26.834 5 -36.501 15s-14.5 22.333 -14.5 37s4.83301 26.834 14.5 36.501s21.834 14.5 36.501 14.5s27 -4.83301 37 -14.5s15 -21.834 15 -36.501s-5 -27 -15 -37s-22.333 -15 -37 -15zM272 419
c-14.667 0 -26.834 5 -36.501 15s-14.5 22.333 -14.5 37s4.83301 26.834 14.5 36.501s21.834 14.5 36.501 14.5s27 -4.83301 37 -14.5s15 -21.834 15 -36.501s-5 -27 -15 -37s-22.333 -15 -37 -15z" />
    <glyph glyph-name="oslash" unicode="&#xf8;" horiz-adv-x="554" 
d="M277 506c42 0 80.668 -9.33398 116.001 -28.001l27 43l44 -27l-28 -45c28 -23.333 49.833 -52.666 65.5 -87.999s23.5 -74 23.5 -116c0 -37.333 -6.16699 -71.833 -18.5 -103.5s-29.5 -59.167 -51.5 -82.5s-48.167 -41.666 -78.5 -54.999s-63.5 -20 -99.5 -20
c-21.333 0 -41.5 2.33301 -60.5 7s-36.833 11.334 -53.5 20.001l-25 -40l-45 25l27 44c-28 23.333 -50 52.666 -66 87.999s-24 74.333 -24 117c0 37.333 6.16699 71.833 18.5 103.5s29.5 59.167 51.5 82.5s48.167 41.666 78.5 54.999s63.166 20 98.499 20zM94.001 244.999
c0 -32 5.5 -60.832 16.5 -86.499s25.5 -47.167 43.5 -64.5l207 332c-27.333 14.667 -55.333 22 -84 22c-24 0 -47 -4.83301 -69 -14.5s-41.5 -23.334 -58.5 -41.001s-30.5 -39 -40.5 -64s-15 -52.833 -15 -83.5zM277.001 42c24 0 47 4.83203 69 14.499
s41.5 23.334 58.5 41.001s30.667 39 41 64s15.5 52.833 15.5 83.5c0 32 -5.33301 60.5 -16 85.5s-25 46.5 -43 64.5l-207 -332c26 -14 53.333 -21 82 -21z" />
    <glyph glyph-name="ugrave" unicode="&#xf9;" horiz-adv-x="535" 
d="M416 92h-3.99902c-8 -14.667 -17.667 -28.5 -29 -41.5s-24.5 -24.5 -39.5 -34.5s-31.667 -17.833 -50 -23.5s-37.833 -8.5 -58.5 -8.5c-30 0 -56.333 4.83301 -79 14.5s-41.334 23.334 -56.001 41.001s-25.667 38.667 -33 63s-11 51.166 -11 80.499v307h64v-296
c0 -52 11.5 -90.333 34.5 -115s55.5 -37 97.5 -37c23.333 0 44.833 5.33301 64.5 16s36.5 24.667 50.5 42s25 37.5 33 60.5s12 46.833 12 71.5v258h64v-490h-60v92zM244.001 592l-67 124h73l52 -124h-58z" />
    <glyph glyph-name="uacute" unicode="&#xfa;" horiz-adv-x="535" 
d="M232 592l52 124h73l-67 -124h-58zM416 92h-3.99902c-8 -14.667 -17.667 -28.5 -29 -41.5s-24.5 -24.5 -39.5 -34.5s-31.667 -17.833 -50 -23.5s-37.833 -8.5 -58.5 -8.5c-30 0 -56.333 4.83301 -79 14.5s-41.334 23.334 -56.001 41.001s-25.667 38.667 -33 63
s-11 51.166 -11 80.499v307h64v-296c0 -52 11.5 -90.333 34.5 -115s55.5 -37 97.5 -37c23.333 0 44.833 5.33301 64.5 16s36.5 24.667 50.5 42s25 37.5 33 60.5s12 46.833 12 71.5v258h64v-490h-60v92z" />
    <glyph glyph-name="ucircumflex" unicode="&#xfb;" horiz-adv-x="535" 
d="M138 587l100 114h59l101 -114v-5h-64l-62 72h-8l-63 -72h-63v5zM416 92h-3.99902c-8 -14.667 -17.667 -28.5 -29 -41.5s-24.5 -24.5 -39.5 -34.5s-31.667 -17.833 -50 -23.5s-37.833 -8.5 -58.5 -8.5c-30 0 -56.333 4.83301 -79 14.5s-41.334 23.334 -56.001 41.001
s-25.667 38.667 -33 63s-11 51.166 -11 80.499v307h64v-296c0 -52 11.5 -90.333 34.5 -115s55.5 -37 97.5 -37c23.333 0 44.833 5.33301 64.5 16s36.5 24.667 50.5 42s25 37.5 33 60.5s12 46.833 12 71.5v258h64v-490h-60v92z" />
    <glyph glyph-name="udieresis" unicode="&#xfc;" horiz-adv-x="535" 
d="M347 615c-12 0 -22.5 4.33301 -31.5 13s-13.5 19 -13.5 31c0 13.333 4.5 24.166 13.5 32.499s19.5 12.5 31.5 12.5c12.667 0 23.167 -4.16699 31.5 -12.5s12.5 -19.166 12.5 -32.499c0 -12 -4.16699 -22.333 -12.5 -31s-18.833 -13 -31.5 -13zM193 615
c-12 0 -22.5 4.33301 -31.5 13s-13.5 19 -13.5 31c0 13.333 4.5 24.166 13.5 32.499s19.5 12.5 31.5 12.5c12.667 0 23.167 -4.16699 31.5 -12.5s12.5 -19.166 12.5 -32.499c0 -12 -4.16699 -22.333 -12.5 -31s-18.833 -13 -31.5 -13zM416 92h-3.99902
c-8 -14.667 -17.667 -28.5 -29 -41.5s-24.5 -24.5 -39.5 -34.5s-31.667 -17.833 -50 -23.5s-37.833 -8.5 -58.5 -8.5c-30 0 -56.333 4.83301 -79 14.5s-41.334 23.334 -56.001 41.001s-25.667 38.667 -33 63s-11 51.166 -11 80.499v307h64v-296
c0 -52 11.5 -90.333 34.5 -115s55.5 -37 97.5 -37c23.333 0 44.833 5.33301 64.5 16s36.5 24.667 50.5 42s25 37.5 33 60.5s12 46.833 12 71.5v258h64v-490h-60v92z" />
    <glyph glyph-name="yacute" unicode="&#xfd;" horiz-adv-x="478" 
d="M98 -216l113 252l-206 454h71l166 -378h2l159 378h70l-309 -706h-66zM213 592l52 124h73l-67 -124h-58z" />
    <glyph glyph-name="thorn" unicode="&#xfe;" horiz-adv-x="569" 
d="M309 -16c-23.333 0 -44.666 2.83789 -63.999 8.50488s-36.666 13.167 -51.999 22.5s-28.666 20.166 -39.999 32.499s-21 25.166 -29 38.499h-4l4 -68v-234h-64v932h64v-243l-4 -68h4c8 13.333 17.667 26.166 29 38.499s24.666 23.166 39.999 32.499
s32.666 16.666 51.999 21.999s40.666 8 63.999 8c31.333 0 61 -6.5 89 -19.5s52.5 -31 73.5 -54s37.667 -50.5 50 -82.5s18.5 -67 18.5 -105s-6.16699 -73 -18.5 -105s-29 -59.5 -50 -82.5s-45.5 -41 -73.5 -54s-57.667 -19.5 -89 -19.5zM298 42.0049
c23.333 0 45.833 4.66895 67.5 14.002s40.667 22.666 57 39.999s29.333 38.666 39 63.999s14.5 53.666 14.5 84.999s-4.83301 59.5 -14.5 84.5s-22.667 46.333 -39 64s-35.333 31.167 -57 40.5s-44.167 14 -67.5 14s-45.833 -4.5 -67.5 -13.5s-40.667 -22.167 -57 -39.5
s-29.333 -38.666 -39 -63.999s-14.5 -54 -14.5 -86s4.83301 -60.5 14.5 -85.5s22.667 -46.333 39 -64s35.333 -31 57 -40s44.167 -13.5 67.5 -13.5z" />
    <glyph glyph-name="ydieresis" unicode="&#xff;" horiz-adv-x="478" 
d="M98 -216l113 252l-206 454h71l166 -378h2l159 378h70l-309 -706h-66zM319 615c-12 0 -22.5 4.33301 -31.5 13s-13.5 19 -13.5 31c0 13.333 4.5 24.166 13.5 32.499s19.5 12.5 31.5 12.5c12.667 0 23.167 -4.16699 31.5 -12.5s12.5 -19.166 12.5 -32.499
c0 -12 -4.16699 -22.333 -12.5 -31s-18.833 -13 -31.5 -13zM165 615c-12 0 -22.5 4.33301 -31.5 13s-13.5 19 -13.5 31c0 13.333 4.5 24.166 13.5 32.499s19.5 12.5 31.5 12.5c12.667 0 23.167 -4.16699 31.5 -12.5s12.5 -19.166 12.5 -32.499
c0 -12 -4.16699 -22.333 -12.5 -31s-18.833 -13 -31.5 -13z" />
    <glyph glyph-name="dotlessi" unicode="&#x131;" horiz-adv-x="195" 
d="M66 0v490h64v-490h-64z" />
    <glyph glyph-name="OE" unicode="&#x152;" horiz-adv-x="1164" 
d="M769 655l-0.000976562 -266.997h308v-60h-308v-267h340v-61h-404v152c-30 -50 -71 -90.5 -123 -121.5s-111 -46.5 -177 -46.5c-52.667 0 -101.334 9.83301 -146.001 29.5s-83.167 46.5 -115.5 80.5s-57.666 73.667 -75.999 119s-27.5 93.666 -27.5 144.999
s9.16699 99.666 27.5 144.999s43.666 85 75.999 119s70.833 60.833 115.5 80.5s93.334 29.5 146.001 29.5c66.667 0 125.834 -15.333 177.501 -46s92.5 -71.334 122.5 -122.001v152h404v-61h-340zM404.999 45.0029c40.667 0 79.334 7.66699 116.001 23
s68.5 36.833 95.5 64.5s48.5 60.667 64.5 99s24 80.5 24 126.5s-8 88.167 -24 126.5s-37.5 71.333 -64.5 99s-58.833 49.167 -95.5 64.5s-75.334 23 -116.001 23c-41.333 0 -80.166 -7.66699 -116.499 -23s-68.166 -36.833 -95.499 -64.5s-48.833 -60.667 -64.5 -99
s-23.5 -80.5 -23.5 -126.5s7.83301 -88.167 23.5 -126.5s37.167 -71.333 64.5 -99s59.166 -49.167 95.499 -64.5s75.166 -23 116.499 -23z" />
    <glyph glyph-name="oe" unicode="&#x153;" horiz-adv-x="961" 
d="M707 -16c-49.333 0 -92.4971 11.998 -129.497 35.998s-65.167 57 -84.5 99c-19.333 -41.333 -47.833 -74.166 -85.5 -98.499s-81.167 -36.5 -130.5 -36.5c-35.333 0 -68.166 6.66699 -98.499 20s-56.5 31.666 -78.5 54.999s-39.167 50.833 -51.5 82.5
s-18.5 66.167 -18.5 103.5s6.16699 71.833 18.5 103.5s29.5 59.167 51.5 82.5s48.167 41.666 78.5 54.999s63.166 20 98.499 20c49.333 0 92.833 -12.167 130.5 -36.5s66.167 -57.166 85.5 -98.499c18.667 40 45.667 72.5 81 97.5s77.666 37.5 126.999 37.5
c35.333 0 67.166 -6.16699 95.499 -18.5s52.5 -29.666 72.5 -51.999s35.5 -49.166 46.5 -80.499s16.5 -66 16.5 -104v-6c-0.666992 -2 -1 -3.66699 -1 -5v-6h-404c0.666992 -34 6.66699 -63 18 -87s25.833 -43.833 43.5 -59.5s37.167 -27.167 58.5 -34.5s42 -11 62 -11
c41.333 0 74 9.5 98 28.5s44 43.167 60 72.5l55 -27c-8.66699 -18 -19.667 -35 -33 -51s-28.833 -30 -46.5 -42s-37.834 -21.5 -60.501 -28.5s-47.667 -10.5 -75 -10.5zM277.003 41.998c24 0 47 4.83301 69 14.5s41.5 23.334 58.5 41.001s30.667 39 41 64
s15.5 52.833 15.5 83.5s-5.16699 58.5 -15.5 83.5s-24 46.333 -41 64s-36.5 31.334 -58.5 41.001s-45 14.5 -69 14.5s-47 -4.83301 -69 -14.5s-41.5 -23.334 -58.5 -41.001s-30.5 -39 -40.5 -64s-15 -52.833 -15 -83.5s5 -58.5 15 -83.5s23.5 -46.333 40.5 -64
s36.5 -31.334 58.5 -41.001s45 -14.5 69 -14.5zM865.003 287.998c-0.666992 16 -4.00195 33.333 -10.002 52s-15.333 36 -28 52s-29.5 29.333 -50.5 40s-46.833 16 -77.5 16c-20 0 -39.333 -3.5 -58 -10.5s-35.667 -17.167 -51 -30.5s-28.166 -30 -38.499 -50
s-17.166 -43 -20.499 -69h334z" />
    <glyph glyph-name="circumflex" unicode="&#x2c6;" horiz-adv-x="381" 
d="M61 602l100 114h59l101 -114v-5h-64l-62 72h-8l-63 -72h-63v5z" />
    <glyph glyph-name="ring" unicode="&#x2da;" horiz-adv-x="409" 
d="M205 570c-14 0 -27.334 2.66602 -40.001 7.99902s-23.5 12.666 -32.5 21.999s-16.167 20.166 -21.5 32.499s-8 25.5 -8 39.5c0 28.667 9.83301 52.834 29.5 72.501s43.834 29.5 72.501 29.5c14 0 27.167 -2.66699 39.5 -8s23.166 -12.5 32.499 -21.5
s16.666 -19.833 21.999 -32.5s8 -26 8 -40s-2.66699 -27.167 -8 -39.5s-12.666 -23.166 -21.999 -32.499s-20.166 -16.666 -32.499 -21.999s-25.5 -8 -39.5 -8zM204.999 615.999c15.333 0 28.333 5.33301 39 16s16 24 16 40s-5.33301 29.333 -16 40s-23.667 16 -39 16
s-28.333 -5.33301 -39 -16s-16 -24 -16 -40s5.33301 -29.333 16 -40s23.667 -16 39 -16z" />
    <glyph glyph-name="tilde" unicode="&#x2dc;" horiz-adv-x="392" 
d="M259 602c-13.333 0 -25.833 2.83203 -37.5 8.49902s-22.5 11.834 -32.5 18.501l-29 18.5c-9.33301 5.66699 -18 8.5 -26 8.5c-26.667 0 -42 -14.667 -46 -44h-54c0 17.333 3.16699 32.5 9.5 45.5s14.166 23.667 23.499 32s20 14.5 32 18.5s23.667 6 35 6
c13.333 0 25.833 -2.83301 37.5 -8.5s22.5 -11.5 32.5 -17.5l29 -18.5c9.33301 -5.66699 18 -8.5 26 -8.5c26.667 0 41.667 14.333 45 43h54c0 -17.333 -3.16699 -32.5 -9.5 -45.5s-14.166 -23.667 -23.499 -32s-19.833 -14.5 -31.5 -18.5s-23.167 -6 -34.5 -6z" />
    <glyph glyph-name="endash" unicode="&#x2013;" horiz-adv-x="585" 
d="M60 337h466v-54h-466v54z" />
    <glyph glyph-name="emdash" unicode="&#x2014;" horiz-adv-x="884" 
d="M60 337h765v-54h-765v54z" />
    <glyph glyph-name="quoteleft" unicode="&#x2018;" horiz-adv-x="216" 
d="M165 711l-45.999 -70c8.66699 -2 16.667 -7.16699 24 -15.5s11 -18.5 11 -30.5c0 -14.667 -4.83301 -27 -14.5 -37s-21.834 -15 -36.501 -15s-27 5 -37 15s-15 22.333 -15 37c0 9.33301 2 17.833 6 25.5s8.66699 15.5 14 23.5l61 88z" />
    <glyph glyph-name="quoteright" unicode="&#x2019;" horiz-adv-x="216" 
d="M51 565l45.999 69c-8.66699 2.66699 -16.667 8 -24 16s-11 18.333 -11 31c0 14.667 4.83301 26.834 14.5 36.501s21.834 14.5 36.501 14.5s27 -4.83301 37 -14.5s15 -21.834 15 -36.501c0 -9.33301 -2 -18 -6 -26s-8.66699 -16 -14 -24l-61 -88z" />
    <glyph glyph-name="quotesinglbase" unicode="&#x201a;" horiz-adv-x="216" 
d="M51 -68l45.999 69c-8.66699 2.66699 -16.667 8 -24 16s-11 18.333 -11 31c0 14.667 4.83301 26.834 14.5 36.501s21.834 14.5 36.501 14.5s27 -4.83301 37 -14.5s15 -21.834 15 -36.501c0 -9.33301 -2 -18 -6 -26s-8.66699 -16 -14 -24l-61 -88z" />
    <glyph glyph-name="quotedblleft" unicode="&#x201c;" horiz-adv-x="364" 
d="M165 711l-45.999 -70c8.66699 -2 16.667 -7.16699 24 -15.5s11 -18.5 11 -30.5c0 -14.667 -4.83301 -27 -14.5 -37s-21.834 -15 -36.501 -15s-27 5 -37 15s-15 22.333 -15 37c0 9.33301 2 17.833 6 25.5s8.66699 15.5 14 23.5l61 88zM313.001 711l-45.999 -70
c8.66699 -2 16.667 -7.16699 24 -15.5s11 -18.5 11 -30.5c0 -14.667 -4.83301 -27 -14.5 -37s-21.834 -15 -36.501 -15s-27 5 -37 15s-15 22.333 -15 37c0 9.33301 2 17.833 6 25.5s8.66699 15.5 14 23.5l61 88z" />
    <glyph glyph-name="quotedblright" unicode="&#x201d;" horiz-adv-x="364" 
d="M51 565l45.999 69c-8.66699 2.66699 -16.667 8 -24 16s-11 18.333 -11 31c0 14.667 4.83301 26.834 14.5 36.501s21.834 14.5 36.501 14.5s27 -4.83301 37 -14.5s15 -21.834 15 -36.501c0 -9.33301 -2 -18 -6 -26s-8.66699 -16 -14 -24l-61 -88zM198.999 565l45.999 69
c-8.66699 2.66699 -16.667 8 -24 16s-11 18.333 -11 31c0 14.667 4.83301 26.834 14.5 36.501s21.834 14.5 36.501 14.5s27 -4.83301 37 -14.5s15 -21.834 15 -36.501c0 -9.33301 -2 -18 -6 -26s-8.66699 -16 -14 -24l-61 -88z" />
    <glyph glyph-name="quotedblbase" unicode="&#x201e;" horiz-adv-x="364" 
d="M51 -68l45.999 69c-8.66699 2.66699 -16.667 8 -24 16s-11 18.333 -11 31c0 14.667 4.83301 26.834 14.5 36.501s21.834 14.5 36.501 14.5s27 -4.83301 37 -14.5s15 -21.834 15 -36.501c0 -9.33301 -2 -18 -6 -26s-8.66699 -16 -14 -24l-61 -88zM198.999 -68l45.999 69
c-8.66699 2.66699 -16.667 8 -24 16s-11 18.333 -11 31c0 14.667 4.83301 26.834 14.5 36.501s21.834 14.5 36.501 14.5s27 -4.83301 37 -14.5s15 -21.834 15 -36.501c0 -9.33301 -2 -18 -6 -26s-8.66699 -16 -14 -24l-61 -88z" />
    <glyph glyph-name="bullet" unicode="&#x2022;" horiz-adv-x="355" 
d="M178 232c-12.667 0 -24.667 2.33301 -36 7s-21.166 11.167 -29.499 19.5s-14.833 18.166 -19.5 29.499s-7 23.333 -7 36s2.33301 24.667 7 36s11.167 21.166 19.5 29.499s18.166 14.833 29.499 19.5s23.333 7 36 7s24.5 -2.33301 35.5 -7s20.667 -11.167 29 -19.5
s15 -18.166 20 -29.499s7.5 -23.333 7.5 -36s-2.5 -24.667 -7.5 -36s-11.667 -21.166 -20 -29.499s-18 -14.833 -29 -19.5s-22.833 -7 -35.5 -7z" />
    <glyph glyph-name="ellipsis" unicode="&#x2026;" horiz-adv-x="633" 
d="M103 -6c-14.667 0 -27 5 -37 15s-15 22.333 -15 37s5 26.834 15 36.501s22.333 14.5 37 14.5s26.834 -4.83301 36.501 -14.5s14.5 -21.834 14.5 -36.501s-4.83301 -27 -14.5 -37s-21.834 -15 -36.501 -15zM317 -6c-14.667 0 -27 5 -37 15s-15 22.333 -15 37
s5 26.834 15 36.501s22.333 14.5 37 14.5s26.834 -4.83301 36.501 -14.5s14.5 -21.834 14.5 -36.501s-4.83301 -27 -14.5 -37s-21.834 -15 -36.501 -15zM531 -6c-14.667 0 -27 5 -37 15s-15 22.333 -15 37s5 26.834 15 36.501s22.333 14.5 37 14.5
s26.834 -4.83301 36.501 -14.5s14.5 -21.834 14.5 -36.501s-4.83301 -27 -14.5 -37s-21.834 -15 -36.501 -15z" />
    <glyph glyph-name="guilsinglleft" unicode="&#x2039;" horiz-adv-x="340" 
d="M276 96l-39 -36l-194 211l194 211l39 -36l-163 -175z" />
    <glyph glyph-name="guilsinglright" unicode="&#x203a;" horiz-adv-x="340" 
d="M227 271l-163 175l39 36l195 -211l-195 -211l-39 36z" />
    <glyph glyph-name="fraction" unicode="&#x2044;" horiz-adv-x="181" 
d="M-164 25l467 695l42 -29l-466 -695z" />
    <glyph glyph-name="uni2074" unicode="&#x2074;" horiz-adv-x="334" 
d="M30 463l180 253h43v-241h52v-45h-52v-80h-51v80h-172v33zM202 475v154h-4l-109 -154h113z" />
    <glyph glyph-name="Euro" unicode="&#x20ac;" horiz-adv-x="619" 
d="M26 450l92.0029 0.000976562c10 38.667 25 73.5 45 104.5s43.833 57.167 71.5 78.5s58.5 37.833 92.5 49.5s69.667 17.5 107 17.5c27.333 0 53.666 -3.83301 78.999 -11.5s48 -18.167 68 -31.5l-30 -51c-19.333 11.333 -38.333 19.666 -57 24.999s-39 8 -61 8
c-27.333 0 -53.833 -4 -79.5 -12s-49.5 -19.833 -71.5 -35.5s-41.333 -35.334 -58 -59.001s-29.667 -51.167 -39 -82.5h239v-54h-250c-2.66699 -15.333 -4 -33.333 -4 -54s1.33301 -38.667 4 -54h250v-54h-239c9.33301 -31.333 22.666 -58.666 39.999 -81.999
s37 -42.833 59 -58.5s46.167 -27.5 72.5 -35.5s53.166 -12 80.499 -12c25.333 0 48 2.83301 68 8.5s40 14.5 60 26.5l29 -56c-22 -13.333 -46.5 -23.5 -73.5 -30.5s-55.167 -10.5 -84.5 -10.5c-38 0 -74 5.83301 -108 17.5s-65 28.167 -93 49.5s-52 47.5 -72 78.5
s-35 65.833 -45 104.5h-92v54h82c-2 16.667 -3 34.667 -3 54c0 18 1 36 3 54h-82v54z" />
    <glyph glyph-name="minus" unicode="&#x2212;" horiz-adv-x="544" 
d="M60 244v54h425v-54h-425z" />
    <glyph glyph-name="uni2215" unicode="&#x2215;" horiz-adv-x="415" 
d="M29 0l297 716h61l-297 -716h-61z" />
    <glyph glyph-name="Lslash" horiz-adv-x="557" 
d="M143 295l-68 -42l-30 47l98 62v354h64v-310l146 91l30 -48l-176 -110v-278h324v-61h-388v295z" />
    <glyph glyph-name="uniF8FF" horiz-adv-x="1000" 
d="M891 451c2.66699 -14 4.50195 -28.0039 5.50195 -42.0039s1.5 -28.667 1.5 -44c0 -59.333 -9.5 -113.833 -28.5 -163.5s-46 -92.5 -81 -128.5s-77 -64 -126 -84s-103.5 -30 -163.5 -30c-57.333 0 -111.333 10.833 -162 32.5s-94.834 51.334 -132.501 89.001
s-67.334 81.834 -89.001 132.501s-32.5 104.667 -32.5 162s10.833 111.333 32.5 162s51.334 94.834 89.001 132.501s81.834 67.334 132.501 89.001s104.667 32.5 162 32.5c56.667 0 108.167 -9.5 154.5 -28.5s87.5 -45.5 123.5 -79.5l-119 -120
c-43.333 41.333 -96.333 62 -159 62c-34 0 -66 -6.66699 -96 -20s-56 -31.333 -78 -54s-39.5 -49.167 -52.5 -79.5s-19.5 -62.5 -19.5 -96.5s6.5 -66.167 19.5 -96.5s30.5 -57 52.5 -80s48 -41.167 78 -54.5s62 -20 96 -20c30.667 0 58.667 4.16699 84 12.5
s47.666 19.833 66.999 34.5s35.166 32.167 47.499 52.5s20.833 42.5 25.5 66.5h-224v161h392z" />
    <glyph glyph-name="one.numerator" horiz-adv-x="230" 
d="M115 350v303l-71 -31l-18 41l112 53h28v-366h-51z" />
    <glyph glyph-name="two.numerator" horiz-adv-x="296" 
d="M27 350l0.000976562 45l136 136c14.667 15.333 26.667 29.333 36 42s14 27.667 14 45c0 16.667 -6 30.667 -18 42s-27.667 17 -47 17c-18 0 -33.833 -5.16699 -47.5 -15.5s-23.167 -27.5 -28.5 -51.5l-46 19c6.66699 30 21.167 53.333 43.5 70s47.5 25 75.5 25
c16 0 31.167 -2.5 45.5 -7.5s27 -12 38 -21s19.667 -20.167 26 -33.5s9.5 -28 9.5 -44c0 -12 -2 -23.5 -6 -34.5s-8.83301 -21 -14.5 -30s-11.834 -17.167 -18.501 -24.5l-19 -20l-112 -112h172v-47h-239z" />
    <glyph glyph-name="three.numerator" horiz-adv-x="319" 
d="M157 342c-14 0 -27.832 1.83496 -41.499 5.50195s-26.5 9.5 -38.5 17.5s-22.5 18.167 -31.5 30.5s-15.5 27.166 -19.5 44.499l46 18c6.66699 -24.667 17.5 -42.334 32.5 -53.001s32.5 -16 52.5 -16c22 0 40.167 6.33301 54.5 19s21.5 28.667 21.5 48
c0 20.667 -7.5 36.167 -22.5 46.5s-32.833 15.5 -53.5 15.5h-37v45h32c18 0 33.833 5.16699 47.5 15.5s20.5 24.5 20.5 42.5c0 17.333 -6.33301 31 -19 41s-27.667 15 -45 15c-20.667 0 -36.334 -5 -47.001 -15s-18.334 -21.667 -23.001 -35l-45 18
c8.66699 24 22.834 43.167 42.501 57.5s43.5 21.5 71.5 21.5c36 0 64.5 -9.66699 85.5 -29s31.5 -43.333 31.5 -72c0 -18.667 -5 -34.5 -15 -47.5s-21.667 -23.5 -35 -31.5c17.333 -8 32.166 -19 44.499 -33s18.5 -31.667 18.5 -53c0 -18 -3.5 -34.167 -10.5 -48.5
s-16.333 -26.5 -28 -36.5s-25.167 -17.667 -40.5 -23s-31.666 -8 -48.999 -8z" />
    <glyph glyph-name="four.numerator" horiz-adv-x="334" 
d="M30 463l180 253h43v-241h52v-45h-52v-80h-51v80h-172v33zM202 475v154h-4l-109 -154h113z" />
    <glyph glyph-name="r.alt" horiz-adv-x="328" 
d="M120 407l4 -0.000976562c12 30 30.667 53.667 56 71s54 26 86 26c8 0 14.5 -0.166992 19.5 -0.5s10.5 -1.16602 16.5 -2.49902v-64c-12.667 2.66699 -26.667 4 -42 4c-19.333 0 -37.333 -4.16699 -54 -12.5s-31 -19.833 -43 -34.5s-21.5 -32.167 -28.5 -52.5
s-10.5 -42.5 -10.5 -66.5v-275h-64v490h60v-83z" />
    <glyph glyph-name="uni03BC" horiz-adv-x="535" 
d="M416 0l-0.000976562 92h-4c-8 -14.667 -17.5 -28.5 -28.5 -41.5s-23.667 -24.5 -38 -34.5s-30.5 -17.833 -48.5 -23.5s-38 -8.5 -60 -8.5c-24 0 -46.167 5.83301 -66.5 17.5s-37.166 25.5 -50.499 41.5h-4l4 -73v-186h-64v706h64v-291c0 -52.667 12 -92 36 -118
s56 -39 96 -39c23.333 0 44.833 5.33301 64.5 16s36.5 24.667 50.5 42s25 37.5 33 60.5s12 46.833 12 71.5v258h64v-490h-60z" />
    <glyph glyph-name="uni2103" horiz-adv-x="971" 
d="M670 -16c-50 0 -96.4971 9.33203 -139.497 27.999s-80.333 44 -112 76s-56.334 69.833 -74.001 113.5s-26.5 90.5 -26.5 140.5s8.66699 96.833 26 140.5s41.5 81.5 72.5 113.5s67.667 57.333 110 76s88.166 28 137.499 28c54.667 0 102.667 -10.667 144 -32
s76 -49 104 -83l-44 -44c-26 33.333 -56.333 58 -91 74s-72.334 24 -113.001 24c-38.667 0 -75 -7.16699 -109 -21.5s-63.833 -34.5 -89.5 -60.5s-45.834 -57.167 -60.501 -93.5s-22 -76.833 -22 -121.5c0 -44 7.66699 -84.167 23 -120.5s36 -67.5 62 -93.5
s56.333 -46.167 91 -60.5s71.667 -21.5 111 -21.5c46 0 86.833 8.83301 122.5 26.5s67.834 43.5 96.501 77.5l44 -43c-30.667 -37.333 -68.667 -67.166 -114 -89.499s-95 -33.5 -149 -33.5zM163.003 441.999c-18 0 -34.833 3.33301 -50.5 10s-29.334 15.834 -41.001 27.501
s-20.834 25.334 -27.501 41.001s-10 32.5 -10 50.5s3.33301 35 10 51s15.834 29.667 27.501 41s25.334 20.333 41.001 27s32.5 10 50.5 10s34.833 -3.33301 50.5 -10s29.334 -15.667 41.001 -27s20.834 -25 27.501 -41s10 -33 10 -51s-3.33301 -34.833 -10 -50.5
s-15.834 -29.334 -27.501 -41.001s-25.334 -20.834 -41.001 -27.501s-32.5 -10 -50.5 -10zM163.003 488.999c22.667 0 41.5 8 56.5 24s22.5 35.333 22.5 58c0 23.333 -7.5 42.833 -22.5 58.5s-33.833 23.5 -56.5 23.5s-41.5 -7.83301 -56.5 -23.5s-22.5 -35.167 -22.5 -58.5
c0 -22.667 7.5 -42 22.5 -58s33.833 -24 56.5 -24z" />
    <glyph glyph-name="uni2109" horiz-adv-x="811" 
d="M386 0v684h391v-61h-327v-259h295v-60h-295v-304h-64zM163 442c-18 0 -34.833 3.33301 -50.5 10s-29.334 15.834 -41.001 27.501s-20.834 25.334 -27.501 41.001s-10 32.5 -10 50.5s3.33301 35 10 51s15.834 29.667 27.501 41s25.334 20.333 41.001 27s32.5 10 50.5 10
s34.833 -3.33301 50.5 -10s29.334 -15.667 41.001 -27s20.834 -25 27.501 -41s10 -33 10 -51s-3.33301 -34.833 -10 -50.5s-15.834 -29.334 -27.501 -41.001s-25.334 -20.834 -41.001 -27.501s-32.5 -10 -50.5 -10zM163 489c22.667 0 41.5 8 56.5 24s22.5 35.333 22.5 58
c0 23.333 -7.5 42.833 -22.5 58.5s-33.833 23.5 -56.5 23.5s-41.5 -7.83301 -56.5 -23.5s-22.5 -35.167 -22.5 -58.5c0 -22.667 7.5 -42 22.5 -58s33.833 -24 56.5 -24z" />
    <glyph glyph-name="uni2190" horiz-adv-x="1066" 
d="M205 283v-127l-154 154l154 154v-127h801v-54h-801z" />
    <glyph glyph-name="uni2191" horiz-adv-x="393" 
d="M224 -109h-54v764h-127l154 154l154 -154h-127v-764z" />
    <glyph glyph-name="uni2192" horiz-adv-x="1066" 
d="M60 283v54h801v127l154 -154l-154 -154v127h-801z" />
    <glyph glyph-name="uni2193" horiz-adv-x="393" 
d="M224 18h127l-154 -155l-154 155h127v763h54v-763z" />
    <glyph glyph-name="uni2196" horiz-adv-x="748" 
d="M745 40l-38 -38l-575 575l-89 -90v218h217l-89 -90z" />
    <glyph glyph-name="uni2197" horiz-adv-x="748" 
d="M577 615l-89 90h217v-218l-89 90l-575 -575l-38 38z" />
    <glyph glyph-name="uni2198" horiz-adv-x="748" 
d="M171 100l89 -90h-217v218l89 -90l575 575l38 -38z" />
    <glyph glyph-name="uni2199" horiz-adv-x="748" 
d="M3 675l38 38l575 -575l89 90v-218h-217l89 90z" />
    <glyph glyph-name="uni2639" 
d="M290 404c-13.333 0 -24.5 4.66699 -33.5 14s-13.5 20.666 -13.5 33.999s4.5 24.5 13.5 33.5s20.167 13.5 33.5 13.5s24.666 -4.5 33.999 -13.5s14 -20.167 14 -33.5s-4.66699 -24.666 -14 -33.999s-20.666 -14 -33.999 -14zM552 404c-13.333 0 -24.5 4.66699 -33.5 14
s-13.5 20.666 -13.5 33.999s4.5 24.5 13.5 33.5s20.167 13.5 33.5 13.5s24.666 -4.5 33.999 -13.5s14 -20.167 14 -33.5s-4.66699 -24.666 -14 -33.999s-20.666 -14 -33.999 -14zM421 -16c-51.333 0 -99.666 9.83301 -144.999 29.5s-85 46.5 -119 80.5
s-60.833 73.667 -80.5 119s-29.5 93.666 -29.5 144.999s9.83301 99.666 29.5 144.999s46.5 85 80.5 119s73.667 60.833 119 80.5s93.666 29.5 144.999 29.5s99.666 -9.83301 144.999 -29.5s85 -46.5 119 -80.5s60.833 -73.667 80.5 -119s29.5 -93.666 29.5 -144.999
s-9.83301 -99.666 -29.5 -144.999s-46.5 -85 -80.5 -119s-73.667 -60.833 -119 -80.5s-93.666 -29.5 -144.999 -29.5zM421 33c45.333 0 87.666 8.66699 126.999 26s73.666 40.666 102.999 69.999s52.5 63.833 69.5 103.5s25.5 81.5 25.5 125.5
c0 44.667 -8.5 86.667 -25.5 126s-40.167 73.833 -69.5 103.5s-63.666 53 -102.999 70s-81.666 25.5 -126.999 25.5c-44.667 0 -86.667 -8.5 -126 -25.5s-73.833 -40.333 -103.5 -70s-53 -64.167 -70 -103.5s-25.5 -81.333 -25.5 -126c0 -44 8.5 -85.833 25.5 -125.5
s40.333 -74.167 70 -103.5s64.167 -52.666 103.5 -69.999s81.333 -26 126 -26zM239 181c15.333 35.333 39.167 63.333 71.5 84s69.166 31 110.499 31c42 0 79 -10.333 111 -31s56 -48.667 72 -84l-50 -22c-12 25.333 -29.5 45.5 -52.5 60.5s-49.833 22.5 -80.5 22.5
c-30 0 -56.667 -7.5 -80 -22.5s-40.666 -35.167 -51.999 -60.5z" />
    <glyph glyph-name="uni263A" 
d="M552 404c-13.333 0 -24.5 4.66699 -33.5 14s-13.5 20.666 -13.5 33.999s4.5 24.5 13.5 33.5s20.167 13.5 33.5 13.5s24.666 -4.5 33.999 -13.5s14 -20.167 14 -33.5s-4.66699 -24.666 -14 -33.999s-20.666 -14 -33.999 -14zM290 404c-13.333 0 -24.5 4.66699 -33.5 14
s-13.5 20.666 -13.5 33.999s4.5 24.5 13.5 33.5s20.167 13.5 33.5 13.5s24.666 -4.5 33.999 -13.5s14 -20.167 14 -33.5s-4.66699 -24.666 -14 -33.999s-20.666 -14 -33.999 -14zM289 295c11.333 -26 28.665 -46.333 51.998 -61s50 -22 80 -22
c30.667 0 57.5 7.33301 80.5 22s40.5 35 52.5 61l50 -23c-16 -35.333 -40 -63.333 -72 -84s-69 -31 -111 -31c-41.333 0 -78.166 10.333 -110.499 31s-56.166 48.667 -71.499 84zM420.999 -16c-51.333 0 -99.666 9.83301 -144.999 29.5s-85 46.5 -119 80.5
s-60.833 73.667 -80.5 119s-29.5 93.666 -29.5 144.999s9.83301 99.666 29.5 144.999s46.5 85 80.5 119s73.667 60.833 119 80.5s93.666 29.5 144.999 29.5s99.666 -9.83301 144.999 -29.5s85 -46.5 119 -80.5s60.833 -73.667 80.5 -119s29.5 -93.666 29.5 -144.999
s-9.83301 -99.666 -29.5 -144.999s-46.5 -85 -80.5 -119s-73.667 -60.833 -119 -80.5s-93.666 -29.5 -144.999 -29.5zM420.999 33c45.333 0 87.666 8.66699 126.999 26s73.666 40.666 102.999 69.999s52.5 63.833 69.5 103.5s25.5 81.5 25.5 125.5
c0 44.667 -8.5 86.667 -25.5 126s-40.167 73.833 -69.5 103.5s-63.666 53 -102.999 70s-81.666 25.5 -126.999 25.5c-44.667 0 -86.667 -8.5 -126 -25.5s-73.833 -40.333 -103.5 -70s-53 -64.167 -70 -103.5s-25.5 -81.333 -25.5 -126c0 -44 8.5 -85.833 25.5 -125.5
s40.333 -74.167 70 -103.5s64.167 -52.666 103.5 -69.999s81.333 -26 126 -26z" />
    <glyph glyph-name="uni2780" 
d="M411 177v303l-71 -31l-18 41l112 53h28v-366h-51zM421 -16c-51.333 0 -99.666 9.83301 -144.999 29.5s-85 46.5 -119 80.5s-60.833 73.667 -80.5 119s-29.5 93.666 -29.5 144.999s9.83301 99.666 29.5 144.999s46.5 85 80.5 119s73.667 60.833 119 80.5
s93.666 29.5 144.999 29.5s99.666 -9.83301 144.999 -29.5s85 -46.5 119 -80.5s60.833 -73.667 80.5 -119s29.5 -93.666 29.5 -144.999s-9.83301 -99.666 -29.5 -144.999s-46.5 -85 -80.5 -119s-73.667 -60.833 -119 -80.5s-93.666 -29.5 -144.999 -29.5zM421 33
c45.333 0 87.666 8.66699 126.999 26s73.666 40.666 102.999 69.999s52.5 63.833 69.5 103.5s25.5 81.5 25.5 125.5c0 44.667 -8.5 86.667 -25.5 126s-40.167 73.833 -69.5 103.5s-63.666 53 -102.999 70s-81.666 25.5 -126.999 25.5c-44.667 0 -86.667 -8.5 -126 -25.5
s-73.833 -40.333 -103.5 -70s-53 -64.167 -70 -103.5s-25.5 -81.333 -25.5 -126c0 -44 8.5 -85.833 25.5 -125.5s40.333 -74.167 70 -103.5s64.167 -52.666 103.5 -69.999s81.333 -26 126 -26z" />
    <glyph glyph-name="uni2781" 
d="M302 177l0.00195312 45l64 64l46 47l25 25c14.667 15.333 26.667 29.333 36 42s14 27.667 14 45c0 16.667 -6 30.667 -18 42s-27.667 17 -47 17c-18 0 -33.667 -5.16699 -47 -15.5s-23 -27.5 -29 -51.5l-46 19c7.33301 30 22.166 53.333 44.499 70s47.5 25 75.5 25
c16 0 31.167 -2.5 45.5 -7.5s27 -12 38 -21s19.667 -20.167 26 -33.5s9.5 -28 9.5 -44c0 -12 -2 -23.5 -6 -34.5s-8.83301 -21 -14.5 -30s-11.834 -17.167 -18.501 -24.5l-19 -20l-65 -65l-48 -47h173v-47h-239zM421.002 -16c-51.333 0 -99.666 9.83301 -144.999 29.5
s-85 46.5 -119 80.5s-60.833 73.667 -80.5 119s-29.5 93.666 -29.5 144.999s9.83301 99.666 29.5 144.999s46.5 85 80.5 119s73.667 60.833 119 80.5s93.666 29.5 144.999 29.5s99.666 -9.83301 144.999 -29.5s85 -46.5 119 -80.5s60.833 -73.667 80.5 -119
s29.5 -93.666 29.5 -144.999s-9.83301 -99.666 -29.5 -144.999s-46.5 -85 -80.5 -119s-73.667 -60.833 -119 -80.5s-93.666 -29.5 -144.999 -29.5zM421.002 33c45.333 0 87.666 8.66699 126.999 26s73.666 40.666 102.999 69.999s52.5 63.833 69.5 103.5
s25.5 81.5 25.5 125.5c0 44.667 -8.5 86.667 -25.5 126s-40.167 73.833 -69.5 103.5s-63.666 53 -102.999 70s-81.666 25.5 -126.999 25.5c-44.667 0 -86.667 -8.5 -126 -25.5s-73.833 -40.333 -103.5 -70s-53 -64.167 -70 -103.5s-25.5 -81.333 -25.5 -126
c0 -44 8.5 -85.833 25.5 -125.5s40.333 -74.167 70 -103.5s64.167 -52.666 103.5 -69.999s81.333 -26 126 -26z" />
    <glyph glyph-name="uni2782" 
d="M419 169c-14 0 -27.835 1.83496 -41.502 5.50195s-26.5 9.5 -38.5 17.5s-22.5 18.167 -31.5 30.5s-15.5 27.166 -19.5 44.499l46 18c7.33301 -24.667 18.5 -42.334 33.5 -53.001s32.5 -16 52.5 -16c21.333 0 39.166 6.33301 53.499 19s21.5 28.667 21.5 48
c0 20.667 -7.5 36.167 -22.5 46.5s-32.5 15.5 -52.5 15.5h-38v45h33c18 0 33.667 5.16699 47 15.5s20 24.5 20 42.5c0 17.333 -6.16699 31 -18.5 41s-27.166 15 -44.499 15c-21.333 0 -37.166 -5 -47.499 -15s-18.166 -21.667 -23.499 -35l-45 18
c8.66699 24 23 43.167 43 57.5s44 21.5 72 21.5c35.333 0 63.5 -9.66699 84.5 -29s31.5 -43.333 31.5 -72c0 -18.667 -5 -34.5 -15 -47.5s-21.667 -23.5 -35 -31.5c17.333 -8 32.166 -19 44.499 -33s18.5 -31.667 18.5 -53c0 -18 -3.5 -34.167 -10.5 -48.5
s-16.333 -26.5 -28 -36.5s-25.167 -17.667 -40.5 -23s-31.666 -8 -48.999 -8zM420.998 -15.998c-51.333 0 -99.666 9.83301 -144.999 29.5s-85 46.5 -119 80.5s-60.833 73.667 -80.5 119s-29.5 93.666 -29.5 144.999s9.83301 99.666 29.5 144.999s46.5 85 80.5 119
s73.667 60.833 119 80.5s93.666 29.5 144.999 29.5s99.666 -9.83301 144.999 -29.5s85 -46.5 119 -80.5s60.833 -73.667 80.5 -119s29.5 -93.666 29.5 -144.999s-9.83301 -99.666 -29.5 -144.999s-46.5 -85 -80.5 -119s-73.667 -60.833 -119 -80.5
s-93.666 -29.5 -144.999 -29.5zM420.998 33.002c45.333 0 87.666 8.66699 126.999 26s73.666 40.666 102.999 69.999s52.5 63.833 69.5 103.5s25.5 81.5 25.5 125.5c0 44.667 -8.5 86.667 -25.5 126s-40.167 73.833 -69.5 103.5s-63.666 53 -102.999 70
s-81.666 25.5 -126.999 25.5c-44.667 0 -86.667 -8.5 -126 -25.5s-73.833 -40.333 -103.5 -70s-53 -64.167 -70 -103.5s-25.5 -81.333 -25.5 -126c0 -44 8.5 -85.833 25.5 -125.5s40.333 -74.167 70 -103.5s64.167 -52.666 103.5 -69.999s81.333 -26 126 -26z" />
    <glyph glyph-name="uni2783" 
d="M436 177v80h-173v33l180 253h44v-241h51v-45h-51v-80h-51zM436 456h-4l-110 -154h114v154zM421 -16c-51.333 0 -99.666 9.83301 -144.999 29.5s-85 46.5 -119 80.5s-60.833 73.667 -80.5 119s-29.5 93.666 -29.5 144.999s9.83301 99.666 29.5 144.999s46.5 85 80.5 119
s73.667 60.833 119 80.5s93.666 29.5 144.999 29.5s99.666 -9.83301 144.999 -29.5s85 -46.5 119 -80.5s60.833 -73.667 80.5 -119s29.5 -93.666 29.5 -144.999s-9.83301 -99.666 -29.5 -144.999s-46.5 -85 -80.5 -119s-73.667 -60.833 -119 -80.5
s-93.666 -29.5 -144.999 -29.5zM421 33c45.333 0 87.666 8.66699 126.999 26s73.666 40.666 102.999 69.999s52.5 63.833 69.5 103.5s25.5 81.5 25.5 125.5c0 44.667 -8.5 86.667 -25.5 126s-40.167 73.833 -69.5 103.5s-63.666 53 -102.999 70s-81.666 25.5 -126.999 25.5
c-44.667 0 -86.667 -8.5 -126 -25.5s-73.833 -40.333 -103.5 -70s-53 -64.167 -70 -103.5s-25.5 -81.333 -25.5 -126c0 -44 8.5 -85.833 25.5 -125.5s40.333 -74.167 70 -103.5s64.167 -52.666 103.5 -69.999s81.333 -26 126 -26z" />
    <glyph glyph-name="uni2784" 
d="M421 -16c-51.333 0 -99.666 9.83301 -144.999 29.5s-85 46.5 -119 80.5s-60.833 73.667 -80.5 119s-29.5 93.666 -29.5 144.999s9.83301 99.666 29.5 144.999s46.5 85 80.5 119s73.667 60.833 119 80.5s93.666 29.5 144.999 29.5s99.666 -9.83301 144.999 -29.5
s85 -46.5 119 -80.5s60.833 -73.667 80.5 -119s29.5 -93.666 29.5 -144.999s-9.83301 -99.666 -29.5 -144.999s-46.5 -85 -80.5 -119s-73.667 -60.833 -119 -80.5s-93.666 -29.5 -144.999 -29.5zM421 33c45.333 0 87.666 8.66699 126.999 26s73.666 40.666 102.999 69.999
s52.5 63.833 69.5 103.5s25.5 81.5 25.5 125.5c0 44.667 -8.5 86.667 -25.5 126s-40.167 73.833 -69.5 103.5s-63.666 53 -102.999 70s-81.666 25.5 -126.999 25.5c-44.667 0 -86.667 -8.5 -126 -25.5s-73.833 -40.333 -103.5 -70s-53 -64.167 -70 -103.5
s-25.5 -81.333 -25.5 -126c0 -44 8.5 -85.833 25.5 -125.5s40.333 -74.167 70 -103.5s64.167 -52.666 103.5 -69.999s81.333 -26 126 -26zM422 169c-13.333 0 -26.8291 1.66895 -40.4961 5.00195s-26.334 8.66602 -38.001 15.999s-22 16.666 -31 27.999
s-15.833 25.333 -20.5 42l48 19c5.33301 -20.667 15.166 -36.334 29.499 -47.001s32.166 -16 53.499 -16c22 0 40.333 7.66699 55 23s22 34.666 22 57.999c0 24 -7.5 43.5 -22.5 58.5s-33.5 22.5 -55.5 22.5c-28.667 0 -53.667 -14.333 -75 -43l-43 18l25 189h201v-45h-158
l-14 -101c8 7.33301 18.167 13.333 30.5 18s25.833 7 40.5 7c17.333 0 33.5 -3 48.5 -9s28 -14.5 39 -25.5s19.667 -24.167 26 -39.5s9.5 -32.333 9.5 -51s-3.5 -35.667 -10.5 -51s-16.333 -28.666 -28 -39.999s-25.334 -20.166 -41.001 -26.499s-32.5 -9.5 -50.5 -9.5z" />
    <glyph glyph-name="uni2785" 
d="M421 -16c-51.333 0 -99.666 9.83301 -144.999 29.5s-85 46.5 -119 80.5s-60.833 73.667 -80.5 119s-29.5 93.666 -29.5 144.999s9.83301 99.666 29.5 144.999s46.5 85 80.5 119s73.667 60.833 119 80.5s93.666 29.5 144.999 29.5s99.666 -9.83301 144.999 -29.5
s85 -46.5 119 -80.5s60.833 -73.667 80.5 -119s29.5 -93.666 29.5 -144.999s-9.83301 -99.666 -29.5 -144.999s-46.5 -85 -80.5 -119s-73.667 -60.833 -119 -80.5s-93.666 -29.5 -144.999 -29.5zM421 33c45.333 0 87.666 8.66699 126.999 26s73.666 40.666 102.999 69.999
s52.5 63.833 69.5 103.5s25.5 81.5 25.5 125.5c0 44.667 -8.5 86.667 -25.5 126s-40.167 73.833 -69.5 103.5s-63.666 53 -102.999 70s-81.666 25.5 -126.999 25.5c-44.667 0 -86.667 -8.5 -126 -25.5s-73.833 -40.333 -103.5 -70s-53 -64.167 -70 -103.5
s-25.5 -81.333 -25.5 -126c0 -44 8.5 -85.833 25.5 -125.5s40.333 -74.167 70 -103.5s64.167 -52.666 103.5 -69.999s81.333 -26 126 -26zM417 169c-18.667 0 -35.8291 3.33301 -51.4961 10s-29.334 15.667 -41.001 27s-20.834 24.666 -27.501 39.999s-10 31.666 -10 48.999
c0 20.667 4.16699 40.167 12.5 58.5s19.166 36.833 32.499 55.5l27 38l36 50l45 62l40 -28l-96 -123c10.667 7.33301 24.667 11 42 11s33.333 -3.5 48 -10.5s27.5 -16.167 38.5 -27.5s19.5 -24.5 25.5 -39.5s9 -30.5 9 -46.5c0 -17.333 -3.5 -33.666 -10.5 -48.999
s-16.333 -28.666 -28 -39.999s-25.334 -20.333 -41.001 -27s-32.5 -10 -50.5 -10zM416.005 216c23.333 0 42.333 7.83301 57 23.5s22 34.167 22 55.5s-7.33301 39.833 -22 55.5s-33.667 23.5 -57 23.5c-22.667 0 -41.167 -7.83301 -55.5 -23.5s-21.5 -34.167 -21.5 -55.5
s7 -39.833 21 -55.5s32.667 -23.5 56 -23.5z" />
    <glyph glyph-name="uni2786" 
d="M421 -16c-51.333 0 -99.666 9.83301 -144.999 29.5s-85 46.5 -119 80.5s-60.833 73.667 -80.5 119s-29.5 93.666 -29.5 144.999s9.83301 99.666 29.5 144.999s46.5 85 80.5 119s73.667 60.833 119 80.5s93.666 29.5 144.999 29.5s99.666 -9.83301 144.999 -29.5
s85 -46.5 119 -80.5s60.833 -73.667 80.5 -119s29.5 -93.666 29.5 -144.999s-9.83301 -99.666 -29.5 -144.999s-46.5 -85 -80.5 -119s-73.667 -60.833 -119 -80.5s-93.666 -29.5 -144.999 -29.5zM421 33c45.333 0 87.666 8.66699 126.999 26s73.666 40.666 102.999 69.999
s52.5 63.833 69.5 103.5s25.5 81.5 25.5 125.5c0 44.667 -8.5 86.667 -25.5 126s-40.167 73.833 -69.5 103.5s-63.666 53 -102.999 70s-81.666 25.5 -126.999 25.5c-44.667 0 -86.667 -8.5 -126 -25.5s-73.833 -40.333 -103.5 -70s-53 -64.167 -70 -103.5
s-25.5 -81.333 -25.5 -126c0 -44 8.5 -85.833 25.5 -125.5s40.333 -74.167 70 -103.5s64.167 -52.666 103.5 -69.999s81.333 -26 126 -26zM329 186l165 310h-185v47h241v-43l-176 -338z" />
    <glyph glyph-name="uni2787" 
d="M421 -16c-51.333 0 -99.666 9.83301 -144.999 29.5s-85 46.5 -119 80.5s-60.833 73.667 -80.5 119s-29.5 93.666 -29.5 144.999s9.83301 99.666 29.5 144.999s46.5 85 80.5 119s73.667 60.833 119 80.5s93.666 29.5 144.999 29.5s99.666 -9.83301 144.999 -29.5
s85 -46.5 119 -80.5s60.833 -73.667 80.5 -119s29.5 -93.666 29.5 -144.999s-9.83301 -99.666 -29.5 -144.999s-46.5 -85 -80.5 -119s-73.667 -60.833 -119 -80.5s-93.666 -29.5 -144.999 -29.5zM421 33c45.333 0 87.666 8.66699 126.999 26s73.666 40.666 102.999 69.999
s52.5 63.833 69.5 103.5s25.5 81.5 25.5 125.5c0 44.667 -8.5 86.667 -25.5 126s-40.167 73.833 -69.5 103.5s-63.666 53 -102.999 70s-81.666 25.5 -126.999 25.5c-44.667 0 -86.667 -8.5 -126 -25.5s-73.833 -40.333 -103.5 -70s-53 -64.167 -70 -103.5
s-25.5 -81.333 -25.5 -126c0 -44 8.5 -85.833 25.5 -125.5s40.333 -74.167 70 -103.5s64.167 -52.666 103.5 -69.999s81.333 -26 126 -26zM421 169c-16.667 0 -32.833 2.66699 -48.5 8s-29.5 12.833 -41.5 22.5s-21.667 21.334 -29 35.001s-11 29.167 -11 46.5
c0 18 5 35 15 51s24.667 28.667 44 38c-13.333 7.33301 -24.5 17.833 -33.5 31.5s-13.5 28.5 -13.5 44.5s3.16699 30.333 9.5 43s15 23.667 26 33s23.5 16.5 37.5 21.5s29 7.5 45 7.5s31.167 -2.5 45.5 -7.5s27 -12.167 38 -21.5s19.667 -20.333 26 -33s9.5 -27 9.5 -43
c0 -15.333 -4.66699 -30 -14 -44s-20.666 -24.667 -33.999 -32c19.333 -9.33301 34.166 -22 44.499 -38s15.5 -33 15.5 -51c0 -17.333 -3.66699 -32.833 -11 -46.5s-17.166 -25.334 -29.499 -35.001s-26.333 -17.167 -42 -22.5s-31.834 -8 -48.501 -8zM421.001 390
c18.667 0 34.499 5.33105 47.499 15.998s19.5 24.334 19.5 41.001c0 16 -6.16699 29.5 -18.5 40.5s-28.5 16.5 -48.5 16.5s-36 -5.5 -48 -16.5s-18 -24.5 -18 -40.5c0 -17.333 6.33301 -31.166 19 -41.499s28.334 -15.5 47.001 -15.5zM421 215.998
c9.33301 0 18.666 1.5 27.999 4.5s17.833 7.5 25.5 13.5s13.834 13.167 18.501 21.5s7 17.5 7 27.5c0 9.33301 -2.33301 18 -7 26s-10.834 14.833 -18.501 20.5s-16.167 10.167 -25.5 13.5s-18.666 5 -27.999 5s-18.666 -1.5 -27.999 -4.5s-17.666 -7.33301 -24.999 -13
s-13.333 -12.5 -18 -20.5s-7 -17 -7 -27s2.16699 -19.167 6.5 -27.5s10.166 -15.5 17.499 -21.5s15.666 -10.5 24.999 -13.5s19 -4.5 29 -4.5z" />
    <glyph glyph-name="uni2788" 
d="M421 -16c-51.333 0 -99.666 9.83301 -144.999 29.5s-85 46.5 -119 80.5s-60.833 73.667 -80.5 119s-29.5 93.666 -29.5 144.999s9.83301 99.666 29.5 144.999s46.5 85 80.5 119s73.667 60.833 119 80.5s93.666 29.5 144.999 29.5s99.666 -9.83301 144.999 -29.5
s85 -46.5 119 -80.5s60.833 -73.667 80.5 -119s29.5 -93.666 29.5 -144.999s-9.83301 -99.666 -29.5 -144.999s-46.5 -85 -80.5 -119s-73.667 -60.833 -119 -80.5s-93.666 -29.5 -144.999 -29.5zM421 33c45.333 0 87.666 8.66699 126.999 26s73.666 40.666 102.999 69.999
s52.5 63.833 69.5 103.5s25.5 81.5 25.5 125.5c0 44.667 -8.5 86.667 -25.5 126s-40.167 73.833 -69.5 103.5s-63.666 53 -102.999 70s-81.666 25.5 -126.999 25.5c-44.667 0 -86.667 -8.5 -126 -25.5s-73.833 -40.333 -103.5 -70s-53 -64.167 -70 -103.5
s-25.5 -81.333 -25.5 -126c0 -44 8.5 -85.833 25.5 -125.5s40.333 -74.167 70 -103.5s64.167 -52.666 103.5 -69.999s81.333 -26 126 -26zM418 551c18.667 0 35.9961 -3.33008 51.9961 -9.99707s29.833 -15.667 41.5 -27s20.834 -24.5 27.501 -39.5s10 -31.167 10 -48.5
c0 -20.667 -4.16699 -40.334 -12.5 -59.001s-19.166 -37.334 -32.499 -56.001l-27.5 -38.5l-35.5 -49.5l-45 -62l-40 29l95 122c-5.33301 -3.33301 -11.666 -6 -18.999 -8s-14.666 -3 -21.999 -3c-17.333 0 -33.5 3.5 -48.5 10.5s-28 16.167 -39 27.5
s-19.5 24.666 -25.5 39.999s-9 31 -9 47c0 17.333 3.5 33.5 10.5 48.5s16.5 28.167 28.5 39.5s25.833 20.333 41.5 27s32.167 10 49.5 10zM418.996 504.003c-23.333 0 -42.333 -7.66699 -57 -23s-22 -34 -22 -56c0 -21.333 7.33301 -39.833 22 -55.5s33.667 -23.5 57 -23.5
s42.166 7.83301 56.499 23.5s21.5 34.167 21.5 55.5s-7.16699 39.833 -21.5 55.5s-33.166 23.5 -56.499 23.5z" />
    <glyph glyph-name="uni278A" 
d="M462 543h-28l-112 -53l18 -41l71 31v-303h51v366zM421 -16c-51.333 0 -99.666 9.83301 -144.999 29.5s-85 46.5 -119 80.5s-60.833 73.667 -80.5 119s-29.5 93.666 -29.5 144.999s9.83301 99.666 29.5 144.999s46.5 85 80.5 119s73.667 60.833 119 80.5
s93.666 29.5 144.999 29.5s99.666 -9.83301 144.999 -29.5s85 -46.5 119 -80.5s60.833 -73.667 80.5 -119s29.5 -93.666 29.5 -144.999s-9.83301 -99.666 -29.5 -144.999s-46.5 -85 -80.5 -119s-73.667 -60.833 -119 -80.5s-93.666 -29.5 -144.999 -29.5z" />
    <glyph glyph-name="uni278B" 
d="M541 224h-173.002l48 47l65 65l19 20c6.66699 7.33301 12.834 15.5 18.501 24.5s10.5 19 14.5 30s6 22.5 6 34.5c0 16 -3.16699 30.667 -9.5 44s-15 24.5 -26 33.5s-23.667 16 -38 21s-29.5 7.5 -45.5 7.5c-28 0 -53.167 -8.33301 -75.5 -25s-37.166 -40 -44.499 -70
l46 -19c6 24 15.667 41.167 29 51.5s29 15.5 47 15.5c19.333 0 35 -5.66699 47 -17s18 -25.333 18 -42c0 -17.333 -4.66699 -32.333 -14 -45s-21.333 -26.667 -36 -42l-25 -25l-46 -47l-64 -64v-45h239v47zM420.998 -16c-51.333 0 -99.666 9.83301 -144.999 29.5
s-85 46.5 -119 80.5s-60.833 73.667 -80.5 119s-29.5 93.666 -29.5 144.999s9.83301 99.666 29.5 144.999s46.5 85 80.5 119s73.667 60.833 119 80.5s93.666 29.5 144.999 29.5s99.666 -9.83301 144.999 -29.5s85 -46.5 119 -80.5s60.833 -73.667 80.5 -119
s29.5 -93.666 29.5 -144.999s-9.83301 -99.666 -29.5 -144.999s-46.5 -85 -80.5 -119s-73.667 -60.833 -119 -80.5s-93.666 -29.5 -144.999 -29.5z" />
    <glyph glyph-name="uni278C" 
d="M419 167c17.333 0 33.668 2.66504 49.001 7.99805s28.833 13 40.5 23s21 22.167 28 36.5s10.5 30.5 10.5 48.5c0 21.333 -6.16699 39 -18.5 53s-27.166 25 -44.499 33c13.333 8 25 18.5 35 31.5s15 28.833 15 47.5c0 28.667 -10.5 52.667 -31.5 72s-49.167 29 -84.5 29
c-28 0 -52 -7.16699 -72 -21.5s-34.333 -33.5 -43 -57.5l45 -18c5.33301 13.333 13.166 25 23.499 35s26.166 15 47.499 15c17.333 0 32.166 -5 44.499 -15s18.5 -23.667 18.5 -41c0 -18 -6.66699 -32.167 -20 -42.5s-29 -15.5 -47 -15.5h-33v-45h38
c20 0 37.5 -5.16699 52.5 -15.5s22.5 -25.5 22.5 -45.5s-7.16699 -36.333 -21.5 -49s-32.166 -19 -53.499 -19c-20 0 -37.5 5.33301 -52.5 16s-26.167 28.334 -33.5 53.001l-46 -18c4 -17.333 10.5 -32.166 19.5 -44.499s19.5 -22.5 31.5 -30.5s24.833 -13.833 38.5 -17.5
s27.5 -5.5 41.5 -5.5zM421.002 -16.002c-51.333 0 -99.666 9.83301 -144.999 29.5s-85 46.5 -119 80.5s-60.833 73.667 -80.5 119s-29.5 93.666 -29.5 144.999s9.83301 99.666 29.5 144.999s46.5 85 80.5 119s73.667 60.833 119 80.5s93.666 29.5 144.999 29.5
s99.666 -9.83301 144.999 -29.5s85 -46.5 119 -80.5s60.833 -73.667 80.5 -119s29.5 -93.666 29.5 -144.999s-9.83301 -99.666 -29.5 -144.999s-46.5 -85 -80.5 -119s-73.667 -60.833 -119 -80.5s-93.666 -29.5 -144.999 -29.5z" />
    <glyph glyph-name="uni278D" 
d="M487 257h51v45h-51v241h-44l-180 -253v-33h173v-80h51v80zM322 302l110 154h4v-154h-114zM421 -16c-51.333 0 -99.666 9.83301 -144.999 29.5s-85 46.5 -119 80.5s-60.833 73.667 -80.5 119s-29.5 93.666 -29.5 144.999s9.83301 99.666 29.5 144.999s46.5 85 80.5 119
s73.667 60.833 119 80.5s93.666 29.5 144.999 29.5s99.666 -9.83301 144.999 -29.5s85 -46.5 119 -80.5s60.833 -73.667 80.5 -119s29.5 -93.666 29.5 -144.999s-9.83301 -99.666 -29.5 -144.999s-46.5 -85 -80.5 -119s-73.667 -60.833 -119 -80.5
s-93.666 -29.5 -144.999 -29.5z" />
    <glyph glyph-name="uni278E" 
d="M421 -16c-51.333 0 -99.666 9.83301 -144.999 29.5s-85 46.5 -119 80.5s-60.833 73.667 -80.5 119s-29.5 93.666 -29.5 144.999s9.83301 99.666 29.5 144.999s46.5 85 80.5 119s73.667 60.833 119 80.5s93.666 29.5 144.999 29.5s99.666 -9.83301 144.999 -29.5
s85 -46.5 119 -80.5s60.833 -73.667 80.5 -119s29.5 -93.666 29.5 -144.999s-9.83301 -99.666 -29.5 -144.999s-46.5 -85 -80.5 -119s-73.667 -60.833 -119 -80.5s-93.666 -29.5 -144.999 -29.5zM422 169c18 0 34.8291 3.16504 50.4961 9.49805s29.334 15.166 41.001 26.499
s21 24.666 28 39.999s10.5 32.333 10.5 51s-3.16699 35.667 -9.5 51s-15 28.5 -26 39.5s-24 19.5 -39 25.5s-31.167 9 -48.5 9c-14.667 0 -28.167 -2.33301 -40.5 -7s-22.5 -10.667 -30.5 -18l14 101h158v45h-201l-25 -189l43 -18c21.333 28.667 46.333 43 75 43
c22 0 40.5 -7.5 55.5 -22.5s22.5 -34.5 22.5 -58.5c0 -23.333 -7.33301 -42.666 -22 -57.999s-33 -23 -55 -23c-21.333 0 -39.166 5.33301 -53.499 16s-24.166 26.334 -29.499 47.001l-48 -19c4.66699 -16.667 11.5 -30.667 20.5 -42s19.333 -20.666 31 -27.999
s24.334 -12.666 38.001 -15.999s27.167 -5 40.5 -5z" />
    <glyph glyph-name="uni278F" 
d="M421 -16c-51.333 0 -99.666 9.83301 -144.999 29.5s-85 46.5 -119 80.5s-60.833 73.667 -80.5 119s-29.5 93.666 -29.5 144.999s9.83301 99.666 29.5 144.999s46.5 85 80.5 119s73.667 60.833 119 80.5s93.666 29.5 144.999 29.5s99.666 -9.83301 144.999 -29.5
s85 -46.5 119 -80.5s60.833 -73.667 80.5 -119s29.5 -93.666 29.5 -144.999s-9.83301 -99.666 -29.5 -144.999s-46.5 -85 -80.5 -119s-73.667 -60.833 -119 -80.5s-93.666 -29.5 -144.999 -29.5zM417 169c18 0 34.8281 3.33301 50.4951 10s29.334 15.667 41.001 27
s21 24.666 28 39.999s10.5 31.666 10.5 48.999c0 16 -3 31.5 -9 46.5s-14.5 28.167 -25.5 39.5s-23.833 20.5 -38.5 27.5s-30.667 10.5 -48 10.5s-31.333 -3.66699 -42 -11l96 123l-40 28l-45 -62l-36 -50l-27 -38c-13.333 -18.667 -24.166 -37.167 -32.499 -55.5
s-12.5 -37.833 -12.5 -58.5c0 -17.333 3.33301 -33.666 10 -48.999s15.834 -28.666 27.501 -39.999s25.334 -20.333 41.001 -27s32.834 -10 51.501 -10zM415.995 216c-23.333 0 -42 7.83301 -56 23.5s-21 34.167 -21 55.5s7.16699 39.833 21.5 55.5s32.833 23.5 55.5 23.5
c23.333 0 42.333 -7.83301 57 -23.5s22 -34.167 22 -55.5s-7.33301 -39.833 -22 -55.5s-33.667 -23.5 -57 -23.5z" />
    <glyph glyph-name="uni2790" 
d="M421 -16c-51.333 0 -99.666 9.83301 -144.999 29.5s-85 46.5 -119 80.5s-60.833 73.667 -80.5 119s-29.5 93.666 -29.5 144.999s9.83301 99.666 29.5 144.999s46.5 85 80.5 119s73.667 60.833 119 80.5s93.666 29.5 144.999 29.5s99.666 -9.83301 144.999 -29.5
s85 -46.5 119 -80.5s60.833 -73.667 80.5 -119s29.5 -93.666 29.5 -144.999s-9.83301 -99.666 -29.5 -144.999s-46.5 -85 -80.5 -119s-73.667 -60.833 -119 -80.5s-93.666 -29.5 -144.999 -29.5zM374 162l176 338v43h-241v-47h185l-165 -310z" />
    <glyph glyph-name="uni2791" 
d="M421 -16c-51.333 0 -99.666 9.83301 -144.999 29.5s-85 46.5 -119 80.5s-60.833 73.667 -80.5 119s-29.5 93.666 -29.5 144.999s9.83301 99.666 29.5 144.999s46.5 85 80.5 119s73.667 60.833 119 80.5s93.666 29.5 144.999 29.5s99.666 -9.83301 144.999 -29.5
s85 -46.5 119 -80.5s60.833 -73.667 80.5 -119s29.5 -93.666 29.5 -144.999s-9.83301 -99.666 -29.5 -144.999s-46.5 -85 -80.5 -119s-73.667 -60.833 -119 -80.5s-93.666 -29.5 -144.999 -29.5zM421 169c16.667 0 32.833 2.66699 48.5 8s29.667 12.833 42 22.5
s22.166 21.334 29.499 35.001s11 29.167 11 46.5c0 18 -5.16699 35 -15.5 51s-25.166 28.667 -44.499 38c13.333 7.33301 24.666 18 33.999 32s14 28.667 14 44c0 16 -3.16699 30.333 -9.5 43s-15 23.667 -26 33s-23.667 16.5 -38 21.5s-29.5 7.5 -45.5 7.5
s-31 -2.5 -45 -7.5s-26.5 -12.167 -37.5 -21.5s-19.667 -20.333 -26 -33s-9.5 -27 -9.5 -43s4.5 -30.833 13.5 -44.5s20.167 -24.167 33.5 -31.5c-19.333 -9.33301 -34 -22 -44 -38s-15 -33 -15 -51c0 -17.333 3.66699 -32.833 11 -46.5s17 -25.334 29 -35.001
s25.833 -17.167 41.5 -22.5s31.834 -8 48.501 -8zM420.999 390c-18.667 0 -34.333 5.16895 -47 15.502s-19 24.166 -19 41.499c0 16 6 29.5 18 40.5s28 16.5 48 16.5s36.167 -5.5 48.5 -16.5s18.5 -24.5 18.5 -40.5c0 -16.667 -6.5 -30.334 -19.5 -41.001
s-28.833 -16 -47.5 -16zM421 216.002c-10 0 -19.667 1.5 -29 4.5s-17.666 7.5 -24.999 13.5s-13.166 13.167 -17.499 21.5s-6.5 17.5 -6.5 27.5s2.33301 19 7 27s10.667 14.833 18 20.5s15.666 10 24.999 13s18.666 4.5 27.999 4.5s18.666 -1.66699 27.999 -5
s17.833 -7.83301 25.5 -13.5s13.834 -12.5 18.501 -20.5s7 -16.667 7 -26c0 -10 -2.33301 -19.167 -7 -27.5s-10.834 -15.5 -18.501 -21.5s-16.167 -10.5 -25.5 -13.5s-18.666 -4.5 -27.999 -4.5z" />
    <glyph glyph-name="uni2792" 
d="M421 -16c-51.333 0 -99.666 9.83301 -144.999 29.5s-85 46.5 -119 80.5s-60.833 73.667 -80.5 119s-29.5 93.666 -29.5 144.999s9.83301 99.666 29.5 144.999s46.5 85 80.5 119s73.667 60.833 119 80.5s93.666 29.5 144.999 29.5s99.666 -9.83301 144.999 -29.5
s85 -46.5 119 -80.5s60.833 -73.667 80.5 -119s29.5 -93.666 29.5 -144.999s-9.83301 -99.666 -29.5 -144.999s-46.5 -85 -80.5 -119s-73.667 -60.833 -119 -80.5s-93.666 -29.5 -144.999 -29.5zM418 551c-17.333 0 -33.8291 -3.33594 -49.4961 -10.0029
s-29.5 -15.667 -41.5 -27s-21.5 -24.5 -28.5 -39.5s-10.5 -31.167 -10.5 -48.5c0 -16 3 -31.667 9 -47s14.5 -28.666 25.5 -39.999s24 -20.5 39 -27.5s31.167 -10.5 48.5 -10.5c7.33301 0 14.666 1 21.999 3s13.666 4.66699 18.999 8l-95 -122l40 -29l45 62l35.5 49.5
l27.5 38.5c13.333 18.667 24.166 37.334 32.499 56.001s12.5 38.334 12.5 59.001c0 17.333 -3.33301 33.5 -10 48.5s-15.834 28.167 -27.501 39.5s-25.5 20.333 -41.5 27s-33.333 10 -52 10zM419.004 503.997c23.333 0 42.166 -7.83301 56.499 -23.5
s21.5 -34.167 21.5 -55.5s-7.16699 -39.833 -21.5 -55.5s-33.166 -23.5 -56.499 -23.5s-42.333 7.83301 -57 23.5s-22 34.167 -22 55.5c0 22 7.33301 40.667 22 56s33.667 23 57 23z" />
    <glyph glyph-name="Google.logo" horiz-adv-x="3284" 
d="M460 -16c-56.667 0 -110.171 10.8311 -160.504 32.498s-94.5 51 -132.5 88s-68 80.333 -90 130s-33 102.834 -33 159.501s11 109.834 33 159.501s52 93 90 130s82.167 66.333 132.5 88s103.833 32.5 160.5 32.5c62.667 0 116.834 -10.833 162.501 -32.5
s85.167 -48.5 118.5 -80.5l-79 -79c-24 22.667 -52.5 41.667 -85.5 57s-71.833 23 -116.5 23c-41.333 0 -79.833 -7.83301 -115.5 -23.5s-66.834 -37 -93.501 -64s-47.5 -58.5 -62.5 -94.5s-22.5 -74.667 -22.5 -116s7.5 -80 22.5 -116s35.833 -67.5 62.5 -94.5
s57.834 -48.333 93.501 -64s74.167 -23.5 115.5 -23.5c26.667 0 50.667 2.5 72 7.5s40.333 11.333 57 19s31.334 16.334 44.001 26.001s24 19.5 34 29.5c32.667 32.667 53 79.667 61 141h-268v112h377c4 -20 6 -43.333 6 -70c0 -21.333 -1.66699 -43.333 -5 -66
s-8.66602 -45.5 -15.999 -68.5s-17.166 -45.333 -29.499 -67s-27.833 -41.834 -46.5 -60.501c-36 -38 -77.333 -66.667 -124 -86s-100.667 -29 -162 -29zM1148 -16.002c-36.667 0 -71 6.66699 -103 20s-60 31.666 -84 54.999s-43 51.166 -57 83.499s-21 67.5 -21 105.5
s7 73.167 21 105.5s33 60.333 57 84s52 42 84 55s66.333 19.5 103 19.5s71 -6.5 103 -19.5s60 -31.333 84 -55s43 -51.667 57 -84s21 -67.5 21 -105.5s-7 -73.167 -21 -105.5s-33 -60.166 -57 -83.499s-52 -41.666 -84 -54.999s-66.333 -20 -103 -20zM1148 87.998
c20 0 39 4 57 12s33.833 19 47.5 33s24.5 30.833 32.5 50.5s12 41.167 12 64.5c0 24 -4 45.833 -12 65.5s-18.833 36.5 -32.5 50.5s-29.5 24.833 -47.5 32.5s-37 11.5 -57 11.5s-39 -3.83301 -57 -11.5s-33.833 -18.5 -47.5 -32.5s-24.5 -30.833 -32.5 -50.5
s-12 -41.5 -12 -65.5c0 -23.333 4 -44.833 12 -64.5s18.833 -36.5 32.5 -50.5s29.5 -25 47.5 -33s37 -12 57 -12zM1726 -16.002c-36.667 0 -71 6.66699 -103 20s-60 31.666 -84 54.999s-43 51.166 -57 83.499s-21 67.5 -21 105.5s7 73.167 21 105.5s33 60.333 57 84
s52 42 84 55s66.333 19.5 103 19.5s71 -6.5 103 -19.5s60 -31.333 84 -55s43 -51.667 57 -84s21 -67.5 21 -105.5s-7 -73.167 -21 -105.5s-33 -60.166 -57 -83.499s-52 -41.666 -84 -54.999s-66.333 -20 -103 -20zM1726 87.998c20 0 39 4 57 12s33.833 19 47.5 33
s24.5 30.833 32.5 50.5s12 41.167 12 64.5c0 24 -4 45.833 -12 65.5s-18.833 36.5 -32.5 50.5s-29.5 24.833 -47.5 32.5s-37 11.5 -57 11.5s-39 -3.83301 -57 -11.5s-33.833 -18.5 -47.5 -32.5s-24.5 -30.833 -32.5 -50.5s-12 -41.5 -12 -65.5c0 -23.333 4 -44.833 12 -64.5
s18.833 -36.5 32.5 -50.5s29.5 -25 47.5 -33s37 -12 57 -12zM2294 -253.002c-32 0 -60.833 4.83301 -86.5 14.5s-48.167 22 -67.5 37s-35.666 31.833 -49 50.5c-13.333 18.667 -23.666 36.667 -31 54l101 42c4.66699 -10.667 10.834 -21.667 18.5 -33
c7.66699 -11.333 17 -21.5 28 -30.5s23.667 -16.333 38 -22s30.5 -8.5 48.5 -8.5c44 0 78.5 13.167 103.5 39.5s37.5 64.833 37.5 115.5v38h-4c-13.333 -16 -31.833 -30 -55.5 -42s-51.5 -18 -83.5 -18c-33.333 0 -65.166 6.83301 -95.5 20.5
c-30.333 13.667 -57.166 32.167 -80.5 55.5c-23.333 23.333 -42 51 -56 83s-21 66.667 -21 104s7 72.166 21 104.499s32.667 60.333 56 84s50.166 42.334 80.5 56.001c30.333 13.667 62.166 20.5 95.5 20.5c32 0 59.833 -6 83.5 -18s42.167 -25.667 55.5 -41h4v43h110v-474
c0 -48.667 -6.66699 -90.334 -20 -125.001s-31.5 -63.167 -54.5 -85.5s-49.667 -38.666 -80 -48.999s-62.5 -15.5 -96.5 -15.5zM2302 87.998c20 0 38.5 4 55.5 12s31.833 19 44.5 33s22.667 30.667 30 50s11 40.666 11 63.999s-3.66699 44.833 -11 64.5
s-17.333 36.667 -30 51s-27.5 25.5 -44.5 33.5s-35.5 12 -55.5 12s-38.833 -4 -56.5 -12s-33.334 -19.167 -47 -33.5c-13.667 -14.333 -24.334 -31.333 -32 -51c-7.66699 -19.667 -11.5 -41.167 -11.5 -64.5s3.83301 -44.666 11.5 -63.999s18.334 -36 32 -50
c13.667 -14 29.334 -25 47 -33c17.667 -8 36.5 -12 56.5 -12zM2741 -0.00195312h-116v776h116v-776zM3059 -16.002c-37.333 0 -72 6.83398 -104 20.501s-59.667 32.334 -83 56.001s-41.666 51.5 -55 83.5c-13.333 32 -20 66.667 -20 104c0 39.333 6.66699 75.166 20 107.499
s31.166 60.166 53.5 83.499c22.333 23.333 48.666 41.333 79 54c30.333 12.667 62.5 19 96.5 19s64 -6 90 -18s48.167 -26.667 66.5 -44s33.166 -35.666 44.5 -54.999c11.333 -19.333 19.666 -36.333 25 -51l12 -30l-353 -146c27.333 -53.333 70 -80 128 -80
c30 0 55.333 6.66699 76 20s38.667 31 54 53l90 -60c-7.33301 -10.667 -17.166 -22.834 -29.5 -36.501c-12.333 -13.667 -27.666 -26.5 -46 -38.5c-18.333 -12 -39.5 -22 -63.5 -30s-51 -12 -81 -12zM3148 353.999c-6.66699 16.667 -18.834 30.166 -36.5 40.499
c-17.667 10.333 -38.167 15.5 -61.5 15.5c-14.667 0 -30.334 -3.16699 -47 -9.5c-16.667 -6.33301 -31.834 -16 -45.5 -29c-13.667 -13 -24.834 -29.167 -33.5 -48.5c-8.66699 -19.333 -12.667 -41.666 -12 -66.999z" />
    <glyph glyph-name="G.logo" horiz-adv-x="861" 
d="M460 -16c-56.667 0 -110.171 10.8311 -160.504 32.498s-94.5 51 -132.5 88s-68 80.333 -90 130s-33 102.834 -33 159.501s11 109.834 33 159.501s52 93 90 130s82.167 66.333 132.5 88s103.833 32.5 160.5 32.5c62.667 0 116.834 -10.833 162.501 -32.5
s85.167 -48.5 118.5 -80.5l-79 -79c-24 22.667 -52.5 41.667 -85.5 57s-71.833 23 -116.5 23c-41.333 0 -79.833 -7.83301 -115.5 -23.5s-66.834 -37 -93.501 -64s-47.5 -58.5 -62.5 -94.5s-22.5 -74.667 -22.5 -116s7.5 -80 22.5 -116s35.833 -67.5 62.5 -94.5
s57.834 -48.333 93.501 -64s74.167 -23.5 115.5 -23.5c26.667 0 50.667 2.5 72 7.5s40.333 11.333 57 19s31.334 16.334 44.001 26.001s24 19.5 34 29.5c32.667 32.667 53 79.667 61 141h-268v112h377c4 -20 6 -43.333 6 -70c0 -21.333 -1.66699 -43.333 -5 -66
s-8.66602 -45.5 -15.999 -68.5s-17.166 -45.333 -29.499 -67s-27.833 -41.834 -46.5 -60.501c-36 -38 -77.333 -66.667 -124 -86s-100.667 -29 -162 -29z" />
    <glyph glyph-name="o.logo" horiz-adv-x="578" 
d="M287 -16c-36.667 0 -71 6.66699 -103 20s-60 31.666 -84 54.999s-43 51.166 -57 83.499s-21 67.5 -21 105.5s7 73.167 21 105.5s33 60.333 57 84s52 42 84 55s66.333 19.5 103 19.5s71 -6.5 103 -19.5s60 -31.333 84 -55s43 -51.667 57 -84s21 -67.5 21 -105.5
s-7 -73.167 -21 -105.5s-33 -60.166 -57 -83.499s-52 -41.666 -84 -54.999s-66.333 -20 -103 -20zM287 88c20 0 39 4 57 12s33.833 19 47.5 33s24.5 30.833 32.5 50.5s12 41.167 12 64.5c0 24 -4 45.833 -12 65.5s-18.833 36.5 -32.5 50.5s-29.5 24.833 -47.5 32.5
s-37 11.5 -57 11.5s-39 -3.83301 -57 -11.5s-33.833 -18.5 -47.5 -32.5s-24.5 -30.833 -32.5 -50.5s-12 -41.5 -12 -65.5c0 -23.333 4 -44.833 12 -64.5s18.833 -36.5 32.5 -50.5s29.5 -25 47.5 -33s37 -12 57 -12z" />
    <glyph glyph-name="g.logo" horiz-adv-x="566" 
d="M277 -253c-32 0 -60.8359 4.83301 -86.5029 14.5s-48.167 22 -67.5 37s-35.666 31.833 -48.999 50.5s-23.666 36.667 -30.999 54l101 42c4.66699 -10.667 10.834 -21.667 18.501 -33s17 -21.5 28 -30.5s23.667 -16.333 38 -22s30.5 -8.5 48.5 -8.5
c44 0 78.5 13.167 103.5 39.5s37.5 64.833 37.5 115.5v38h-4c-13.333 -16 -31.833 -30 -55.5 -42s-51.5 -18 -83.5 -18c-33.333 0 -65.166 6.83301 -95.499 20.5s-57.166 32.167 -80.499 55.5s-42 51 -56 83s-21 66.667 -21 104s7 72.166 21 104.499s32.667 60.333 56 84
s50.166 42.334 80.499 56.001s62.166 20.5 95.499 20.5c32 0 59.833 -6 83.5 -18s42.167 -25.667 55.5 -41h4v43h110v-474c0 -48.667 -6.66699 -90.334 -20 -125.001s-31.5 -63.167 -54.5 -85.5s-49.667 -38.666 -80 -48.999s-62.5 -15.5 -96.5 -15.5zM284.997 88
c20 0 38.5 4 55.5 12s31.833 19 44.5 33s22.667 30.667 30 50s11 40.666 11 63.999s-3.66699 44.833 -11 64.5s-17.333 36.667 -30 51s-27.5 25.5 -44.5 33.5s-35.5 12 -55.5 12s-38.833 -4 -56.5 -12s-33.334 -19.167 -47.001 -33.5s-24.334 -31.333 -32.001 -51
s-11.5 -41.167 -11.5 -64.5s3.83301 -44.666 11.5 -63.999s18.334 -36 32.001 -50s29.334 -25 47.001 -33s36.5 -12 56.5 -12z" />
    <glyph glyph-name="l.logo" horiz-adv-x="187" 
d="M158 0h-116v776h116v-776z" />
    <glyph glyph-name="e.logo" horiz-adv-x="514" 
d="M289 -16c-37.333 0 -71.999 6.83398 -103.999 20.501s-59.667 32.334 -83 56.001s-41.666 51.5 -54.999 83.5s-20 66.667 -20 104c0 39.333 6.66699 75.166 20 107.499s31.166 60.166 53.499 83.499s48.666 41.333 78.999 54s62.5 19 96.5 19s64 -6 90 -18
s48.167 -26.667 66.5 -44s33.166 -35.666 44.499 -54.999s19.666 -36.333 24.999 -51l12 -30l-353 -146c27.333 -53.333 70 -80 128 -80c30 0 55.333 6.66699 76 20s38.667 31 54 53l90 -60c-7.33301 -10.667 -17.166 -22.834 -29.499 -36.501s-27.666 -26.5 -45.999 -38.5
s-39.5 -22 -63.5 -30s-51 -12 -81 -12zM378.001 354.001c-6.66699 16.667 -18.8301 30.166 -36.4971 40.499s-38.167 15.5 -61.5 15.5c-14.667 0 -30.334 -3.16699 -47.001 -9.5s-31.834 -16 -45.501 -29s-24.834 -29.167 -33.501 -48.5s-12.667 -41.666 -12 -66.999z" />
    </font>
</defs>
</svg>
