<svg xmlns="http://www.w3.org/2000/svg" width="32.07" height="32.068" viewBox="0 0 32.07 32.068">
  <path id="facebook" d="M16-.034A16.034,16.034,0,1,0,32.035,16,16.053,16.053,0,0,0,16-.034Zm0,31A14.966,14.966,0,1,1,30.965,16,14.982,14.982,0,0,1,16,30.966ZM19.5,7H16.832C13.434,6.966,13,9.069,13,11.345V13H11.5a.445.445,0,0,0-.5.5v3a.445.445,0,0,0,.5.5H13v7.5a.449.449,0,0,0,.5.5h3.055a.386.386,0,0,0,.44-.5L17,17h2.5a.445.445,0,0,0,.5-.5v-3a.445.445,0,0,0-.5-.5H17l0-1.5c.1-.639.1-.535.69-.5h1.789c.139-.031.287-.014.391-.115A.4.4,0,0,0,20,10.5v-3a.444.444,0,0,0-.5-.5Zm-.535,2.944L17.711,9.9c-1.553,0-1.683.843-1.683,1.706l0,1.9a.538.538,0,0,0,.156.379.53.53,0,0,0,.378.156H19v1.932H16.56a.535.535,0,0,0-.535.534V24H14V16.5a.5.5,0,0,0-.5-.534H12V14.034h1.5a.534.534,0,0,0,.378-.156A.507.507,0,0,0,14,13.5V11.344c0-2.242.453-3.31,2.832-3.31h2.133v1.91Z" transform="translate(0.035 0.034)" fill="#c1c1c1"/>
</svg>
