<svg xmlns="http://www.w3.org/2000/svg" width="32.07" height="32.068" viewBox="0 0 32.07 32.068">
  <path id="twitter" d="M16-.034A16.034,16.034,0,1,0,32.035,16,16.053,16.053,0,0,0,16-.034Zm0,31A14.966,14.966,0,1,1,30.965,16,14.982,14.982,0,0,1,16,30.966Zm8.794-19.92a3.729,3.729,0,0,0,.273-.643.534.534,0,0,0-.781-.623,6.033,6.033,0,0,1-1.646.673,3.817,3.817,0,0,0-6.379,2.828c0,.053,0,.1,0,.158a8.821,8.821,0,0,1-5.735-3.178.534.534,0,0,0-.876.07,3.823,3.823,0,0,0-.066,3.721.628.628,0,0,0-.214.078.571.571,0,0,0-.264.481A3.826,3.826,0,0,0,10.428,17.5c-.012.011-.023.023-.035.035a.534.534,0,0,0-.108.518,3.816,3.816,0,0,0,2.184,2.365,6.134,6.134,0,0,1-3.406.579.545.545,0,0,0-.566.352.536.536,0,0,0,.215.63,9.869,9.869,0,0,0,15.193-8.314c0-.055,0-.109,0-.164a7.122,7.122,0,0,0,1.541-1.66.535.535,0,0,0-.651-.791ZM23.049,12.8a.535.535,0,0,0-.222.461c.006.132.009.266.009.4a8.8,8.8,0,0,1-11.691,8.317,7.073,7.073,0,0,0,3.045-1.39.534.534,0,0,0-.32-.955,2.752,2.752,0,0,1-2.194-1.162,3.834,3.834,0,0,0,.742-.124.535.535,0,0,0-.036-1.04A2.741,2.741,0,0,1,10.3,15.4a3.849,3.849,0,0,0,.812.115.55.55,0,0,0,.526-.371.533.533,0,0,0-.212-.607A2.746,2.746,0,0,1,10.2,12.251a2.794,2.794,0,0,1,.079-.658,9.883,9.883,0,0,0,6.568,2.972.544.544,0,0,0,.437-.191.536.536,0,0,0,.11-.464,2.784,2.784,0,0,1-.071-.627A2.749,2.749,0,0,1,22.081,11.4a.535.535,0,0,0,.494.159q.248-.049.489-.115a2.538,2.538,0,0,1-.226.151.534.534,0,0,0,.338.988l.182-.023C23.259,12.646,23.155,12.725,23.049,12.8Z" transform="translate(0.035 0.034)" fill="#c1c1c1"/>
</svg>
