<svg xmlns="http://www.w3.org/2000/svg" width="804.717" height="440.202" viewBox="0 0 804.717 440.202">
  <g id="undraw_fitting_piece_iilo" transform="translate(0 0)">
    <circle id="Ellipse_36" data-name="Ellipse 36" cx="94.627" cy="94.627" r="94.627" transform="translate(615.462 161.705)" fill="#f2f2f2"/>
    <circle id="Ellipse_37" data-name="Ellipse 37" cx="94.627" cy="94.627" r="94.627" transform="translate(600.076 147.857)" fill="#36f2b9"/>
    <rect id="Rectangle_125" data-name="Rectangle 125" width="121.871" height="1.442" transform="translate(550.631 438.413)" fill="#3f3d56"/>
    <path id="Path_2" data-name="Path 2" d="M719,547.8A117.707,117.707,0,1,1,836.707,665.509,117.841,117.841,0,0,1,719,547.8Zm1.539,0A116.168,116.168,0,1,0,836.707,431.634,116.3,116.3,0,0,0,720.539,547.8Z" transform="translate(-225.091 -225.308)" fill="#3f3d56"/>
    <path id="Path_3" data-name="Path 3" d="M595.642,285.838,77.885,208.9,77.5,613.187H749.893ZM215.594,435.857c-.26,0-.513-.025-.769-.039V466.63H131.738V383.542h32.312a14.617,14.617,0,0,1,29.234,0h21.541v23.119c.256-.013.51-.039.769-.039a14.617,14.617,0,1,1,0,29.234Zm318.117-22.7a119.525,119.525,0,0,1-10.894,50.022q-1.165,2.55-2.454,5.031a119.329,119.329,0,0,1-12.132,18.895q-3.554,4.535-7.516,8.7-2.908,3.07-6.032,5.924a119.56,119.56,0,0,1-65.647,30.473,121.563,121.563,0,0,1-15.34.969A120.011,120.011,0,0,1,403.58,293.569l.823-.069c2.093-.162,4.208-.269,6.332-.315.985-.023,1.969-.038,2.962-.038a120.278,120.278,0,0,1,20.033,1.669c.916.146,1.823.315,2.731.485.562.108,1.116.223,1.669.339a120.038,120.038,0,0,1,95.581,117.515Z" transform="translate(-77.115 -174.285)" fill="#0076f0"/>
    <rect id="Rectangle_126" data-name="Rectangle 126" width="137.807" height="1.548" transform="translate(501.033 44.657)" fill="#3f3d56"/>
    <rect id="Rectangle_127" data-name="Rectangle 127" width="137.807" height="1.548" transform="translate(501.033 55.495)" fill="#3f3d56"/>
    <rect id="Rectangle_128" data-name="Rectangle 128" width="137.807" height="1.548" transform="translate(501.033 66.334)" fill="#3f3d56"/>
    <path id="Path_4" data-name="Path 4" d="M750.931,603.961H77V163.905H750.931ZM78.539,602.422H749.393V165.444H78.539Z" transform="translate(-77 -163.905)" fill="#3f3d56"/>
    <path id="Path_5" data-name="Path 5" d="M502.877,219.581h0c-23.219,6.29-36.383,32.278-29.4,58.047l8.869,32.739,10.069-2.728,2.543-13.709,1.829,12.525,64.72-17.532,2.312-12.463,1.662,11.386,7.287-1.974L565.8,260.166C557.769,230.514,529.6,212.343,502.877,219.581Z" transform="translate(-168.024 -176.381)" fill="#2f2e41"/>
    <path id="Path_6" data-name="Path 6" d="M543.134,410.46,535.441,452l25.388-3.847,1.154-43.467Z" transform="translate(-123.511 -93.351)" fill="#ffb8b8"/>
    <circle id="Ellipse_38" data-name="Ellipse 38" cx="27.696" cy="27.696" r="27.696" transform="translate(315.764 61.692)" fill="#ffb8b8"/>
    <path id="Path_7" data-name="Path 7" d="M430.789,140.614,429.25,156l-12.309,6.924,32.312,71.547,24.618-59.238-16.156-12.309-1.539-29.234Z" transform="translate(-96.177 -30.839)" fill="#ffb8b8"/>
    <path id="Path_8" data-name="Path 8" d="M646.459,484.38c-.969,16-28.227,28.642-48.245,35.8-5.77,2.07-10.94,3.677-14.71,4.778-2.346.685-4.147,1.177-5.208,1.462-.7.185-1.077.277-1.077.277V509.768l-65.393,5.385v46.2a121.551,121.551,0,0,1-15.34.969,119.479,119.479,0,0,1-57.83-14.825Q438,538.83,437.2,529.771c-.569-6.509-.815-12.694-.792-18.556.185-45.844,16.9-72.024,23.526-80.595a38.644,38.644,0,0,1,2.654-3.17l3.847-10-2.785-17.756-9.4-59.946-.123-.769c3.231-2.831,11.794-4.639,19.179-5.708,4.954-.723,9.386-1.116,11.34-1.277.615-.046.985-.069,1.054-.077h.008l31.5,57.069,10.848-49.2,29.927,13.809s-4.616,19.233-4.616,35.389a25.429,25.429,0,0,1-.831,6.4,37.007,37.007,0,0,1-6.393,12.779,51.392,51.392,0,0,1-8.932,9.286l-6.155,16.925,6.155,23.08,42.367-12.632,14.948-4.454a29.375,29.375,0,0,1,3.839-.869,29.956,29.956,0,0,1,30.673,14.633Z" transform="translate(-159.905 -202.66)" fill="#2f2e41"/>
    <path id="Path_9" data-name="Path 9" d="M610.821,618.766s22.014,2.159,26.394-7.768l22.074,17.769s39.978,10.707,17.695,20c-20.771,8.665-41.544-.586-41.544,1.539,0,0-6.155-5.385-13.079-1.539s-27.7,0-26.926-6.155S599.281,614.15,610.821,618.766Z" transform="translate(-196.584 -267.037)" fill="#2f2e41"/>
    <path id="Path_10" data-name="Path 10" d="M519.714,231.082a22.844,22.844,0,0,0-19.8-4.165l-.825.224c-15.915,4.311-24.915,22.207-20.1,39.971h0l5.333-1.445-.915-6.788,3.038,6.213,31.627-8.568,1.147-6.264.84,5.725,6.222-1.685q10.214,20.449-.8,46.647l10.6-2.871,2.295-12.527,1.68,11.45,20.2-5.473-2.936-26.587C552.146,245.834,536.657,232.641,519.714,231.082Z" transform="translate(-169.427 -178.267)" fill="#2f2e41"/>
    <circle id="Ellipse_39" data-name="Ellipse 39" cx="13.848" cy="13.848" r="13.848" transform="translate(343.075 22.072)" fill="#2f2e41"/>
    <path id="Path_11" data-name="Path 11" d="M534.859,212.56a13.84,13.84,0,0,1-4.872-26.8,13.84,13.84,0,1,0,6.668,26.668A13.905,13.905,0,0,1,534.859,212.56Z" transform="translate(-178.705 -168.947)" fill="#2f2e41"/>
    <ellipse id="Ellipse_40" data-name="Ellipse 40" cx="3.462" cy="5.001" rx="3.462" ry="5.001" transform="translate(357.692 84.388)" fill="#ffb8b8"/>
    <path id="Path_12" data-name="Path 12" d="M441.142,401.1l-2.308,30.773s-10.771,16.925-13.079,53.084l-.769,22.31s-16.156,31.542-3.077,30.773,12.309-30,12.309-30L457.3,441.1V408.788Z" transform="translate(-155.382 -218.618)" fill="#ffb8b8"/>
    <path id="Path_13" data-name="Path 13" d="M457.906,342.1h-5.385s-8.463,5.385-15.387,28.465-7.693,23.849-7.693,23.849l36.158,8.463Z" transform="translate(-158.298 -205.009)" fill="#2f2e41"/>
    <circle id="Ellipse_41" data-name="Ellipse 41" cx="7.011" cy="7.011" r="7.011" transform="translate(467.022 133.827)" fill="#d0cde1"/>
    <circle id="Ellipse_42" data-name="Ellipse 42" cx="3.116" cy="3.116" r="3.116" transform="translate(511.848 268.253)" fill="#d0cde1"/>
    <circle id="Ellipse_43" data-name="Ellipse 43" cx="3.116" cy="3.116" r="3.116" transform="translate(467.996 413.656)" fill="#d0cde1"/>
    <circle id="Ellipse_44" data-name="Ellipse 44" cx="3.116" cy="3.116" r="3.116" transform="translate(51.02 404.424)" fill="#d0cde1"/>
    <circle id="Ellipse_45" data-name="Ellipse 45" cx="3.116" cy="3.116" r="3.116" transform="translate(197.962 138.236)" fill="#d0cde1"/>
    <path id="Path_14" data-name="Path 14" d="M670.453,255.979H668.9v-1.558h-.779v1.558h-1.558v.779h1.558v1.558h.779v-1.558h1.558Z" transform="translate(-153.756 -58.688)" fill="#d0cde1"/>
    <path id="Path_15" data-name="Path 15" d="M739.453,445.979H737.9v-1.558h-.779v1.558h-1.558v.779h1.558v1.558h.779v-1.558h1.558Z" transform="translate(-169.673 -102.516)" fill="#d0cde1"/>
    <path id="Path_16" data-name="Path 16" d="M509.453,529.979H507.9v-1.558h-.779v1.558h-1.558v.779h1.558v1.558h.779v-1.558h1.558Z" transform="translate(-116.618 -121.892)" fill="#d0cde1"/>
    <path id="Path_17" data-name="Path 17" d="M377.453,137.979H375.9v-1.558h-.779v1.558h-1.558v.779h1.558v1.558h.779v-1.558h1.558Z" transform="translate(-86.169 -31.469)" fill="#d0cde1"/>
    <path id="Path_18" data-name="Path 18" d="M19.453,216.979H17.9v-1.558h-.779v1.558H15.558v.779h1.558v1.558H17.9v-1.558h1.558Z" transform="translate(-3.589 -49.692)" fill="#d0cde1"/>
    <path id="Path_19" data-name="Path 19" d="M58.453,145.979H56.9v-1.558h-.779v1.558H54.558v.779h1.558v1.558H56.9v-1.558h1.558Z" transform="translate(-12.585 -33.314)" fill="#d0cde1"/>
    <path id="Path_20" data-name="Path 20" d="M341.453,532.979H339.9v-1.558h-.779v1.558h-1.558v.779h1.558v1.558h.779v-1.558h1.558Z" transform="translate(-77.865 -122.584)" fill="#d0cde1"/>
    <path id="Path_21" data-name="Path 21" d="M189.453,114.979H187.9v-1.558h-.779v1.558h-1.558v.779h1.558v1.558h.779v-1.558h1.558Z" transform="translate(-42.803 -26.163)" fill="#d0cde1"/>
    <path id="Path_22" data-name="Path 22" d="M22.453,347.979H20.9v-1.558h-.779v1.558H18.558v.779h1.558v1.558H20.9v-1.558h1.558Z" transform="translate(-4.281 -79.91)" fill="#d0cde1"/>
    <path id="Path_23" data-name="Path 23" d="M175.453,234.979H173.9v-1.558h-.779v1.558h-1.558v.779h1.558v1.558h.779v-1.558h1.558Z" transform="translate(-39.574 -53.844)" fill="#d0cde1"/>
    <path id="Path_24" data-name="Path 24" d="M178.453,524.979H176.9v-1.558h-.779v1.558h-1.558v.779h1.558v1.558h.779v-1.558h1.558Z" transform="translate(-40.266 -120.739)" fill="#d0cde1"/>
    <path id="Path_25" data-name="Path 25" d="M269.453,459.979H267.9v-1.558h-.779v1.558h-1.558v.779h1.558v1.558h.779v-1.558h1.558Z" transform="translate(-61.257 -105.745)" fill="#d0cde1"/>
    <path id="Path_26" data-name="Path 26" d="M770.453,537.979H768.9v-1.558h-.779v1.558h-1.558v.779h1.558v1.558h.779v-1.558h1.558Z" transform="translate(-176.824 -123.737)" fill="#d0cde1"/>
    <ellipse id="Ellipse_46" data-name="Ellipse 46" cx="7.5" cy="8" rx="7.5" ry="8" transform="translate(13.358 8.006)" fill="#6c63ff"/>
    <ellipse id="Ellipse_47" data-name="Ellipse 47" cx="7.5" cy="8" rx="7.5" ry="8" transform="translate(36.358 8.006)" fill="#6c63ff"/>
    <ellipse id="Ellipse_48" data-name="Ellipse 48" cx="7.5" cy="8" rx="7.5" ry="8" transform="translate(59.358 8.006)" fill="#6c63ff"/>
    <rect id="Rectangle_129" data-name="Rectangle 129" width="137.807" height="1.548" transform="translate(369.478 383.298)" fill="#d0cde1"/>
    <rect id="Rectangle_130" data-name="Rectangle 130" width="83" height="83" transform="translate(363.358 277.006)" fill="#fff337"/>
    <path id="Path_27" data-name="Path 27" d="M569.539,588.529V523.905H568v66.162h68.47v-1.539Z" transform="translate(-190.26 -246.947)" fill="#d0cde1"/>
    <path id="Path_28" data-name="Path 28" d="M606.655,398.1l12.309,30s13.079,15.387,15.387,32.312l3.847,20s9.232,35.389-5.385,33.85-10.771-35.389-10.771-35.389l-2.308-10-13.079-21.541-19.3-36.682Z" transform="translate(-194.725 -217.926)" fill="#ffb8b8"/>
    <path id="Path_29" data-name="Path 29" d="M502.134,192.19l10,3.077,21.541,32.312-39.236,26.157Z" transform="translate(-114.054 -44.333)" fill="#2f2e41"/>
    <circle id="Ellipse_49" data-name="Ellipse 49" cx="19" cy="19" r="19" transform="translate(390.358 291.006)" fill="#fff"/>
    <circle id="Ellipse_50" data-name="Ellipse 50" cx="14.5" cy="14.5" r="14.5" transform="translate(390.358 260.006)" fill="#fff337"/>
    <circle id="Ellipse_51" data-name="Ellipse 51" cx="14.5" cy="14.5" r="14.5" transform="translate(431.358 301.006)" fill="#fff337"/>
  </g>
</svg>
