<svg xmlns="http://www.w3.org/2000/svg" width="32.068" height="32.068" viewBox="0 0 32.068 32.068">
  <path id="dribbble" d="M16-.034A16.034,16.034,0,1,0,32.034,16,16.051,16.051,0,0,0,16-.034Zm0,31A14.966,14.966,0,1,1,30.966,16,14.983,14.983,0,0,1,16,30.966Zm5.851-20.461A8.029,8.029,0,0,0,8.006,15.2c-.025.264-.04.53-.04.8a8.031,8.031,0,0,0,15.787,2.085h0A8.129,8.129,0,0,0,24.034,16,8,8,0,0,0,21.851,10.5Zm.985,6.8c-.177-.038-.349-.055-.525-.086-.233-.041-.466-.084-.7-.114-.273-.035-.54-.053-.808-.071-.216-.014-.432-.033-.644-.036-.066,0-.136-.011-.2-.011-.352,0-.7.017-1.048.047-.045,0-.089.013-.134.017-.28.028-.559.06-.833.108-.045-.117-.1-.227-.142-.343q-.279-.707-.576-1.392c-.049-.112-.092-.23-.141-.341.1-.042.2-.089.3-.133s.208-.089.308-.136c.222-.1.433-.212.637-.324.065-.036.134-.069.2-.1.26-.15.5-.307.736-.468.055-.039.1-.079.158-.118.174-.127.341-.255.5-.385.068-.057.132-.113.2-.17q.205-.18.39-.36c.056-.054.112-.108.165-.163.14-.143.27-.286.393-.428.024-.028.052-.056.075-.084.131-.156.254-.31.366-.461A6.918,6.918,0,0,1,22.966,16a6.825,6.825,0,0,1-.13,1.305ZM16,9.034a6.878,6.878,0,0,1,4.772,1.9c-.014.021-.026.04-.041.06-.038.053-.08.107-.12.16-.073.1-.15.195-.232.3-.049.059-.1.119-.152.178-.086.1-.177.2-.272.3-.057.06-.115.12-.176.18-.107.1-.223.21-.341.314-.059.052-.114.1-.176.156-.184.154-.378.306-.588.453l-.043.028c-.2.137-.407.27-.628.4-.081.047-.17.091-.255.137-.162.088-.328.174-.5.255-.107.05-.22.1-.332.145-.09.038-.187.073-.28.11-.025-.053-.051-.1-.076-.152-.209-.435-.418-.857-.625-1.253-.016-.031-.032-.059-.048-.09-.2-.378-.392-.733-.584-1.074-.044-.078-.087-.156-.131-.232q-.289-.507-.56-.955c-.041-.068-.079-.129-.119-.194-.162-.264-.318-.512-.465-.74l-.048-.076A6.94,6.94,0,0,1,16,9.034Zm-3.039.7.018.027c.158.241.33.512.509.8.038.061.077.124.115.187.185.3.376.621.575.969.022.038.044.079.066.117.187.328.379.679.574,1.045l.112.21c.207.394.416.811.626,1.246l.045.094c-.332.093-.658.194-1.012.261-.054.01-.11.017-.164.027a16.527,16.527,0,0,1-3.5.21c-.1,0-.191,0-.29-.009-.482-.025-.986-.083-1.492-.143a6.946,6.946,0,0,1,3.818-5.041ZM9.034,16c0-.048,0-.1,0-.145.142.017.274.018.415.032q.588.06,1.156.091c.225.012.448.021.668.025.135,0,.279.016.412.016h0c.287,0,.563-.017.841-.03.117-.005.237-.005.352-.012q.776-.051,1.505-.169c.126-.02.245-.048.368-.071q.56-.1,1.086-.25c.073-.02.153-.03.224-.052.051.113.1.228.15.343q.281.642.544,1.3l.126.32c-.108.031-.208.07-.314.1-.138.043-.275.087-.408.135-.219.078-.429.164-.637.253-.113.049-.229.094-.339.146-.249.117-.488.243-.72.374-.056.031-.116.06-.171.092-.285.166-.555.342-.813.523-.072.05-.137.1-.207.154-.182.134-.361.268-.529.406-.085.07-.164.14-.246.21q-.214.184-.414.37c-.08.076-.158.15-.234.226-.121.12-.237.238-.348.357-.071.076-.143.151-.21.226-.025.028-.054.057-.079.084A6.944,6.944,0,0,1,9.034,16Zm3.018,5.737.05-.058c.06-.067.126-.134.189-.2q.153-.163.319-.327c.071-.07.145-.14.22-.21.116-.109.238-.218.363-.326.08-.069.16-.138.243-.206.138-.113.284-.223.431-.332.081-.06.159-.121.242-.179.2-.14.41-.274.626-.4.04-.024.076-.05.117-.074q.387-.225.811-.423c.086-.04.178-.074.266-.112.2-.088.409-.173.624-.249.114-.04.232-.075.35-.112s.238-.067.358-.1c.225.627.445,1.258.642,1.9.009.029.019.056.028.085.207.686.387,1.385.56,2.087a6.975,6.975,0,0,1-6.439-.762Zm7.434.286c-.158-.628-.332-1.251-.517-1.867-.007-.024-.013-.049-.02-.073q-.29-.955-.618-1.883c.145-.023.289-.05.436-.067.122-.014.244-.03.367-.039.357-.027.718-.038,1.086-.03.041,0,.081,0,.122,0a12.422,12.422,0,0,1,1.257.112c.115.016.232.04.348.059.2.033.4.077.6.119a6.92,6.92,0,0,1-3.06,3.67Z" transform="translate(0.034 0.034)" fill="#c1c1c1"/>
</svg>
