<svg xmlns="http://www.w3.org/2000/svg" width="32.068" height="32.068" viewBox="0 0 32.068 32.068">
  <path id="linkedin" d="M19.515,11.952a3.167,3.167,0,0,0-1.573.387A.447.447,0,0,0,17.428,12H14.444a.381.381,0,0,0-.443.5v11a.4.4,0,0,0,.443.5h2.984a.506.506,0,0,0,.534-.515V16.837a.828.828,0,0,1,.189-.54,1.087,1.087,0,0,1,.821-.263A.9.9,0,0,1,20,16.879v6.606a.39.39,0,0,0,.429.515h3.145A.389.389,0,0,0,24,23.485V16.657a4.24,4.24,0,0,0-4.486-4.7ZM23.038,23H20.962V16.879a1.811,1.811,0,0,0-1.99-1.913,2.088,2.088,0,0,0-1.606.606A1.425,1.425,0,0,0,17,17v6H14.978V13.02h1.916v.336a.532.532,0,0,0,.3.479.539.539,0,0,0,.562-.056l.14-.108a2.36,2.36,0,0,1,1.622-.65,3.313,3.313,0,0,1,3.523,3.637V23ZM11,6.966A2.034,2.034,0,1,0,13.034,9,2.036,2.036,0,0,0,11,6.966Zm0,3A.966.966,0,1,1,11.966,9,.968.968,0,0,1,11,9.966Zm1.428,1.985H9.46A.445.445,0,0,0,9,12.5v11a.413.413,0,0,0,.46.5h2.968a.506.506,0,0,0,.534-.515v-11a.534.534,0,0,0-.534-.534ZM12,23H9.994V13.02H12ZM16-.034A16.034,16.034,0,1,0,32.034,16,16.051,16.051,0,0,0,16-.034Zm0,31A14.966,14.966,0,1,1,30.966,16,14.983,14.983,0,0,1,16,30.966Z" transform="translate(0.034 0.034)" fill="#c1c1c1"/>
</svg>
